<svg width="430" height="140" viewBox="0 0 430 140" fill="none" xmlns="http://www.w3.org/2000/svg">
<path d="M215 120C236.24 120 254.902 108.964 265.565 92.3127C275.321 77.0763 290.868 61.9754 308.892 63.546C354.507 67.5208 430 70.9367 430 50V100C430 122.091 412.091 140 390 140H40C17.9086 140 0 122.091 0 100L0 50C0 72.2674 75.0536 68.3871 120.708 63.967C138.868 62.2087 154.722 77.3888 164.673 92.6816C175.375 109.126 193.917 120 215 120Z" fill="#DC3939"/>
<path d="M265 50C265 77.6142 242.614 100 215 100C187.386 100 165 77.6142 165 50C165 22.3858 187.386 0 215 0C242.614 0 265 22.3858 265 50Z" fill="#DC3939"/>
</svg>
