<svg width="313" height="107" viewBox="0 0 313 107" fill="none" xmlns="http://www.w3.org/2000/svg">
<path d="M119.668 106.647C119.258 106.647 118.907 106.503 118.615 106.215C118.323 105.927 118.179 105.576 118.183 105.162C118.179 104.757 118.323 104.411 118.615 104.123C118.907 103.835 119.258 103.691 119.668 103.691C120.064 103.691 120.408 103.835 120.7 104.123C120.997 104.411 121.148 104.757 121.152 105.162C121.148 105.437 121.076 105.686 120.936 105.911C120.801 106.136 120.621 106.316 120.397 106.451C120.176 106.582 119.933 106.647 119.668 106.647Z" fill="#F8F8F8"/>
<path d="M115.926 98.8733L113.7 99.1162C113.637 98.8913 113.526 98.6798 113.369 98.4819C113.216 98.284 113.009 98.1243 112.748 98.0028C112.487 97.8813 112.168 97.8206 111.79 97.8206C111.282 97.8206 110.854 97.9308 110.508 98.1513C110.166 98.3717 109.997 98.6573 110.002 99.0082C109.997 99.3096 110.107 99.5548 110.332 99.7438C110.562 99.9327 110.94 100.088 111.466 100.209L113.234 100.587C114.215 100.799 114.943 101.134 115.42 101.593C115.902 102.052 116.145 102.652 116.149 103.394C116.145 104.047 115.953 104.623 115.576 105.122C115.202 105.617 114.683 106.004 114.017 106.283C113.351 106.561 112.586 106.701 111.722 106.701C110.454 106.701 109.433 106.435 108.659 105.905C107.885 105.369 107.424 104.625 107.276 103.671L109.658 103.442C109.766 103.909 109.995 104.263 110.346 104.501C110.697 104.739 111.153 104.859 111.716 104.859C112.296 104.859 112.762 104.739 113.113 104.501C113.468 104.263 113.646 103.968 113.646 103.617C113.646 103.32 113.531 103.075 113.301 102.882C113.077 102.688 112.726 102.54 112.249 102.436L110.481 102.065C109.487 101.858 108.751 101.509 108.274 101.019C107.797 100.524 107.561 99.899 107.566 99.1432C107.561 98.5044 107.734 97.9511 108.085 97.4832C108.441 97.0109 108.933 96.6465 109.563 96.39C110.197 96.1291 110.928 95.9987 111.756 95.9987C112.971 95.9987 113.927 96.2573 114.624 96.7747C115.326 97.292 115.76 97.9916 115.926 98.8733Z" fill="#F8F8F8"/>
<path d="M101.059 106.701C100.02 106.701 99.1221 106.485 98.3663 106.053C97.615 105.617 97.0369 105 96.6321 104.204C96.2272 103.403 96.0248 102.461 96.0248 101.377C96.0248 100.311 96.2272 99.3749 96.6321 98.5696C97.0414 97.7599 97.6128 97.1301 98.346 96.6802C99.0793 96.2258 99.9408 95.9987 100.931 95.9987C101.569 95.9987 102.172 96.1021 102.739 96.3091C103.31 96.5115 103.814 96.8264 104.25 97.2538C104.691 97.6811 105.038 98.2255 105.29 98.8868C105.542 99.5436 105.668 100.326 105.668 101.235V101.984H97.1719V100.338H103.326C103.322 99.8697 103.22 99.4536 103.022 99.0892C102.824 98.7203 102.548 98.4302 102.192 98.2187C101.841 98.0073 101.432 97.9016 100.964 97.9016C100.465 97.9016 100.026 98.023 99.6484 98.266C99.2705 98.5044 98.9759 98.8193 98.7644 99.2107C98.5575 99.5976 98.4518 100.023 98.4473 100.486V101.923C98.4473 102.526 98.5575 103.044 98.7779 103.475C98.9983 103.903 99.3065 104.231 99.7024 104.461C100.098 104.686 100.562 104.798 101.092 104.798C101.448 104.798 101.77 104.748 102.057 104.65C102.345 104.546 102.595 104.395 102.806 104.197C103.018 103.999 103.178 103.754 103.286 103.462L105.566 103.718C105.422 104.321 105.148 104.847 104.743 105.297C104.343 105.743 103.83 106.089 103.205 106.337C102.579 106.579 101.864 106.701 101.059 106.701Z" fill="#F8F8F8"/>
<path d="M90.0241 106.701C88.9895 106.701 88.101 106.474 87.3587 106.019C86.6209 105.565 86.0519 104.937 85.6515 104.137C85.2556 103.331 85.0577 102.405 85.0577 101.357C85.0577 100.304 85.2601 99.3749 85.665 98.5696C86.0699 97.7599 86.6412 97.1301 87.379 96.6802C88.1212 96.2258 88.9985 95.9987 90.0107 95.9987C90.8519 95.9987 91.5964 96.1539 92.2442 96.4643C92.8965 96.7702 93.4161 97.2043 93.803 97.7666C94.1899 98.3244 94.4103 98.9768 94.4643 99.7235H92.1295C92.035 99.2242 91.8101 98.8081 91.4547 98.4752C91.1038 98.1378 90.6337 97.9691 90.0444 97.9691C89.545 97.9691 89.1064 98.104 88.7285 98.3739C88.3507 98.6394 88.056 99.0217 87.8446 99.5211C87.6376 100.02 87.5342 100.619 87.5342 101.316C87.5342 102.022 87.6376 102.63 87.8446 103.138C88.0515 103.642 88.3417 104.031 88.7151 104.305C89.0929 104.575 89.536 104.71 90.0444 104.71C90.4043 104.71 90.7259 104.643 91.0093 104.508C91.2973 104.368 91.5379 104.168 91.7314 103.907C91.9248 103.646 92.0575 103.329 92.1295 102.956H94.4643C94.4058 103.689 94.1899 104.339 93.8165 104.906C93.4431 105.468 92.9348 105.909 92.2915 106.229C91.6482 106.543 90.8924 106.701 90.0241 106.701Z" fill="#F8F8F8"/>
<path d="M80.5483 106.498V96.1336H82.9911V106.498H80.5483ZM81.7764 94.6626C81.3896 94.6626 81.0567 94.5343 80.7777 94.2779C80.4988 94.017 80.3594 93.7044 80.3594 93.34C80.3594 92.9711 80.4988 92.6584 80.7777 92.402C81.0567 92.1411 81.3896 92.0106 81.7764 92.0106C82.1678 92.0106 82.5007 92.1411 82.7751 92.402C83.0541 92.6584 83.1935 92.9711 83.1935 93.34C83.1935 93.7044 83.0541 94.017 82.7751 94.2779C82.5007 94.5343 82.1678 94.6626 81.7764 94.6626Z" fill="#F8F8F8"/>
<path d="M78.8579 96.1336L75.1668 106.498H72.4676L68.7765 96.1336H71.3812L73.7632 103.833H73.8712L76.26 96.1336H78.8579Z" fill="#F8F8F8"/>
<path d="M61.7503 106.498V96.1336H64.1188V97.8611H64.2268C64.4157 97.2628 64.7396 96.8016 65.1985 96.4777C65.6618 96.1493 66.1904 95.9851 66.7843 95.9851C66.9192 95.9851 67.0699 95.9919 67.2364 96.0054C67.4073 96.0144 67.549 96.0301 67.6615 96.0526V98.2997C67.558 98.2637 67.3938 98.2322 67.1689 98.2052C66.9485 98.1737 66.7348 98.158 66.5278 98.158C66.0825 98.158 65.6821 98.2547 65.3267 98.4481C64.9758 98.6371 64.6991 98.9003 64.4967 99.2377C64.2943 99.575 64.193 99.9642 64.193 100.405V106.498H61.7503Z" fill="#F8F8F8"/>
<path d="M55.0749 106.701C54.0357 106.701 53.1382 106.485 52.3825 106.053C51.6312 105.617 51.0531 105 50.6482 104.204C50.2434 103.403 50.0409 102.461 50.0409 101.377C50.0409 100.311 50.2434 99.3749 50.6482 98.5696C51.0576 97.7599 51.6289 97.1301 52.3622 96.6802C53.0955 96.2258 53.957 95.9987 54.9467 95.9987C55.5855 95.9987 56.1883 96.1021 56.7551 96.3091C57.3265 96.5115 57.8303 96.8264 58.2667 97.2538C58.7075 97.6811 59.0539 98.2255 59.3059 98.8868C59.5578 99.5436 59.6837 100.326 59.6837 101.235V101.984H51.1881V100.338H57.3422C57.3377 99.8697 57.2365 99.4536 57.0385 99.0892C56.8406 98.7203 56.5639 98.4302 56.2085 98.2187C55.8577 98.0073 55.4483 97.9016 54.9804 97.9016C54.4811 97.9016 54.0425 98.023 53.6646 98.266C53.2867 98.5044 52.992 98.8193 52.7806 99.2107C52.5737 99.5976 52.4679 100.023 52.4634 100.486V101.923C52.4634 102.526 52.5737 103.044 52.7941 103.475C53.0145 103.903 53.3227 104.231 53.7186 104.461C54.1144 104.686 54.5778 104.798 55.1086 104.798C55.464 104.798 55.7857 104.748 56.0736 104.65C56.3615 104.546 56.6112 104.395 56.8226 104.197C57.034 103.999 57.1937 103.754 57.3017 103.462L59.5825 103.718C59.4386 104.321 59.1641 104.847 58.7593 105.297C58.3589 105.743 57.846 106.089 57.2207 106.337C56.5954 106.579 55.8802 106.701 55.0749 106.701Z" fill="#F8F8F8"/>
<path d="M48.2497 98.8733L46.0228 99.1162C45.9599 98.8913 45.8497 98.6798 45.6922 98.4819C45.5392 98.284 45.3323 98.1243 45.0714 98.0028C44.8105 97.8813 44.4911 97.8206 44.1132 97.8206C43.6048 97.8206 43.1775 97.9308 42.8311 98.1513C42.4892 98.3717 42.3205 98.6573 42.325 99.0082C42.3205 99.3096 42.4307 99.5548 42.6556 99.7438C42.8851 99.9327 43.2629 100.088 43.7893 100.209L45.5572 100.587C46.5379 100.799 47.2667 101.134 47.7436 101.593C48.2249 102.052 48.4678 102.652 48.4723 103.394C48.4678 104.047 48.2767 104.623 47.8988 105.122C47.5254 105.617 47.0058 106.004 46.34 106.283C45.6742 106.561 44.9094 106.701 44.0457 106.701C42.7771 106.701 41.7559 106.435 40.9821 105.905C40.2084 105.369 39.7473 104.625 39.5988 103.671L41.9808 103.442C42.0888 103.909 42.3182 104.263 42.6691 104.501C43.02 104.739 43.4766 104.859 44.039 104.859C44.6193 104.859 45.0849 104.739 45.4358 104.501C45.7912 104.263 45.9689 103.968 45.9689 103.617C45.9689 103.32 45.8541 103.075 45.6247 102.882C45.3998 102.688 45.0489 102.54 44.572 102.436L42.8041 102.065C41.8099 101.858 41.0744 101.509 40.5975 101.019C40.1206 100.524 39.8845 99.899 39.889 99.1432C39.8845 98.5044 40.0577 97.9511 40.4086 97.4832C40.764 97.0109 41.2566 96.6465 41.8864 96.39C42.5207 96.1291 43.2517 95.9987 44.0794 95.9987C45.2941 95.9987 46.25 96.2573 46.9473 96.7747C47.6491 97.292 48.0832 97.9916 48.2497 98.8733Z" fill="#F8F8F8"/>
<path d="M27.2214 106.681C26.4071 106.681 25.6783 106.471 25.035 106.053C24.3917 105.635 23.8834 105.027 23.51 104.231C23.1366 103.435 22.9499 102.468 22.9499 101.33C22.9499 100.178 23.1389 99.2062 23.5167 98.4144C23.8991 97.6182 24.4142 97.0176 25.062 96.6127C25.7098 96.2033 26.4319 95.9987 27.2281 95.9987C27.8354 95.9987 28.3348 96.1021 28.7261 96.3091C29.1175 96.5115 29.4279 96.7567 29.6574 97.0446C29.8868 97.328 30.0645 97.5957 30.1905 97.8476H30.2917V92.6787H32.7412V106.498H30.3389V104.865H30.1905C30.0645 105.117 29.8823 105.385 29.6439 105.668C29.4054 105.947 29.0905 106.186 28.6992 106.384C28.3078 106.582 27.8152 106.681 27.2214 106.681ZM27.9029 104.677C28.4202 104.677 28.8611 104.537 29.2255 104.258C29.5899 103.975 29.8666 103.581 30.0555 103.077C30.2444 102.573 30.3389 101.986 30.3389 101.316C30.3389 100.646 30.2444 100.063 30.0555 99.5683C29.8711 99.0735 29.5966 98.6888 29.2322 98.4144C28.8724 98.14 28.4292 98.0028 27.9029 98.0028C27.3586 98.0028 26.9042 98.1445 26.5398 98.4279C26.1754 98.7113 25.901 99.1027 25.7166 99.6021C25.5321 100.101 25.4399 100.673 25.4399 101.316C25.4399 101.964 25.5321 102.542 25.7166 103.05C25.9055 103.554 26.1822 103.952 26.5466 104.245C26.9155 104.533 27.3676 104.677 27.9029 104.677Z" fill="#F8F8F8"/>
<path d="M14.2381 100.425V106.498H11.7953V96.1336H14.1301V97.8948H14.2516C14.49 97.3145 14.8701 96.8534 15.392 96.5115C15.9183 96.1696 16.5683 95.9987 17.3421 95.9987C18.0574 95.9987 18.6805 96.1516 19.2113 96.4575C19.7466 96.7634 20.1605 97.2065 20.4529 97.7869C20.7498 98.3672 20.896 99.0712 20.8915 99.899V106.498H18.4488V100.277C18.4488 99.5841 18.2688 99.042 17.9089 98.6506C17.5535 98.2592 17.0609 98.0635 16.4311 98.0635C16.0038 98.0635 15.6236 98.158 15.2907 98.3469C14.9623 98.5314 14.7037 98.7991 14.5147 99.1499C14.3303 99.5008 14.2381 99.926 14.2381 100.425Z" fill="#F8F8F8"/>
<path d="M3.86644 106.708C3.20964 106.708 2.61807 106.591 2.09173 106.357C1.56989 106.118 1.15601 105.767 0.850107 105.304C0.548699 104.841 0.397995 104.269 0.397995 103.59C0.397995 103.005 0.505962 102.522 0.721896 102.139C0.93783 101.757 1.23249 101.451 1.60588 101.222C1.97926 100.992 2.39988 100.819 2.86774 100.702C3.3401 100.581 3.8282 100.493 4.33204 100.439C4.93936 100.376 5.43196 100.32 5.80984 100.27C6.18773 100.216 6.46214 100.135 6.63309 100.027C6.80854 99.9147 6.89626 99.7415 6.89626 99.5076V99.4671C6.89626 98.9588 6.74556 98.5651 6.44415 98.2862C6.14274 98.0073 5.70862 97.8678 5.1418 97.8678C4.54348 97.8678 4.06887 97.9983 3.71798 98.2592C3.37159 98.5201 3.13766 98.8283 3.0162 99.1837L0.735392 98.8598C0.915337 98.23 1.21225 97.7036 1.62612 97.2808C2.03999 96.8534 2.54609 96.534 3.14441 96.3226C3.74272 96.1066 4.40402 95.9987 5.1283 95.9987C5.62765 95.9987 6.12475 96.0571 6.61959 96.1741C7.11444 96.2911 7.56656 96.4845 7.97593 96.7544C8.3853 97.0199 8.7137 97.382 8.96113 97.8408C9.21305 98.2997 9.33901 98.8733 9.33901 99.5616V106.498H6.99073V105.075H6.90976C6.7613 105.363 6.55212 105.632 6.2822 105.884C6.01678 106.132 5.68163 106.332 5.27675 106.485C4.87638 106.633 4.40627 106.708 3.86644 106.708ZM4.50074 104.913C4.99109 104.913 5.41621 104.816 5.7761 104.623C6.13599 104.425 6.41266 104.164 6.6061 103.84C6.80404 103.516 6.90301 103.163 6.90301 102.78V101.559C6.82653 101.622 6.69607 101.68 6.51163 101.734C6.33168 101.788 6.12924 101.836 5.90431 101.876C5.67938 101.917 5.4567 101.953 5.23627 101.984C5.01583 102.016 4.82464 102.043 4.66269 102.065C4.2983 102.115 3.97215 102.196 3.68424 102.308C3.39633 102.42 3.16915 102.578 3.0027 102.78C2.83625 102.978 2.75303 103.235 2.75303 103.55C2.75303 103.999 2.91723 104.339 3.24563 104.569C3.57402 104.798 3.9924 104.913 4.50074 104.913Z" fill="#F8F8F8"/>
<path d="M292.64 83.678C291.825 83.678 291.097 83.4688 290.453 83.0504C289.81 82.6321 289.302 82.0247 288.928 81.2285C288.555 80.4322 288.368 79.465 288.368 78.3269C288.368 77.1752 288.557 76.2035 288.935 75.4118C289.317 74.6155 289.833 74.0149 290.48 73.6101C291.128 73.2007 291.85 72.996 292.646 72.996C293.254 72.996 293.753 73.0995 294.144 73.3064C294.536 73.5088 294.846 73.754 295.076 74.0419C295.305 74.3253 295.483 74.593 295.609 74.8449H295.71V69.676H298.16V83.4958H295.757V81.8628H295.609C295.483 82.1147 295.301 82.3824 295.062 82.6658C294.824 82.9447 294.509 83.1831 294.118 83.3811C293.726 83.579 293.234 83.678 292.64 83.678ZM293.321 81.6738C293.839 81.6738 294.279 81.5344 294.644 81.2555C295.008 80.9721 295.285 80.5784 295.474 80.0746C295.663 79.5707 295.757 78.9837 295.757 78.3134C295.757 77.6431 295.663 77.0605 295.474 76.5657C295.289 76.0708 295.015 75.6862 294.651 75.4118C294.291 75.1373 293.848 75.0001 293.321 75.0001C292.777 75.0001 292.323 75.1418 291.958 75.4253C291.594 75.7087 291.319 76.1 291.135 76.5994C290.95 77.0987 290.858 77.6701 290.858 78.3134C290.858 78.9612 290.95 79.5392 291.135 80.0476C291.324 80.5514 291.601 80.9496 291.965 81.242C292.334 81.5299 292.786 81.6738 293.321 81.6738Z" fill="#F8F8F8"/>
<path d="M281.753 83.6982C280.741 83.6982 279.864 83.4756 279.122 83.0302C278.379 82.5848 277.804 81.9618 277.394 81.161C276.989 80.3603 276.787 79.4245 276.787 78.3539C276.787 77.2832 276.989 76.3452 277.394 75.54C277.804 74.7347 278.379 74.1094 279.122 73.6641C279.864 73.2187 280.741 72.996 281.753 72.996C282.766 72.996 283.643 73.2187 284.385 73.6641C285.127 74.1094 285.701 74.7347 286.106 75.54C286.515 76.3452 286.72 77.2832 286.72 78.3539C286.72 79.4245 286.515 80.3603 286.106 81.161C285.701 81.9618 285.127 82.5848 284.385 83.0302C283.643 83.4756 282.766 83.6982 281.753 83.6982ZM281.767 81.7413C282.316 81.7413 282.775 81.5906 283.143 81.2892C283.512 80.9833 283.787 80.5739 283.967 80.0611C284.151 79.5483 284.243 78.9769 284.243 78.3471C284.243 77.7128 284.151 77.1392 283.967 76.6264C283.787 76.1091 283.512 75.6974 283.143 75.3915C282.775 75.0856 282.316 74.9327 281.767 74.9327C281.204 74.9327 280.737 75.0856 280.363 75.3915C279.994 75.6974 279.718 76.1091 279.533 76.6264C279.353 77.1392 279.263 77.7128 279.263 78.3471C279.263 78.9769 279.353 79.5483 279.533 80.0611C279.718 80.5739 279.994 80.9833 280.363 81.2892C280.737 81.5906 281.204 81.7413 281.767 81.7413Z" fill="#F8F8F8"/>
<path d="M270.192 83.6982C269.18 83.6982 268.303 83.4756 267.561 83.0302C266.818 82.5848 266.243 81.9618 265.833 81.161C265.428 80.3603 265.226 79.4245 265.226 78.3539C265.226 77.2832 265.428 76.3452 265.833 75.54C266.243 74.7347 266.818 74.1094 267.561 73.6641C268.303 73.2187 269.18 72.996 270.192 72.996C271.205 72.996 272.082 73.2187 272.824 73.6641C273.566 74.1094 274.14 74.7347 274.545 75.54C274.954 76.3452 275.159 77.2832 275.159 78.3539C275.159 79.4245 274.954 80.3603 274.545 81.161C274.14 81.9618 273.566 82.5848 272.824 83.0302C272.082 83.4756 271.205 83.6982 270.192 83.6982ZM270.206 81.7413C270.755 81.7413 271.214 81.5906 271.582 81.2892C271.951 80.9833 272.226 80.5739 272.406 80.0611C272.59 79.5483 272.682 78.9769 272.682 78.3471C272.682 77.7128 272.59 77.1392 272.406 76.6264C272.226 76.1091 271.951 75.6974 271.582 75.3915C271.214 75.0856 270.755 74.9327 270.206 74.9327C269.644 74.9327 269.176 75.0856 268.802 75.3915C268.433 75.6974 268.157 76.1091 267.972 76.6264C267.792 77.1392 267.702 77.7128 267.702 78.3471C267.702 78.9769 267.792 79.5483 267.972 80.0611C268.157 80.5739 268.433 80.9833 268.802 81.2892C269.176 81.5906 269.644 81.7413 270.206 81.7413Z" fill="#F8F8F8"/>
<path d="M264.148 73.1309V75.0204H258.021V73.1309H264.148ZM259.553 83.4958V72.1525C259.553 71.4552 259.697 70.8749 259.985 70.4115C260.277 69.9482 260.668 69.6018 261.159 69.3724C261.649 69.1429 262.193 69.0282 262.792 69.0282C263.215 69.0282 263.59 69.0619 263.919 69.1294C264.247 69.1969 264.49 69.2576 264.647 69.3116L264.162 71.201C264.058 71.1695 263.928 71.1381 263.77 71.1066C263.613 71.0706 263.437 71.0526 263.244 71.0526C262.79 71.0526 262.468 71.1628 262.279 71.3832C262.094 71.5992 262.002 71.9096 262.002 72.3144V83.4958H259.553Z" fill="#F8F8F8"/>
<path d="M245.048 77.4227V83.4958H242.605V73.131H244.94V74.8922H245.061C245.3 74.3119 245.68 73.8507 246.202 73.5089C246.728 73.167 247.378 72.996 248.152 72.996C248.867 72.996 249.49 73.149 250.021 73.4549C250.556 73.7608 250.97 74.2039 251.263 74.7842C251.56 75.3645 251.706 76.0686 251.701 76.8963V83.4958H249.259V77.2742C249.259 76.5814 249.079 76.0393 248.719 75.6479C248.363 75.2566 247.871 75.0609 247.241 75.0609C246.814 75.0609 246.433 75.1553 246.101 75.3443C245.772 75.5287 245.514 75.7964 245.325 76.1473C245.14 76.4982 245.048 76.9233 245.048 77.4227Z" fill="#F8F8F8"/>
<path d="M235.93 83.6982C234.891 83.6982 233.993 83.4823 233.237 83.0504C232.486 82.6141 231.908 81.9978 231.503 81.2015C231.098 80.4007 230.896 79.4583 230.896 78.3741C230.896 77.3079 231.098 76.3722 231.503 75.567C231.912 74.7572 232.484 74.1274 233.217 73.6775C233.95 73.2232 234.812 72.996 235.802 72.996C236.44 72.996 237.043 73.0995 237.61 73.3064C238.181 73.5089 238.685 73.8238 239.122 74.2511C239.562 74.6785 239.909 75.2228 240.161 75.8841C240.413 76.5409 240.539 77.3237 240.539 78.2324V78.9814H232.043V77.3349H238.197C238.193 76.8671 238.091 76.451 237.893 76.0866C237.695 75.7177 237.419 75.4275 237.063 75.2161C236.713 75.0046 236.303 74.8989 235.835 74.8989C235.336 74.8989 234.897 75.0204 234.519 75.2633C234.142 75.5017 233.847 75.8166 233.635 76.208C233.429 76.5949 233.323 77.02 233.318 77.4834V78.9207C233.318 79.5235 233.429 80.0409 233.649 80.4727C233.869 80.9001 234.178 81.2285 234.573 81.4579C234.969 81.6829 235.433 81.7953 235.963 81.7953C236.319 81.7953 236.641 81.7458 236.928 81.6469C237.216 81.5434 237.466 81.3927 237.677 81.1948C237.889 80.9968 238.049 80.7516 238.157 80.4592L240.437 80.7156C240.293 81.3185 240.019 81.8448 239.614 82.2947C239.214 82.74 238.701 83.0864 238.076 83.3338C237.45 83.5768 236.735 83.6982 235.93 83.6982Z" fill="#F8F8F8"/>
<path d="M224.666 83.6982C223.627 83.6982 222.729 83.4823 221.973 83.0504C221.222 82.6141 220.644 81.9978 220.239 81.2015C219.834 80.4007 219.632 79.4583 219.632 78.3741C219.632 77.3079 219.834 76.3722 220.239 75.567C220.648 74.7572 221.22 74.1274 221.953 73.6775C222.686 73.2232 223.548 72.996 224.538 72.996C225.176 72.996 225.779 73.0995 226.346 73.3064C226.917 73.5089 227.421 73.8238 227.858 74.2511C228.298 74.6785 228.645 75.2228 228.897 75.8841C229.149 76.5409 229.275 77.3237 229.275 78.2324V78.9814H220.779V77.3349H226.933C226.929 76.8671 226.827 76.451 226.629 76.0866C226.431 75.7177 226.155 75.4275 225.799 75.2161C225.449 75.0046 225.039 74.8989 224.571 74.8989C224.072 74.8989 223.633 75.0204 223.255 75.2633C222.878 75.5017 222.583 75.8166 222.371 76.208C222.165 76.5949 222.059 77.02 222.054 77.4834V78.9207C222.054 79.5235 222.165 80.0409 222.385 80.4727C222.605 80.9001 222.914 81.2285 223.309 81.4579C223.705 81.6829 224.169 81.7953 224.699 81.7953C225.055 81.7953 225.377 81.7458 225.664 81.6469C225.952 81.5434 226.202 81.3927 226.413 81.1948C226.625 80.9968 226.785 80.7516 226.893 80.4592L229.173 80.7156C229.029 81.3185 228.755 81.8448 228.35 82.2947C227.95 82.74 227.437 83.0864 226.812 83.3338C226.186 83.5768 225.471 83.6982 224.666 83.6982Z" fill="#F8F8F8"/>
<path d="M218.146 73.1309V75.0204H212.187V73.1309H218.146ZM213.658 70.6477H216.101V80.3782C216.101 80.7066 216.15 80.9586 216.249 81.134C216.353 81.305 216.488 81.4219 216.654 81.4849C216.821 81.5479 217.005 81.5794 217.208 81.5794C217.361 81.5794 217.5 81.5681 217.626 81.5456C217.756 81.5231 217.855 81.5029 217.923 81.4849L218.334 83.3946C218.204 83.4396 218.017 83.489 217.774 83.543C217.536 83.597 217.244 83.6285 216.897 83.6375C216.285 83.6555 215.734 83.5633 215.244 83.3608C214.754 83.1539 214.364 82.8345 214.077 82.4026C213.793 81.9707 213.654 81.4309 213.658 80.7831V70.6477Z" fill="#F8F8F8"/>
<path d="M203.833 77.4227V83.4958H201.39V73.131H203.725V74.8922H203.847C204.085 74.3119 204.465 73.8507 204.987 73.5089C205.513 73.167 206.163 72.996 206.937 72.996C207.653 72.996 208.276 73.149 208.806 73.4549C209.342 73.7608 209.756 74.2039 210.048 74.7842C210.345 75.3645 210.491 76.0686 210.487 76.8963V83.4958H208.044V77.2742C208.044 76.5814 207.864 76.0393 207.504 75.6479C207.149 75.2566 206.656 75.0609 206.026 75.0609C205.599 75.0609 205.219 75.1553 204.886 75.3443C204.557 75.5287 204.299 75.7964 204.11 76.1473C203.925 76.4982 203.833 76.9233 203.833 77.4227Z" fill="#F8F8F8"/>
<path d="M193.462 83.705C192.805 83.705 192.213 83.588 191.687 83.3541C191.165 83.1157 190.751 82.7648 190.445 82.3014C190.144 81.8381 189.993 81.2667 189.993 80.5874C189.993 80.0026 190.101 79.519 190.317 79.1366C190.533 78.7542 190.828 78.4483 191.201 78.2189C191.574 77.9895 191.995 77.8163 192.463 77.6993C192.935 77.5779 193.423 77.4901 193.927 77.4361C194.534 77.3732 195.027 77.3169 195.405 77.2674C195.783 77.2135 196.057 77.1325 196.228 77.0245C196.404 76.9121 196.491 76.7389 196.491 76.5049V76.4644C196.491 75.9561 196.341 75.5625 196.039 75.2836C195.738 75.0046 195.304 74.8652 194.737 74.8652C194.139 74.8652 193.664 74.9956 193.313 75.2566C192.967 75.5175 192.733 75.8256 192.611 76.181L190.331 75.8571C190.51 75.2273 190.807 74.701 191.221 74.2781C191.635 73.8507 192.141 73.5313 192.74 73.3199C193.338 73.104 193.999 72.996 194.723 72.996C195.223 72.996 195.72 73.0545 196.215 73.1715C196.71 73.2884 197.162 73.4819 197.571 73.7518C197.98 74.0172 198.309 74.3793 198.556 74.8382C198.808 75.2971 198.934 75.8706 198.934 76.5589V83.4958H196.586V82.072H196.505C196.356 82.3599 196.147 82.6298 195.877 82.8817C195.612 83.1292 195.277 83.3293 194.872 83.4823C194.471 83.6308 194.001 83.705 193.462 83.705ZM194.096 81.91C194.586 81.91 195.011 81.8133 195.371 81.6199C195.731 81.4219 196.008 81.161 196.201 80.8371C196.399 80.5132 196.498 80.1601 196.498 79.7777V78.5563C196.422 78.6193 196.291 78.6778 196.107 78.7318C195.927 78.7857 195.724 78.833 195.499 78.8735C195.275 78.9139 195.052 78.9499 194.831 78.9814C194.611 79.0129 194.42 79.0399 194.258 79.0624C193.893 79.1119 193.567 79.1929 193.279 79.3053C192.991 79.4178 192.764 79.5753 192.598 79.7777C192.431 79.9756 192.348 80.232 192.348 80.5469C192.348 80.9968 192.512 81.3365 192.841 81.5659C193.169 81.7953 193.588 81.91 194.096 81.91Z" fill="#F8F8F8"/>
<path d="M184.033 83.6982C182.998 83.6982 182.11 83.4711 181.368 83.0167C180.63 82.5623 180.061 81.9348 179.66 81.134C179.265 80.3288 179.067 79.4021 179.067 78.3539C179.067 77.3012 179.269 76.3722 179.674 75.567C180.079 74.7572 180.65 74.1274 181.388 73.6775C182.13 73.2232 183.007 72.996 184.02 72.996C184.861 72.996 185.605 73.1512 186.253 73.4616C186.905 73.7675 187.425 74.2016 187.812 74.764C188.199 75.3218 188.419 75.9741 188.473 76.7209H186.138C186.044 76.2215 185.819 75.8054 185.464 75.4725C185.113 75.1351 184.643 74.9664 184.053 74.9664C183.554 74.9664 183.115 75.1014 182.737 75.3713C182.36 75.6367 182.065 76.0191 181.853 76.5184C181.647 77.0178 181.543 77.6161 181.543 78.3134C181.543 79.0197 181.647 79.627 181.853 80.1353C182.06 80.6392 182.351 81.0283 182.724 81.3027C183.102 81.5726 183.545 81.7076 184.053 81.7076C184.413 81.7076 184.735 81.6401 185.018 81.5052C185.306 81.3657 185.547 81.1655 185.74 80.9046C185.934 80.6437 186.066 80.3265 186.138 79.9531H188.473C188.415 80.6864 188.199 81.3365 187.825 81.9033C187.452 82.4656 186.944 82.9065 186.3 83.2259C185.657 83.5408 184.901 83.6982 184.033 83.6982Z" fill="#F8F8F8"/>
<path d="M167.264 83.4958V73.131H169.633V74.8584H169.741C169.93 74.2601 170.254 73.799 170.713 73.4751C171.176 73.1467 171.705 72.9825 172.298 72.9825C172.433 72.9825 172.584 72.9892 172.751 73.0027C172.921 73.0117 173.063 73.0275 173.176 73.05V75.297C173.072 75.2611 172.908 75.2296 172.683 75.2026C172.463 75.1711 172.249 75.1553 172.042 75.1553C171.597 75.1553 171.196 75.2521 170.841 75.4455C170.49 75.6344 170.213 75.8976 170.011 76.235C169.808 76.5724 169.707 76.9615 169.707 77.4024V83.4958H167.264Z" fill="#F8F8F8"/>
<path d="M162.31 79.1366V73.131H164.753V83.4958H162.384V81.6536H162.276C162.042 82.2339 161.657 82.7085 161.122 83.0774C160.591 83.4463 159.937 83.6307 159.158 83.6307C158.479 83.6307 157.879 83.48 157.357 83.1786C156.839 82.8727 156.435 82.4296 156.142 81.8493C155.85 81.2645 155.704 80.5582 155.704 79.7304V73.131H158.146V79.3526C158.146 80.0094 158.326 80.5312 158.686 80.9181C159.046 81.305 159.518 81.4984 160.103 81.4984C160.463 81.4984 160.812 81.4107 161.149 81.2352C161.487 81.0598 161.763 80.7989 161.979 80.4525C162.2 80.1016 162.31 79.663 162.31 79.1366Z" fill="#F8F8F8"/>
<path d="M148.664 83.6982C147.652 83.6982 146.774 83.4756 146.032 83.0302C145.29 82.5848 144.714 81.9618 144.305 81.161C143.9 80.3603 143.697 79.4245 143.697 78.3539C143.697 77.2832 143.9 76.3452 144.305 75.54C144.714 74.7347 145.29 74.1094 146.032 73.6641C146.774 73.2187 147.652 72.996 148.664 72.996C149.676 72.996 150.553 73.2187 151.295 73.6641C152.038 74.1094 152.611 74.7347 153.016 75.54C153.426 76.3452 153.63 77.2832 153.63 78.3539C153.63 79.4245 153.426 80.3603 153.016 81.161C152.611 81.9618 152.038 82.5848 151.295 83.0302C150.553 83.4756 149.676 83.6982 148.664 83.6982ZM148.677 81.7413C149.226 81.7413 149.685 81.5906 150.054 81.2892C150.423 80.9833 150.697 80.5739 150.877 80.0611C151.061 79.5483 151.154 78.9769 151.154 78.3471C151.154 77.7128 151.061 77.1392 150.877 76.6264C150.697 76.1091 150.423 75.6974 150.054 75.3915C149.685 75.0856 149.226 74.9327 148.677 74.9327C148.115 74.9327 147.647 75.0856 147.274 75.3915C146.905 75.6974 146.628 76.1091 146.444 76.6264C146.264 77.1392 146.174 77.7128 146.174 78.3471C146.174 78.9769 146.264 79.5483 146.444 80.0611C146.628 80.5739 146.905 80.9833 147.274 81.2892C147.647 81.5906 148.115 81.7413 148.677 81.7413Z" fill="#F8F8F8"/>
<path d="M130.292 77.4227V83.4958H127.85V73.131H130.185V74.8922H130.306C130.544 74.3119 130.925 73.8507 131.446 73.5089C131.973 73.167 132.623 72.996 133.397 72.996C134.112 72.996 134.735 73.149 135.266 73.4549C135.801 73.7608 136.215 74.2039 136.507 74.7842C136.804 75.3645 136.95 76.0686 136.946 76.8963V83.4958H134.503V77.2742C134.503 76.5814 134.323 76.0393 133.963 75.6479C133.608 75.2566 133.115 75.0609 132.486 75.0609C132.058 75.0609 131.678 75.1553 131.345 75.3443C131.017 75.5287 130.758 75.7964 130.569 76.1473C130.385 76.4982 130.292 76.9233 130.292 77.4227Z" fill="#F8F8F8"/>
<path d="M120.81 83.6982C119.798 83.6982 118.921 83.4756 118.178 83.0302C117.436 82.5848 116.86 81.9618 116.451 81.161C116.046 80.3603 115.843 79.4245 115.843 78.3539C115.843 77.2832 116.046 76.3452 116.451 75.54C116.86 74.7347 117.436 74.1094 118.178 73.6641C118.921 73.2187 119.798 72.996 120.81 72.996C121.822 72.996 122.699 73.2187 123.442 73.6641C124.184 74.1094 124.757 74.7347 125.162 75.54C125.572 76.3452 125.776 77.2832 125.776 78.3539C125.776 79.4245 125.572 80.3603 125.162 81.161C124.757 81.9618 124.184 82.5848 123.442 83.0302C122.699 83.4756 121.822 83.6982 120.81 83.6982ZM120.823 81.7413C121.372 81.7413 121.831 81.5906 122.2 81.2892C122.569 80.9833 122.843 80.5739 123.023 80.0611C123.208 79.5483 123.3 78.9769 123.3 78.3471C123.3 77.7128 123.208 77.1392 123.023 76.6264C122.843 76.1091 122.569 75.6974 122.2 75.3915C121.831 75.0856 121.372 74.9327 120.823 74.9327C120.261 74.9327 119.793 75.0856 119.42 75.3915C119.051 75.6974 118.774 76.1091 118.59 76.6264C118.41 77.1392 118.32 77.7128 118.32 78.3471C118.32 78.9769 118.41 79.5483 118.59 80.0611C118.774 80.5739 119.051 80.9833 119.42 81.2892C119.793 81.5906 120.261 81.7413 120.823 81.7413Z" fill="#F8F8F8"/>
<path d="M109.339 75.8706L107.112 76.1136C107.049 75.8886 106.939 75.6772 106.781 75.4792C106.628 75.2813 106.421 75.1216 106.16 75.0001C105.9 74.8787 105.58 74.8179 105.202 74.8179C104.694 74.8179 104.267 74.9282 103.92 75.1486C103.578 75.369 103.41 75.6547 103.414 76.0056C103.41 76.307 103.52 76.5522 103.745 76.7411C103.974 76.9301 104.352 77.0853 104.878 77.2067L106.646 77.5846C107.627 77.796 108.356 78.1312 108.833 78.5901C109.314 79.0489 109.557 79.6495 109.561 80.3917C109.557 81.0441 109.366 81.6199 108.988 82.1192C108.614 82.6141 108.095 83.0009 107.429 83.2799C106.763 83.5588 105.999 83.6982 105.135 83.6982C103.866 83.6982 102.845 83.4328 102.071 82.902C101.297 82.3666 100.836 81.6221 100.688 80.6684L103.07 80.439C103.178 80.9068 103.407 81.26 103.758 81.4984C104.109 81.7368 104.566 81.8561 105.128 81.8561C105.708 81.8561 106.174 81.7368 106.525 81.4984C106.88 81.26 107.058 80.9653 107.058 80.6144C107.058 80.3175 106.943 80.0723 106.714 79.8789C106.489 79.6855 106.138 79.537 105.661 79.4335L103.893 79.0624C102.899 78.8555 102.163 78.5068 101.687 78.0165C101.21 77.5216 100.974 76.8963 100.978 76.1405C100.974 75.5017 101.147 74.9484 101.498 74.4806C101.853 74.0082 102.346 73.6438 102.975 73.3874C103.61 73.1265 104.341 72.996 105.169 72.996C106.383 72.996 107.339 73.2547 108.036 73.772C108.738 74.2894 109.172 74.9889 109.339 75.8706Z" fill="#F8F8F8"/>
<path d="M87.3822 83.4958L84.4536 73.131H86.9436L88.7655 80.4187H88.86L90.7224 73.131H93.1854L95.0479 80.3782H95.1491L96.944 73.131H99.4408L96.5054 83.4958H93.9614L92.018 76.4914H91.8763L89.9329 83.4958H87.3822Z" fill="#F8F8F8"/>
<path d="M78.6235 83.6982C77.5843 83.6982 76.6869 83.4823 75.9311 83.0504C75.1798 82.6141 74.6017 81.9978 74.1969 81.2015C73.792 80.4007 73.5895 79.4583 73.5895 78.3741C73.5895 77.3079 73.792 76.3722 74.1969 75.567C74.6062 74.7572 75.1776 74.1274 75.9108 73.6775C76.6441 73.2232 77.5056 72.996 78.4953 72.996C79.1341 72.996 79.7369 73.0995 80.3037 73.3064C80.8751 73.5089 81.3789 73.8238 81.8153 74.2511C82.2561 74.6785 82.6025 75.2228 82.8545 75.8841C83.1064 76.5409 83.2323 77.3237 83.2323 78.2324V78.9814H74.7367V77.3349H80.8908C80.8863 76.8671 80.7851 76.451 80.5872 76.0866C80.3892 75.7177 80.1126 75.4275 79.7572 75.2161C79.4063 75.0046 78.9969 74.8989 78.529 74.8989C78.0297 74.8989 77.5911 75.0204 77.2132 75.2633C76.8353 75.5017 76.5406 75.8166 76.3292 76.208C76.1223 76.5949 76.0166 77.02 76.0121 77.4834V78.9207C76.0121 79.5235 76.1223 80.0409 76.3427 80.4727C76.5631 80.9001 76.8713 81.2285 77.2672 81.4579C77.6631 81.6829 78.1264 81.7953 78.6573 81.7953C79.0126 81.7953 79.3343 81.7458 79.6222 81.6469C79.9101 81.5434 80.1598 81.3927 80.3712 81.1948C80.5827 80.9968 80.7424 80.7516 80.8503 80.4592L83.1311 80.7156C82.9872 81.3185 82.7128 81.8448 82.3079 82.2947C81.9075 82.74 81.3947 83.0864 80.7694 83.3338C80.144 83.5768 79.4288 83.6982 78.6235 83.6982Z" fill="#F8F8F8"/>
<path d="M69.0802 83.4958V73.131H71.523V83.4958H69.0802ZM70.3083 71.6599C69.9214 71.6599 69.5885 71.5317 69.3096 71.2753C69.0307 71.0144 68.8913 70.7017 68.8913 70.3373C68.8913 69.9684 69.0307 69.6558 69.3096 69.3993C69.5885 69.1384 69.9214 69.008 70.3083 69.008C70.6997 69.008 71.0326 69.1384 71.307 69.3993C71.5859 69.6558 71.7254 69.9684 71.7254 70.3373C71.7254 70.7017 71.5859 71.0144 71.307 71.2753C71.0326 71.5317 70.6997 71.6599 70.3083 71.6599Z" fill="#F8F8F8"/>
<path d="M67.3898 73.131L63.6987 83.4958H60.9995L57.3084 73.131H59.9131L62.2951 80.8304H62.4031L64.7918 73.131H67.3898Z" fill="#F8F8F8"/>
<path d="M51.7532 83.6982C50.714 83.6982 49.8166 83.4823 49.0608 83.0504C48.3095 82.6141 47.7315 81.9978 47.3266 81.2015C46.9217 80.4007 46.7193 79.4583 46.7193 78.3741C46.7193 77.3079 46.9217 76.3722 47.3266 75.567C47.736 74.7572 48.3073 74.1274 49.0406 73.6775C49.7738 73.2232 50.6353 72.996 51.625 72.996C52.2638 72.996 52.8666 73.0995 53.4335 73.3064C54.0048 73.5089 54.5086 73.8238 54.945 74.2511C55.3859 74.6785 55.7323 75.2228 55.9842 75.8841C56.2361 76.5409 56.3621 77.3237 56.3621 78.2324V78.9814H47.8664V77.3349H54.0205C54.016 76.8671 53.9148 76.451 53.7169 76.0866C53.5189 75.7177 53.2423 75.4275 52.8869 75.2161C52.536 75.0046 52.1266 74.8989 51.6588 74.8989C51.1594 74.8989 50.7208 75.0204 50.3429 75.2633C49.965 75.5017 49.6704 75.8166 49.4589 76.208C49.252 76.5949 49.1463 77.02 49.1418 77.4834V78.9207C49.1418 79.5235 49.252 80.0409 49.4724 80.4727C49.6929 80.9001 50.001 81.2285 50.3969 81.4579C50.7928 81.6829 51.2561 81.7953 51.787 81.7953C52.1424 81.7953 52.464 81.7458 52.7519 81.6469C53.0398 81.5434 53.2895 81.3927 53.5009 81.1948C53.7124 80.9968 53.8721 80.7516 53.98 80.4592L56.2608 80.7156C56.1169 81.3185 55.8425 81.8448 55.4376 82.2947C55.0372 82.74 54.5244 83.0864 53.8991 83.3338C53.2738 83.5768 52.5585 83.6982 51.7532 83.6982Z" fill="#F8F8F8"/>
<path d="M40.0574 83.4958V73.131H42.4259V74.8584H42.5339C42.7228 74.2601 43.0467 73.799 43.5056 73.4751C43.9689 73.1467 44.4975 72.9825 45.0913 72.9825C45.2263 72.9825 45.377 72.9892 45.5434 73.0027C45.7144 73.0117 45.8561 73.0275 45.9686 73.05V75.297C45.8651 75.2611 45.7009 75.2296 45.476 75.2026C45.2555 75.1711 45.0418 75.1553 44.8349 75.1553C44.3895 75.1553 43.9892 75.2521 43.6338 75.4455C43.2829 75.6344 43.0062 75.8976 42.8038 76.235C42.6013 76.5724 42.5001 76.9615 42.5001 77.4024V83.4958H40.0574Z" fill="#F8F8F8"/>
<path d="M27.2214 83.678C26.4071 83.678 25.6783 83.4688 25.035 83.0504C24.3917 82.6321 23.8834 82.0247 23.51 81.2285C23.1366 80.4322 22.9499 79.465 22.9499 78.3269C22.9499 77.1752 23.1389 76.2035 23.5167 75.4118C23.8991 74.6155 24.4142 74.0149 25.062 73.6101C25.7098 73.2007 26.4319 72.996 27.2281 72.996C27.8354 72.996 28.3348 73.0995 28.7261 73.3064C29.1175 73.5088 29.4279 73.754 29.6574 74.0419C29.8868 74.3253 30.0645 74.593 30.1905 74.8449H30.2917V69.676H32.7412V83.4958H30.3389V81.8628H30.1905C30.0645 82.1147 29.8823 82.3824 29.6439 82.6658C29.4054 82.9447 29.0905 83.1831 28.6992 83.3811C28.3078 83.579 27.8152 83.678 27.2214 83.678ZM27.9029 81.6738C28.4202 81.6738 28.8611 81.5344 29.2255 81.2555C29.5899 80.9721 29.8666 80.5784 30.0555 80.0746C30.2444 79.5707 30.3389 78.9837 30.3389 78.3134C30.3389 77.6431 30.2444 77.0605 30.0555 76.5657C29.8711 76.0708 29.5966 75.6862 29.2322 75.4118C28.8724 75.1373 28.4292 75.0001 27.9029 75.0001C27.3586 75.0001 26.9042 75.1418 26.5398 75.4253C26.1754 75.7087 25.901 76.1 25.7166 76.5994C25.5321 77.0987 25.4399 77.6701 25.4399 78.3134C25.4399 78.9612 25.5321 79.5392 25.7166 80.0476C25.9055 80.5514 26.1822 80.9496 26.5466 81.242C26.9155 81.5299 27.3676 81.6738 27.9029 81.6738Z" fill="#F8F8F8"/>
<path d="M14.2381 77.4227V83.4958H11.7953V73.131H14.1301V74.8922H14.2516C14.49 74.3119 14.8701 73.8507 15.392 73.5089C15.9183 73.167 16.5683 72.996 17.3421 72.996C18.0574 72.996 18.6805 73.149 19.2113 73.4549C19.7466 73.7608 20.1605 74.2039 20.4529 74.7842C20.7498 75.3645 20.896 76.0686 20.8915 76.8963V83.4958H18.4488V77.2742C18.4488 76.5814 18.2688 76.0393 17.9089 75.6479C17.5535 75.2566 17.0609 75.0609 16.4311 75.0609C16.0038 75.0609 15.6236 75.1553 15.2907 75.3443C14.9623 75.5287 14.7037 75.7964 14.5147 76.1473C14.3303 76.4982 14.2381 76.9233 14.2381 77.4227Z" fill="#F8F8F8"/>
<path d="M3.86644 83.705C3.20964 83.705 2.61807 83.588 2.09173 83.3541C1.56989 83.1157 1.15601 82.7648 0.850107 82.3014C0.548699 81.8381 0.397995 81.2667 0.397995 80.5874C0.397995 80.0026 0.505962 79.519 0.721896 79.1366C0.93783 78.7542 1.23249 78.4483 1.60588 78.2189C1.97926 77.9895 2.39988 77.8163 2.86774 77.6993C3.3401 77.5779 3.8282 77.4901 4.33204 77.4361C4.93936 77.3732 5.43196 77.3169 5.80984 77.2674C6.18773 77.2135 6.46214 77.1325 6.63309 77.0245C6.80854 76.9121 6.89626 76.7389 6.89626 76.5049V76.4644C6.89626 75.9561 6.74556 75.5625 6.44415 75.2836C6.14274 75.0046 5.70862 74.8652 5.1418 74.8652C4.54348 74.8652 4.06887 74.9956 3.71798 75.2566C3.37159 75.5175 3.13766 75.8256 3.0162 76.181L0.735392 75.8571C0.915337 75.2273 1.21225 74.701 1.62612 74.2781C2.03999 73.8507 2.54609 73.5313 3.14441 73.3199C3.74272 73.104 4.40402 72.996 5.1283 72.996C5.62765 72.996 6.12475 73.0545 6.61959 73.1715C7.11444 73.2884 7.56656 73.4819 7.97593 73.7518C8.3853 74.0172 8.7137 74.3793 8.96113 74.8382C9.21305 75.2971 9.33901 75.8706 9.33901 76.5589V83.4958H6.99073V82.072H6.90976C6.7613 82.3599 6.55212 82.6298 6.2822 82.8817C6.01678 83.1292 5.68163 83.3293 5.27675 83.4823C4.87638 83.6308 4.40627 83.705 3.86644 83.705ZM4.50074 81.91C4.99109 81.91 5.41621 81.8133 5.7761 81.6199C6.13599 81.4219 6.41266 81.161 6.6061 80.8371C6.80404 80.5132 6.90301 80.1601 6.90301 79.7777V78.5563C6.82653 78.6193 6.69607 78.6778 6.51163 78.7318C6.33168 78.7857 6.12924 78.833 5.90431 78.8735C5.67938 78.9139 5.4567 78.9499 5.23627 78.9814C5.01583 79.0129 4.82464 79.0399 4.66269 79.0624C4.2983 79.1119 3.97215 79.1929 3.68424 79.3053C3.39633 79.4178 3.16915 79.5753 3.0027 79.7777C2.83625 79.9756 2.75303 80.232 2.75303 80.5469C2.75303 80.9968 2.91723 81.3365 3.24563 81.5659C3.57402 81.7953 3.9924 81.91 4.50074 81.91Z" fill="#F8F8F8"/>
<path d="M312.777 52.868L310.55 53.1109C310.487 52.886 310.377 52.6745 310.22 52.4766C310.067 52.2787 309.86 52.119 309.599 51.9975C309.338 51.876 309.019 51.8153 308.641 51.8153C308.132 51.8153 307.705 51.9255 307.359 52.1459C307.017 52.3664 306.848 52.652 306.853 53.0029C306.848 53.3043 306.958 53.5495 307.183 53.7385C307.413 53.9274 307.791 54.0826 308.317 54.2041L310.085 54.582C311.066 54.7934 311.794 55.1285 312.271 55.5874C312.753 56.0463 312.995 56.6468 313 57.3891C312.995 58.0414 312.804 58.6172 312.426 59.1166C312.053 59.6114 311.533 59.9983 310.868 60.2772C310.202 60.5561 309.437 60.6956 308.573 60.6956C307.305 60.6956 306.283 60.4302 305.51 59.8993C304.736 59.364 304.275 58.6195 304.126 57.6658L306.508 57.4363C306.616 57.9042 306.846 58.2573 307.197 58.4958C307.548 58.7342 308.004 58.8534 308.567 58.8534C309.147 58.8534 309.612 58.7342 309.963 58.4958C310.319 58.2573 310.496 57.9627 310.496 57.6118C310.496 57.3149 310.382 57.0697 310.152 56.8762C309.927 56.6828 309.577 56.5344 309.1 56.4309L307.332 56.0597C306.337 55.8528 305.602 55.5042 305.125 55.0138C304.648 54.519 304.412 53.8937 304.417 53.1379C304.412 52.4991 304.585 51.9458 304.936 51.4779C305.292 51.0055 305.784 50.6412 306.414 50.3847C307.048 50.1238 307.779 49.9934 308.607 49.9934C309.822 49.9934 310.778 50.252 311.475 50.7694C312.177 51.2867 312.611 51.9862 312.777 52.868Z" fill="#F8F8F8"/>
<path d="M302.69 50.1283V52.0177H296.732V50.1283H302.69ZM298.203 47.6451H300.646V57.3756C300.646 57.704 300.695 57.9559 300.794 58.1314C300.898 58.3023 301.033 58.4193 301.199 58.4822C301.366 58.5452 301.55 58.5767 301.752 58.5767C301.905 58.5767 302.045 58.5655 302.171 58.543C302.301 58.5205 302.4 58.5002 302.468 58.4822L302.879 60.3919C302.749 60.4369 302.562 60.4864 302.319 60.5404C302.081 60.5944 301.788 60.6258 301.442 60.6348C300.83 60.6528 300.279 60.5606 299.789 60.3582C299.298 60.1512 298.909 59.8318 298.621 59.4C298.338 58.9681 298.199 58.4283 298.203 57.7805V47.6451Z" fill="#F8F8F8"/>
<path d="M288.378 54.42V60.4931H285.935V50.1283H288.27V51.8895H288.392C288.63 51.3092 289.01 50.8481 289.532 50.5062C290.058 50.1643 290.708 49.9934 291.482 49.9934C292.197 49.9934 292.821 50.1463 293.351 50.4522C293.887 50.7581 294.301 51.2012 294.593 51.7816C294.89 52.3619 295.036 53.0659 295.032 53.8937V60.4931H292.589V54.2715C292.589 53.5788 292.409 53.0367 292.049 52.6453C291.694 52.2539 291.201 52.0582 290.571 52.0582C290.144 52.0582 289.764 52.1527 289.431 52.3416C289.102 52.5261 288.844 52.7937 288.655 53.1446C288.47 53.4955 288.378 53.9206 288.378 54.42Z" fill="#F8F8F8"/>
<path d="M279.26 60.6956C278.221 60.6956 277.323 60.4796 276.568 60.0478C275.816 59.6114 275.238 58.9951 274.833 58.1988C274.428 57.3981 274.226 56.4556 274.226 55.3715C274.226 54.3053 274.428 53.3696 274.833 52.5643C275.243 51.7546 275.814 51.1248 276.547 50.6749C277.281 50.2205 278.142 49.9934 279.132 49.9934C279.771 49.9934 280.373 50.0968 280.94 50.3038C281.512 50.5062 282.015 50.8211 282.452 51.2485C282.893 51.6758 283.239 52.2202 283.491 52.8815C283.743 53.5383 283.869 54.321 283.869 55.2298V55.9788H275.373V54.3323H281.527C281.523 53.8644 281.422 53.4483 281.224 53.0839C281.026 52.715 280.749 52.4249 280.394 52.2134C280.043 52.002 279.633 51.8963 279.165 51.8963C278.666 51.8963 278.228 52.0177 277.85 52.2607C277.472 52.4991 277.177 52.814 276.966 53.2054C276.759 53.5923 276.653 54.0174 276.649 54.4807V55.918C276.649 56.5209 276.759 57.0382 276.979 57.4701C277.2 57.8974 277.508 58.2258 277.904 58.4553C278.299 58.6802 278.763 58.7927 279.294 58.7927C279.649 58.7927 279.971 58.7432 280.259 58.6442C280.547 58.5407 280.796 58.39 281.008 58.1921C281.219 57.9942 281.379 57.749 281.487 57.4566L283.768 57.713C283.624 58.3158 283.349 58.8421 282.944 59.292C282.544 59.7374 282.031 60.0838 281.406 60.3312C280.78 60.5741 280.065 60.6956 279.26 60.6956Z" fill="#F8F8F8"/>
<path d="M257.618 60.4931V50.1283H259.952V51.8895H260.074C260.29 51.2957 260.647 50.8323 261.147 50.4994C261.646 50.1621 262.242 49.9934 262.935 49.9934C263.637 49.9934 264.228 50.1643 264.71 50.5062C265.196 50.8436 265.537 51.3047 265.735 51.8895H265.843C266.073 51.3137 266.46 50.8548 267.004 50.5129C267.553 50.1665 268.203 49.9934 268.954 49.9934C269.908 49.9934 270.686 50.2948 271.289 50.8976C271.892 51.5004 272.193 52.3799 272.193 53.536V60.4931H269.744V53.9139C269.744 53.2706 269.573 52.8005 269.231 52.5036C268.889 52.2022 268.471 52.0515 267.976 52.0515C267.386 52.0515 266.925 52.2359 266.592 52.6048C266.264 52.9692 266.1 53.4438 266.1 54.0286V60.4931H263.704V53.8127C263.704 53.2773 263.542 52.85 263.218 52.5306C262.899 52.2112 262.481 52.0515 261.963 52.0515C261.612 52.0515 261.293 52.1414 261.005 52.3214C260.717 52.4968 260.488 52.7465 260.317 53.0704C260.146 53.3898 260.06 53.7632 260.06 54.1906V60.4931H257.618Z" fill="#F8F8F8"/>
<path d="M240.564 60.4931V50.1283H242.899V51.8895H243.02C243.236 51.2957 243.594 50.8323 244.093 50.4994C244.592 50.1621 245.188 49.9934 245.881 49.9934C246.583 49.9934 247.175 50.1643 247.656 50.5062C248.142 50.8436 248.484 51.3047 248.682 51.8895H248.79C249.019 51.3137 249.406 50.8548 249.95 50.5129C250.499 50.1665 251.149 49.9934 251.9 49.9934C252.854 49.9934 253.632 50.2948 254.235 50.8976C254.838 51.5004 255.139 52.3799 255.139 53.536V60.4931H252.69V53.9139C252.69 53.2706 252.519 52.8005 252.177 52.5036C251.835 52.2022 251.417 52.0515 250.922 52.0515C250.333 52.0515 249.872 52.2359 249.539 52.6048C249.21 52.9692 249.046 53.4438 249.046 54.0286V60.4931H246.651V53.8127C246.651 53.2773 246.489 52.85 246.165 52.5306C245.845 52.2112 245.427 52.0515 244.91 52.0515C244.559 52.0515 244.239 52.1414 243.951 52.3214C243.663 52.4968 243.434 52.7465 243.263 53.0704C243.092 53.3898 243.007 53.7632 243.007 54.1906V60.4931H240.564Z" fill="#F8F8F8"/>
<path d="M233.524 60.6956C232.512 60.6956 231.635 60.4729 230.892 60.0275C230.15 59.5822 229.574 58.9591 229.165 58.1584C228.76 57.3576 228.558 56.4219 228.558 55.3512C228.558 54.2805 228.76 53.3426 229.165 52.5373C229.574 51.7321 230.15 51.1068 230.892 50.6614C231.635 50.216 232.512 49.9934 233.524 49.9934C234.536 49.9934 235.414 50.216 236.156 50.6614C236.898 51.1068 237.472 51.7321 237.877 52.5373C238.286 53.3426 238.491 54.2805 238.491 55.3512C238.491 56.4219 238.286 57.3576 237.877 58.1584C237.472 58.9591 236.898 59.5822 236.156 60.0275C235.414 60.4729 234.536 60.6956 233.524 60.6956ZM233.538 58.7387C234.086 58.7387 234.545 58.588 234.914 58.2866C235.283 57.9807 235.557 57.5713 235.737 57.0584C235.922 56.5456 236.014 55.9743 236.014 55.3445C236.014 54.7102 235.922 54.1366 235.737 53.6237C235.557 53.1064 235.283 52.6948 234.914 52.3889C234.545 52.083 234.086 51.93 233.538 51.93C232.975 51.93 232.507 52.083 232.134 52.3889C231.765 52.6948 231.488 53.1064 231.304 53.6237C231.124 54.1366 231.034 54.7102 231.034 55.3445C231.034 55.9743 231.124 56.5456 231.304 57.0584C231.488 57.5713 231.765 57.9807 232.134 58.2866C232.507 58.588 232.975 58.7387 233.538 58.7387Z" fill="#F8F8F8"/>
<path d="M222.557 60.6956C221.522 60.6956 220.634 60.4684 219.892 60.014C219.154 59.5597 218.585 58.9321 218.184 58.1314C217.788 57.3261 217.591 56.3994 217.591 55.3512C217.591 54.2985 217.793 53.3696 218.198 52.5643C218.603 51.7546 219.174 51.1248 219.912 50.6749C220.654 50.2205 221.531 49.9934 222.544 49.9934C223.385 49.9934 224.129 50.1486 224.777 50.459C225.429 50.7649 225.949 51.199 226.336 51.7613C226.723 52.3191 226.943 52.9714 226.997 53.7182H224.662C224.568 53.2189 224.343 52.8027 223.988 52.4698C223.637 52.1324 223.167 51.9638 222.577 51.9638C222.078 51.9638 221.639 52.0987 221.261 52.3686C220.884 52.634 220.589 53.0164 220.377 53.5158C220.171 54.0151 220.067 54.6134 220.067 55.3107C220.067 56.017 220.171 56.6243 220.377 57.1327C220.584 57.6365 220.875 58.0256 221.248 58.3001C221.626 58.57 222.069 58.7049 222.577 58.7049C222.937 58.7049 223.259 58.6375 223.542 58.5025C223.83 58.363 224.071 58.1629 224.264 57.9019C224.458 57.641 224.59 57.3239 224.662 56.9505H226.997C226.939 57.6838 226.723 58.3338 226.349 58.9006C225.976 59.463 225.468 59.9038 224.824 60.2232C224.181 60.5381 223.425 60.6956 222.557 60.6956Z" fill="#F8F8F8"/>
<path d="M205.954 64.5959C205.077 64.5959 204.323 64.4767 203.693 64.2383C203.064 64.0043 202.558 63.6894 202.175 63.2935C201.793 62.8977 201.527 62.459 201.379 61.9777L203.579 61.4446C203.678 61.647 203.822 61.8472 204.011 62.0452C204.2 62.2476 204.454 62.4141 204.773 62.5445C205.097 62.6795 205.504 62.747 205.994 62.747C206.687 62.747 207.261 62.5783 207.715 62.2409C208.17 61.908 208.397 61.3591 208.397 60.5944V58.6307H208.275C208.149 58.8826 207.965 59.1413 207.722 59.4067C207.484 59.6721 207.166 59.8948 206.77 60.0748C206.379 60.2547 205.887 60.3447 205.293 60.3447C204.496 60.3447 203.774 60.158 203.127 59.7846C202.483 59.4067 201.97 58.8444 201.588 58.0976C201.21 57.3464 201.021 56.4061 201.021 55.277C201.021 54.1388 201.21 53.1784 201.588 52.3956C201.97 51.6084 202.486 51.0123 203.133 50.6074C203.781 50.198 204.503 49.9934 205.299 49.9934C205.907 49.9934 206.406 50.0968 206.797 50.3038C207.193 50.5062 207.508 50.7514 207.742 51.0393C207.976 51.3227 208.154 51.5904 208.275 51.8423H208.41V50.1283H210.819V60.6618C210.819 61.5481 210.608 62.2814 210.185 62.8617C209.762 63.442 209.184 63.8761 208.451 64.164C207.717 64.4519 206.885 64.5959 205.954 64.5959ZM205.974 58.4283C206.492 58.4283 206.932 58.3023 207.297 58.0504C207.661 57.7985 207.938 57.4363 208.127 56.964C208.316 56.4916 208.41 55.9248 208.41 55.2635C208.41 54.6112 208.316 54.0399 208.127 53.5495C207.942 53.0592 207.668 52.679 207.304 52.4091C206.944 52.1347 206.501 51.9975 205.974 51.9975C205.43 51.9975 204.976 52.1392 204.611 52.4226C204.247 52.706 203.972 53.0952 203.788 53.59C203.603 54.0804 203.511 54.6382 203.511 55.2635C203.511 55.8978 203.603 56.4534 203.788 56.9302C203.977 57.4026 204.254 57.7715 204.618 58.0369C204.987 58.2978 205.439 58.4283 205.974 58.4283Z" fill="#F8F8F8"/>
<path d="M192.309 54.42V60.4931H189.867V50.1283H192.201V51.8895H192.323C192.561 51.3092 192.941 50.8481 193.463 50.5062C193.99 50.1643 194.64 49.9934 195.413 49.9934C196.129 49.9934 196.752 50.1463 197.283 50.4522C197.818 50.7581 198.232 51.2012 198.524 51.7816C198.821 52.3619 198.967 53.0659 198.963 53.8937V60.4931H196.52V54.2715C196.52 53.5788 196.34 53.0367 195.98 52.6453C195.625 52.2539 195.132 52.0582 194.502 52.0582C194.075 52.0582 193.695 52.1527 193.362 52.3416C193.034 52.5261 192.775 52.7937 192.586 53.1446C192.402 53.4955 192.309 53.9206 192.309 54.42Z" fill="#F8F8F8"/>
<path d="M184.912 60.4931V50.1283H187.355V60.4931H184.912ZM186.14 48.6573C185.753 48.6573 185.42 48.529 185.141 48.2726C184.862 48.0117 184.723 47.699 184.723 47.3347C184.723 46.9658 184.862 46.6531 185.141 46.3967C185.42 46.1358 185.753 46.0053 186.14 46.0053C186.531 46.0053 186.864 46.1358 187.139 46.3967C187.418 46.6531 187.557 46.9658 187.557 47.3347C187.557 47.699 187.418 48.0117 187.139 48.2726C186.864 48.529 186.531 48.6573 186.14 48.6573Z" fill="#F8F8F8"/>
<path d="M177.378 60.4931V50.1283H179.746V51.8558H179.854C180.043 51.2575 180.367 50.7964 180.826 50.4725C181.289 50.1441 181.818 49.9799 182.412 49.9799C182.547 49.9799 182.698 49.9866 182.864 50.0001C183.035 50.0091 183.177 50.0248 183.289 50.0473V52.2944C183.186 52.2584 183.021 52.2269 182.796 52.1999C182.576 52.1684 182.362 52.1527 182.155 52.1527C181.71 52.1527 181.31 52.2494 180.954 52.4429C180.603 52.6318 180.327 52.895 180.124 53.2324C179.922 53.5698 179.821 53.9589 179.821 54.3998V60.4931H177.378Z" fill="#F8F8F8"/>
<path d="M169.449 60.7023C168.792 60.7023 168.201 60.5854 167.674 60.3514C167.152 60.113 166.739 59.7621 166.433 59.2988C166.131 58.8354 165.981 58.2641 165.981 57.5848C165.981 57 166.089 56.5164 166.304 56.134C166.52 55.7516 166.815 55.4457 167.188 55.2163C167.562 54.9868 167.982 54.8136 168.45 54.6967C168.923 54.5752 169.411 54.4875 169.915 54.4335C170.522 54.3705 171.015 54.3143 171.392 54.2648C171.77 54.2108 172.045 54.1298 172.216 54.0219C172.391 53.9094 172.479 53.7362 172.479 53.5023V53.4618C172.479 52.9534 172.328 52.5598 172.027 52.2809C171.725 52.002 171.291 51.8625 170.724 51.8625C170.126 51.8625 169.651 51.993 169.301 52.2539C168.954 52.5148 168.72 52.823 168.599 53.1784L166.318 52.8545C166.498 52.2247 166.795 51.6983 167.209 51.2755C167.623 50.8481 168.129 50.5287 168.727 50.3173C169.325 50.1013 169.987 49.9934 170.711 49.9934C171.21 49.9934 171.707 50.0518 172.202 50.1688C172.697 50.2858 173.149 50.4792 173.559 50.7491C173.968 51.0145 174.296 51.3767 174.544 51.8355C174.796 52.2944 174.922 52.868 174.922 53.5563V60.4931H172.573V59.0693H172.492C172.344 59.3572 172.135 59.6272 171.865 59.8791C171.599 60.1265 171.264 60.3267 170.859 60.4796C170.459 60.6281 169.989 60.7023 169.449 60.7023ZM170.083 58.9074C170.574 58.9074 170.999 58.8107 171.359 58.6172C171.719 58.4193 171.995 58.1584 172.189 57.8345C172.387 57.5106 172.486 57.1574 172.486 56.775V55.5537C172.409 55.6166 172.279 55.6751 172.094 55.7291C171.914 55.7831 171.712 55.8303 171.487 55.8708C171.262 55.9113 171.039 55.9473 170.819 55.9788C170.598 56.0103 170.407 56.0373 170.245 56.0597C169.881 56.1092 169.555 56.1902 169.267 56.3027C168.979 56.4151 168.752 56.5726 168.585 56.775C168.419 56.973 168.336 57.2294 168.336 57.5443C168.336 57.9942 168.5 58.3338 168.828 58.5632C169.157 58.7927 169.575 58.9074 170.083 58.9074Z" fill="#F8F8F8"/>
<path d="M157.256 54.42V60.4931H154.813V46.6734H157.202V51.8895H157.323C157.566 51.3047 157.942 50.8436 158.45 50.5062C158.963 50.1643 159.615 49.9933 160.407 49.9933C161.127 49.9933 161.754 50.144 162.29 50.4455C162.825 50.7469 163.239 51.1877 163.531 51.7681C163.828 52.3484 163.976 53.0569 163.976 53.8937V60.4931H161.534V54.2715C161.534 53.5742 161.354 53.0322 160.994 52.6453C160.639 52.2539 160.139 52.0582 159.496 52.0582C159.064 52.0582 158.677 52.1527 158.335 52.3416C157.998 52.5261 157.732 52.7937 157.539 53.1446C157.35 53.4955 157.256 53.9206 157.256 54.42Z" fill="#F8F8F8"/>
<path d="M152.576 52.868L150.349 53.1109C150.286 52.886 150.176 52.6745 150.019 52.4766C149.866 52.2787 149.659 52.119 149.398 51.9975C149.137 51.876 148.818 51.8153 148.44 51.8153C147.931 51.8153 147.504 51.9255 147.158 52.1459C146.816 52.3664 146.647 52.652 146.651 53.0029C146.647 53.3043 146.757 53.5495 146.982 53.7385C147.212 53.9274 147.589 54.0826 148.116 54.2041L149.884 54.582C150.864 54.7934 151.593 55.1285 152.07 55.5874C152.551 56.0463 152.794 56.6468 152.799 57.3891C152.794 58.0414 152.603 58.6172 152.225 59.1166C151.852 59.6114 151.332 59.9983 150.667 60.2772C150.001 60.5561 149.236 60.6956 148.372 60.6956C147.104 60.6956 146.082 60.4302 145.309 59.8993C144.535 59.364 144.074 58.6195 143.925 57.6658L146.307 57.4363C146.415 57.9042 146.645 58.2573 146.996 58.4958C147.347 58.7342 147.803 58.8534 148.365 58.8534C148.946 58.8534 149.411 58.7342 149.762 58.4958C150.118 58.2573 150.295 57.9627 150.295 57.6118C150.295 57.3149 150.181 57.0697 149.951 56.8762C149.726 56.6828 149.375 56.5344 148.899 56.4309L147.131 56.0597C146.136 55.8528 145.401 55.5042 144.924 55.0138C144.447 54.519 144.211 53.8937 144.215 53.1379C144.211 52.4991 144.384 51.9458 144.735 51.4779C145.09 51.0055 145.583 50.6412 146.213 50.3847C146.847 50.1238 147.578 49.9934 148.406 49.9934C149.621 49.9934 150.577 50.252 151.274 50.7694C151.976 51.2867 152.41 51.9862 152.576 52.868Z" fill="#F8F8F8"/>
<path d="M132.995 60.6956C131.956 60.6956 131.058 60.4796 130.303 60.0478C129.551 59.6114 128.973 58.9951 128.568 58.1988C128.163 57.3981 127.961 56.4556 127.961 55.3715C127.961 54.3053 128.163 53.3696 128.568 52.5643C128.978 51.7546 129.549 51.1248 130.282 50.6749C131.016 50.2205 131.877 49.9934 132.867 49.9934C133.506 49.9934 134.108 50.0968 134.675 50.3038C135.247 50.5062 135.75 50.8211 136.187 51.2485C136.628 51.6758 136.974 52.2202 137.226 52.8815C137.478 53.5383 137.604 54.321 137.604 55.2298V55.9788H129.108V54.3323H135.262C135.258 53.8644 135.157 53.4483 134.959 53.0839C134.761 52.715 134.484 52.4249 134.129 52.2134C133.778 52.002 133.368 51.8963 132.901 51.8963C132.401 51.8963 131.963 52.0177 131.585 52.2607C131.207 52.4991 130.912 52.814 130.701 53.2054C130.494 53.5923 130.388 54.0174 130.384 54.4807V55.918C130.384 56.5209 130.494 57.0382 130.714 57.4701C130.935 57.8974 131.243 58.2258 131.639 58.4553C132.035 58.6802 132.498 58.7927 133.029 58.7927C133.384 58.7927 133.706 58.7432 133.994 58.6442C134.282 58.5407 134.531 58.39 134.743 58.1921C134.954 57.9942 135.114 57.749 135.222 57.4566L137.503 57.713C137.359 58.3158 137.084 58.8421 136.679 59.292C136.279 59.7374 135.766 60.0838 135.141 60.3312C134.516 60.5741 133.8 60.6956 132.995 60.6956Z" fill="#F8F8F8"/>
<path d="M116.545 60.4931V46.6734H118.988V51.8423H119.089C119.215 51.5904 119.393 51.3227 119.622 51.0393C119.852 50.7514 120.162 50.5062 120.553 50.3038C120.945 50.0968 121.444 49.9933 122.052 49.9933C122.852 49.9933 123.574 50.198 124.218 50.6074C124.865 51.0123 125.378 51.6129 125.756 52.4091C126.139 53.2009 126.33 54.1726 126.33 55.3242C126.33 56.4624 126.143 57.4296 125.77 58.2258C125.396 59.0221 124.888 59.6294 124.245 60.0478C123.601 60.4661 122.873 60.6753 122.058 60.6753C121.464 60.6753 120.972 60.5764 120.58 60.3784C120.189 60.1805 119.874 59.9421 119.636 59.6631C119.402 59.3797 119.22 59.1121 119.089 58.8601H118.947V60.4931H116.545ZM118.941 55.3107C118.941 55.981 119.035 56.5681 119.224 57.0719C119.418 57.5758 119.694 57.9694 120.054 58.2528C120.419 58.5317 120.859 58.6712 121.377 58.6712C121.917 58.6712 122.369 58.5272 122.733 58.2393C123.097 57.9469 123.372 57.5488 123.556 57.0449C123.745 56.5366 123.84 55.9585 123.84 55.3107C123.84 54.6674 123.747 54.0961 123.563 53.5967C123.379 53.0974 123.104 52.706 122.74 52.4226C122.375 52.1392 121.921 51.9975 121.377 51.9975C120.855 51.9975 120.412 52.1347 120.047 52.4091C119.683 52.6835 119.406 53.0682 119.217 53.563C119.033 54.0579 118.941 54.6404 118.941 55.3107Z" fill="#F8F8F8"/>
<path d="M109.212 46.6734V60.4931H106.769V46.6734H109.212Z" fill="#F8F8F8"/>
<path d="M104.257 46.6734V60.4931H101.814V46.6734H104.257Z" fill="#F8F8F8"/>
<path d="M96.8598 60.4931V50.1283H99.3025V60.4931H96.8598ZM98.0879 48.6573C97.701 48.6573 97.3681 48.529 97.0892 48.2726C96.8103 48.0117 96.6708 47.699 96.6708 47.3347C96.6708 46.9658 96.8103 46.6531 97.0892 46.3967C97.3681 46.1358 97.701 46.0053 98.0879 46.0053C98.4793 46.0053 98.8122 46.1358 99.0866 46.3967C99.3655 46.6531 99.505 46.9658 99.505 47.3347C99.505 47.699 99.3655 48.0117 99.0866 48.2726C98.8122 48.529 98.4793 48.6573 98.0879 48.6573Z" fill="#F8F8F8"/>
<path d="M83.0956 60.4931L80.167 50.1283H82.657L84.4789 57.4161H84.5734L86.4358 50.1283H88.8988L90.7612 57.3756H90.8625L92.6574 50.1283H95.1541L92.2188 60.4931H89.6748L87.7314 53.4888H87.5897L85.6463 60.4931H83.0956Z" fill="#F8F8F8"/>
<path d="M69.5678 60.6956C68.5286 60.6956 67.6311 60.4796 66.8754 60.0478C66.1241 59.6114 65.546 58.9951 65.1411 58.1988C64.7362 57.3981 64.5338 56.4556 64.5338 55.3715C64.5338 54.3053 64.7362 53.3696 65.1411 52.5643C65.5505 51.7546 66.1218 51.1248 66.8551 50.6749C67.5884 50.2205 68.4499 49.9934 69.4396 49.9934C70.0784 49.9934 70.6812 50.0968 71.248 50.3038C71.8193 50.5062 72.3232 50.8211 72.7596 51.2485C73.2004 51.6758 73.5468 52.2202 73.7987 52.8815C74.0507 53.5383 74.1766 54.321 74.1766 55.2298V55.9788H65.681V54.3323H71.8351C71.8306 53.8644 71.7294 53.4483 71.5314 53.0839C71.3335 52.715 71.0568 52.4249 70.7014 52.2134C70.3505 52.002 69.9412 51.8963 69.4733 51.8963C68.974 51.8963 68.5353 52.0177 68.1575 52.2607C67.7796 52.4991 67.4849 52.814 67.2735 53.2054C67.0665 53.5923 66.9608 54.0174 66.9563 54.4807V55.918C66.9563 56.5209 67.0665 57.0382 67.287 57.4701C67.5074 57.8974 67.8156 58.2258 68.2114 58.4553C68.6073 58.6802 69.0707 58.7927 69.6015 58.7927C69.9569 58.7927 70.2786 58.7432 70.5665 58.6442C70.8544 58.5407 71.1041 58.39 71.3155 58.1921C71.5269 57.9942 71.6866 57.749 71.7946 57.4566L74.0754 57.713C73.9314 58.3158 73.657 58.8421 73.2522 59.292C72.8518 59.7374 72.3389 60.0838 71.7136 60.3312C71.0883 60.5741 70.373 60.6956 69.5678 60.6956Z" fill="#F8F8F8"/>
<path d="M51.5119 60.4931L48.5832 50.1283H51.0732L52.8952 57.4161H52.9896L54.8521 50.1283H57.3151L59.1775 57.3756H59.2787L61.0737 50.1283H63.5704L60.6351 60.4931H58.0911L56.1477 53.4888H56.006L54.0626 60.4931H51.5119Z" fill="#F8F8F8"/>
<path d="M37.9841 60.6956C36.9449 60.6956 36.0474 60.4796 35.2916 60.0478C34.5404 59.6114 33.9623 58.9951 33.5574 58.1988C33.1525 57.3981 32.9501 56.4556 32.9501 55.3715C32.9501 54.3053 33.1525 53.3696 33.5574 52.5643C33.9668 51.7546 34.5381 51.1248 35.2714 50.6749C36.0047 50.2205 36.8661 49.9934 37.8558 49.9934C38.4947 49.9934 39.0975 50.0968 39.6643 50.3038C40.2356 50.5062 40.7395 50.8211 41.1758 51.2485C41.6167 51.6758 41.9631 52.2202 42.215 52.8815C42.4669 53.5383 42.5929 54.321 42.5929 55.2298V55.9788H34.0972V54.3323H40.2514C40.2469 53.8644 40.1456 53.4483 39.9477 53.0839C39.7498 52.715 39.4731 52.4249 39.1177 52.2134C38.7668 52.002 38.3574 51.8963 37.8896 51.8963C37.3902 51.8963 36.9516 52.0177 36.5737 52.2607C36.1959 52.4991 35.9012 52.814 35.6898 53.2054C35.4828 53.5923 35.3771 54.0174 35.3726 54.4807V55.918C35.3726 56.5209 35.4828 57.0382 35.7033 57.4701C35.9237 57.8974 36.2318 58.2258 36.6277 58.4553C37.0236 58.6802 37.487 58.7927 38.0178 58.7927C38.3732 58.7927 38.6948 58.7432 38.9828 58.6442C39.2707 58.5407 39.5203 58.39 39.7318 58.1921C39.9432 57.9942 40.1029 57.749 40.2109 57.4566L42.4917 57.713C42.3477 58.3158 42.0733 58.8421 41.6684 59.292C41.2681 59.7374 40.7552 60.0838 40.1299 60.3312C39.5046 60.5741 38.7893 60.6956 37.9841 60.6956Z" fill="#F8F8F8"/>
<path d="M26.2882 60.4931V50.1283H28.6567V51.8558H28.7647C28.9536 51.2575 29.2775 50.7964 29.7364 50.4725C30.1997 50.1441 30.7283 49.9799 31.3222 49.9799C31.4571 49.9799 31.6078 49.9866 31.7743 50.0001C31.9452 50.0091 32.0869 50.0248 32.1994 50.0473V52.2944C32.0959 52.2584 31.9317 52.2269 31.7068 52.1999C31.4864 52.1684 31.2727 52.1527 31.0657 52.1527C30.6204 52.1527 30.22 52.2494 29.8646 52.4429C29.5137 52.6318 29.237 52.895 29.0346 53.2324C28.8322 53.5698 28.7309 53.9589 28.7309 54.3998V60.4931H26.2882Z" fill="#F8F8F8"/>
<path d="M19.6128 60.6956C18.5736 60.6956 17.6761 60.4796 16.9204 60.0478C16.1691 59.6114 15.591 58.9951 15.1861 58.1988C14.7813 57.3981 14.5788 56.4556 14.5788 55.3715C14.5788 54.3053 14.7813 53.3696 15.1861 52.5643C15.5955 51.7546 16.1668 51.1248 16.9001 50.6749C17.6334 50.2205 18.4949 49.9934 19.4846 49.9934C20.1234 49.9934 20.7262 50.0968 21.293 50.3038C21.8644 50.5062 22.3682 50.8211 22.8046 51.2485C23.2454 51.6758 23.5918 52.2202 23.8438 52.8815C24.0957 53.5383 24.2216 54.321 24.2216 55.2298V55.9788H15.726V54.3323H21.8801C21.8756 53.8644 21.7744 53.4483 21.5764 53.0839C21.3785 52.715 21.1018 52.4249 20.7464 52.2134C20.3956 52.002 19.9862 51.8963 19.5183 51.8963C19.019 51.8963 18.5804 52.0177 18.2025 52.2607C17.8246 52.4991 17.5299 52.814 17.3185 53.2054C17.1116 53.5923 17.0058 54.0174 17.0013 54.4807V55.918C17.0013 56.5209 17.1116 57.0382 17.332 57.4701C17.5524 57.8974 17.8606 58.2258 18.2565 58.4553C18.6523 58.6802 19.1157 58.7927 19.6465 58.7927C20.0019 58.7927 20.3236 58.7432 20.6115 58.6442C20.8994 58.5407 21.1491 58.39 21.3605 58.1921C21.5719 57.9942 21.7316 57.749 21.8396 57.4566L24.1204 57.713C23.9765 58.3158 23.702 58.8421 23.2972 59.292C22.8968 59.7374 22.3839 60.0838 21.7586 60.3312C21.1333 60.5741 20.418 60.6956 19.6128 60.6956Z" fill="#F8F8F8"/>
<path d="M0.991814 60.4931V46.6734H3.4953V52.5238H9.89909V46.6734H12.4093V60.4931H9.89909V54.6224H3.4953V60.4931H0.991814Z" fill="#F8F8F8"/>
<path d="M255.374 0.668046L255.151 10.4256H252.979L252.763 0.668046H255.374ZM254.065 14.6363C253.656 14.6363 253.305 14.4923 253.012 14.2044C252.724 13.9165 252.58 13.5656 252.58 13.1517C252.58 12.7469 252.724 12.4005 253.012 12.1125C253.305 11.8246 253.656 11.6807 254.065 11.6807C254.465 11.6807 254.812 11.8246 255.104 12.1125C255.401 12.4005 255.55 12.7469 255.55 13.1517C255.55 13.4261 255.48 13.6758 255.34 13.9008C255.205 14.1257 255.025 14.3056 254.801 14.4406C254.58 14.571 254.335 14.6363 254.065 14.6363Z" fill="#F8F8F8"/>
<path d="M242.954 18.3746C242.621 18.3746 242.313 18.3477 242.03 18.2937C241.751 18.2442 241.528 18.1857 241.362 18.1182L241.929 16.2153C242.284 16.3188 242.601 16.3683 242.88 16.3638C243.159 16.3593 243.404 16.2715 243.616 16.1006C243.832 15.9341 244.014 15.6552 244.162 15.2638L244.371 14.7038L240.613 4.123H243.204L245.593 11.9506H245.701L248.096 4.123H250.694L246.544 15.743C246.351 16.2918 246.094 16.7619 245.775 17.1533C245.456 17.5492 245.064 17.8506 244.601 18.0575C244.142 18.2689 243.593 18.3746 242.954 18.3746Z" fill="#F8F8F8"/>
<path d="M239.393 4.12299V6.01241H233.435V4.12299H239.393ZM234.906 1.63975H237.348V11.3703C237.348 11.6987 237.398 11.9506 237.497 12.126C237.6 12.297 237.735 12.414 237.902 12.4769C238.068 12.5399 238.253 12.5714 238.455 12.5714C238.608 12.5714 238.748 12.5602 238.873 12.5377C239.004 12.5152 239.103 12.4949 239.17 12.4769L239.582 14.3866C239.452 14.4316 239.265 14.4811 239.022 14.5351C238.784 14.589 238.491 14.6205 238.145 14.6295C237.533 14.6475 236.982 14.5553 236.491 14.3529C236.001 14.1459 235.612 13.8265 235.324 13.3947C235.041 12.9628 234.901 12.423 234.906 11.7751V1.63975Z" fill="#F8F8F8"/>
<path d="M229.263 14.4878V4.12299H231.706V14.4878H229.263ZM230.491 2.65194C230.104 2.65194 229.771 2.52373 229.492 2.26731C229.213 2.00639 229.074 1.69373 229.074 1.32934C229.074 0.960456 229.213 0.647802 229.492 0.39138C229.771 0.13046 230.104 0 230.491 0C230.882 0 231.215 0.13046 231.49 0.39138C231.768 0.647802 231.908 0.960456 231.908 1.32934C231.908 1.69373 231.768 2.00639 231.49 2.26731C231.215 2.52373 230.882 2.65194 230.491 2.65194Z" fill="#F8F8F8"/>
<path d="M220.126 8.41469V14.4878H217.683V4.123H220.018V5.88421H220.14C220.378 5.30389 220.758 4.84278 221.28 4.50088C221.806 4.15899 222.456 3.98804 223.23 3.98804C223.945 3.98804 224.568 4.14099 225.099 4.4469C225.635 4.75281 226.049 5.19592 226.341 5.77624C226.638 6.35657 226.784 7.0606 226.78 7.88835V14.4878H224.337V8.26623C224.337 7.57344 224.157 7.03136 223.797 6.63998C223.442 6.2486 222.949 6.05291 222.319 6.05291C221.892 6.05291 221.512 6.14738 221.179 6.33632C220.85 6.52077 220.592 6.78843 220.403 7.13933C220.218 7.49022 220.126 7.91534 220.126 8.41469Z" fill="#F8F8F8"/>
<path d="M212.729 10.1287V4.123H215.171V14.4878H212.803V12.6456H212.695C212.461 13.226 212.076 13.7006 211.541 14.0695C211.01 14.4384 210.356 14.6228 209.577 14.6228C208.898 14.6228 208.298 14.4721 207.776 14.1707C207.258 13.8648 206.853 13.4217 206.561 12.8413C206.269 12.2565 206.122 11.5502 206.122 10.7225V4.123H208.565V10.3446C208.565 11.0014 208.745 11.5232 209.105 11.9101C209.465 12.297 209.937 12.4904 210.522 12.4904C210.882 12.4904 211.231 12.4027 211.568 12.2273C211.905 12.0518 212.182 11.7909 212.398 11.4445C212.618 11.0936 212.729 10.655 212.729 10.1287Z" fill="#F8F8F8"/>
<path d="M189.069 14.4878V4.123H191.403V5.88421H191.525C191.741 5.29039 192.099 4.82703 192.598 4.49413C193.097 4.15674 193.693 3.98804 194.386 3.98804C195.088 3.98804 195.679 4.15899 196.161 4.50088C196.647 4.83828 196.989 5.29939 197.186 5.88421H197.294C197.524 5.30839 197.911 4.84953 198.455 4.50763C199.004 4.16124 199.654 3.98804 200.405 3.98804C201.359 3.98804 202.137 4.28945 202.74 4.89226C203.343 5.49508 203.644 6.37456 203.644 7.53071V14.4878H201.195V7.90859C201.195 7.26529 201.024 6.79518 200.682 6.49827C200.34 6.19686 199.922 6.04616 199.427 6.04616C198.837 6.04616 198.376 6.2306 198.043 6.59949C197.715 6.96388 197.551 7.43849 197.551 8.02331V14.4878H195.155V7.80737C195.155 7.27204 194.993 6.84467 194.669 6.52526C194.35 6.20586 193.932 6.04616 193.414 6.04616C193.063 6.04616 192.744 6.13613 192.456 6.31608C192.168 6.49152 191.939 6.7412 191.768 7.0651C191.597 7.3845 191.511 7.75789 191.511 8.18526V14.4878H189.069Z" fill="#F8F8F8"/>
<path d="M172.015 14.4878V4.123H174.35V5.88421H174.471C174.687 5.29039 175.045 4.82703 175.544 4.49413C176.043 4.15674 176.64 3.98804 177.332 3.98804C178.034 3.98804 178.626 4.15899 179.107 4.50088C179.593 4.83828 179.935 5.29939 180.133 5.88421H180.241C180.47 5.30839 180.857 4.84953 181.401 4.50763C181.95 4.16124 182.6 3.98804 183.352 3.98804C184.305 3.98804 185.083 4.28945 185.686 4.89226C186.289 5.49508 186.591 6.37456 186.591 7.53071V14.4878H184.141V7.90859C184.141 7.26529 183.97 6.79518 183.628 6.49827C183.286 6.19686 182.868 6.04616 182.373 6.04616C181.784 6.04616 181.323 6.2306 180.99 6.59949C180.661 6.96388 180.497 7.43849 180.497 8.02331V14.4878H178.102V7.80737C178.102 7.27204 177.94 6.84467 177.616 6.52526C177.296 6.20586 176.878 6.04616 176.361 6.04616C176.01 6.04616 175.69 6.13613 175.402 6.31608C175.115 6.49152 174.885 6.7412 174.714 7.0651C174.543 7.3845 174.458 7.75789 174.458 8.18526V14.4878H172.015Z" fill="#F8F8F8"/>
<path d="M164.975 14.6903C163.963 14.6903 163.086 14.4676 162.343 14.0222C161.601 13.5769 161.025 12.9538 160.616 12.153C160.211 11.3523 160.009 10.4166 160.009 9.3459C160.009 8.27523 160.211 7.33727 160.616 6.53201C161.025 5.72676 161.601 5.10145 162.343 4.65609C163.086 4.21072 163.963 3.98804 164.975 3.98804C165.987 3.98804 166.865 4.21072 167.607 4.65609C168.349 5.10145 168.923 5.72676 169.328 6.53201C169.737 7.33727 169.942 8.27523 169.942 9.3459C169.942 10.4166 169.737 11.3523 169.328 12.153C168.923 12.9538 168.349 13.5769 167.607 14.0222C166.865 14.4676 165.987 14.6903 164.975 14.6903ZM164.989 12.7334C165.538 12.7334 165.996 12.5827 166.365 12.2813C166.734 11.9753 167.009 11.566 167.189 11.0531C167.373 10.5403 167.465 9.96896 167.465 9.33915C167.465 8.70485 167.373 8.13127 167.189 7.61843C167.009 7.10109 166.734 6.68946 166.365 6.38356C165.996 6.07765 165.538 5.9247 164.989 5.9247C164.426 5.9247 163.958 6.07765 163.585 6.38356C163.216 6.68946 162.94 7.10109 162.755 7.61843C162.575 8.13127 162.485 8.70485 162.485 9.33915C162.485 9.96896 162.575 10.5403 162.755 11.0531C162.94 11.566 163.216 11.9753 163.585 12.2813C163.958 12.5827 164.426 12.7334 164.989 12.7334Z" fill="#F8F8F8"/>
<path d="M154.008 14.6903C152.973 14.6903 152.085 14.4631 151.343 14.0087C150.605 13.5544 150.036 12.9268 149.635 12.1261C149.24 11.3208 149.042 10.3941 149.042 9.3459C149.042 8.29322 149.244 7.36426 149.649 6.559C150.054 5.74925 150.625 5.11944 151.363 4.66958C152.105 4.21522 152.982 3.98804 153.995 3.98804C154.836 3.98804 155.58 4.14324 156.228 4.45365C156.88 4.75955 157.4 5.19367 157.787 5.756C158.174 6.31383 158.394 6.96613 158.448 7.7129H156.113C156.019 7.21355 155.794 6.79743 155.439 6.46453C155.088 6.12714 154.618 5.95844 154.028 5.95844C153.529 5.95844 153.09 6.0934 152.712 6.36331C152.335 6.62873 152.04 7.01112 151.829 7.51046C151.622 8.00981 151.518 8.60813 151.518 9.30542C151.518 10.0117 151.622 10.619 151.829 11.1274C152.035 11.6312 152.326 12.0203 152.699 12.2948C153.077 12.5647 153.52 12.6996 154.028 12.6996C154.388 12.6996 154.71 12.6321 154.993 12.4972C155.281 12.3577 155.522 12.1575 155.715 11.8966C155.909 11.6357 156.041 11.3185 156.113 10.9452H158.448C158.39 11.6784 158.174 12.3285 157.8 12.8953C157.427 13.4576 156.919 13.8985 156.275 14.2179C155.632 14.5328 154.876 14.6903 154.008 14.6903Z" fill="#F8F8F8"/>
<path d="M137.239 14.4878V4.123H139.608V5.85048H139.716C139.905 5.25216 140.229 4.79105 140.688 4.46715C141.151 4.13875 141.68 3.97455 142.273 3.97455C142.408 3.97455 142.559 3.9813 142.726 3.99479C142.896 4.00379 143.038 4.01954 143.151 4.04203V6.28909C143.047 6.2531 142.883 6.22161 142.658 6.19462C142.438 6.16313 142.224 6.14739 142.017 6.14739C141.572 6.14739 141.171 6.24411 140.816 6.43755C140.465 6.62649 140.188 6.88966 139.986 7.22706C139.783 7.56445 139.682 7.95358 139.682 8.39445V14.4878H137.239Z" fill="#F8F8F8"/>
<path d="M132.285 10.1287V4.123H134.728V14.4878H132.359V12.6456H132.251C132.017 13.226 131.633 13.7006 131.097 14.0695C130.566 14.4384 129.912 14.6228 129.134 14.6228C128.454 14.6228 127.854 14.4721 127.332 14.1707C126.814 13.8648 126.41 13.4217 126.117 12.8413C125.825 12.2565 125.679 11.5502 125.679 10.7225V4.123H128.121V10.3446C128.121 11.0014 128.301 11.5232 128.661 11.9101C129.021 12.297 129.493 12.4904 130.078 12.4904C130.438 12.4904 130.787 12.4027 131.124 12.2273C131.462 12.0518 131.738 11.7909 131.954 11.4445C132.175 11.0936 132.285 10.655 132.285 10.1287Z" fill="#F8F8F8"/>
<path d="M118.639 14.6903C117.627 14.6903 116.749 14.4676 116.007 14.0222C115.265 13.5769 114.689 12.9538 114.28 12.153C113.875 11.3523 113.672 10.4166 113.672 9.3459C113.672 8.27523 113.875 7.33727 114.28 6.53201C114.689 5.72676 115.265 5.10145 116.007 4.65609C116.749 4.21072 117.627 3.98804 118.639 3.98804C119.651 3.98804 120.528 4.21072 121.27 4.65609C122.013 5.10145 122.586 5.72676 122.991 6.53201C123.401 7.33727 123.605 8.27523 123.605 9.3459C123.605 10.4166 123.401 11.3523 122.991 12.153C122.586 12.9538 122.013 13.5769 121.27 14.0222C120.528 14.4676 119.651 14.6903 118.639 14.6903ZM118.652 12.7334C119.201 12.7334 119.66 12.5827 120.029 12.2813C120.398 11.9753 120.672 11.566 120.852 11.0531C121.037 10.5403 121.129 9.96896 121.129 9.33915C121.129 8.70485 121.037 8.13127 120.852 7.61843C120.672 7.10109 120.398 6.68946 120.029 6.38356C119.66 6.07765 119.201 5.9247 118.652 5.9247C118.09 5.9247 117.622 6.07765 117.249 6.38356C116.88 6.68946 116.603 7.10109 116.419 7.61843C116.239 8.13127 116.149 8.70485 116.149 9.33915C116.149 9.96896 116.239 10.5403 116.419 11.0531C116.603 11.566 116.88 11.9753 117.249 12.2813C117.622 12.5827 118.09 12.7334 118.652 12.7334Z" fill="#F8F8F8"/>
<path d="M102.364 14.6903C101.352 14.6903 100.475 14.4676 99.7327 14.0222C98.9905 13.5769 98.4146 12.9538 98.0053 12.153C97.6004 11.3523 97.398 10.4166 97.398 9.3459C97.398 8.27523 97.6004 7.33727 98.0053 6.53201C98.4146 5.72676 98.9905 5.10145 99.7327 4.65609C100.475 4.21072 101.352 3.98804 102.364 3.98804C103.377 3.98804 104.254 4.21072 104.996 4.65609C105.738 5.10145 106.312 5.72676 106.717 6.53201C107.126 7.33727 107.331 8.27523 107.331 9.3459C107.331 10.4166 107.126 11.3523 106.717 12.153C106.312 12.9538 105.738 13.5769 104.996 14.0222C104.254 14.4676 103.377 14.6903 102.364 14.6903ZM102.378 12.7334C102.927 12.7334 103.386 12.5827 103.755 12.2813C104.123 11.9753 104.398 11.566 104.578 11.0531C104.762 10.5403 104.854 9.96896 104.854 9.33915C104.854 8.70485 104.762 8.13127 104.578 7.61843C104.398 7.10109 104.123 6.68946 103.755 6.38356C103.386 6.07765 102.927 5.9247 102.378 5.9247C101.816 5.9247 101.348 6.07765 100.974 6.38356C100.605 6.68946 100.329 7.10109 100.144 7.61843C99.9644 8.13127 99.8745 8.70485 99.8745 9.33915C99.8745 9.96896 99.9644 10.5403 100.144 11.0531C100.329 11.566 100.605 11.9753 100.974 12.2813C101.348 12.5827 101.816 12.7334 102.378 12.7334Z" fill="#F8F8F8"/>
<path d="M95.9117 4.12299V6.01241H89.9533V4.12299H95.9117ZM91.4243 1.63975H93.8671V11.3703C93.8671 11.6987 93.9165 11.9506 94.0155 12.126C94.119 12.297 94.2539 12.414 94.4204 12.4769C94.5868 12.5399 94.7713 12.5714 94.9737 12.5714C95.1267 12.5714 95.2661 12.5602 95.3921 12.5377C95.5226 12.5152 95.6215 12.4949 95.689 12.4769L96.1006 14.3866C95.9702 14.4316 95.7835 14.4811 95.5406 14.5351C95.3021 14.589 95.0097 14.6205 94.6633 14.6295C94.0515 14.6475 93.5004 14.5553 93.0101 14.3529C92.5197 14.1459 92.1306 13.8265 91.8427 13.3947C91.5593 12.9628 91.4198 12.423 91.4243 11.7751V1.63975Z" fill="#F8F8F8"/>
<path d="M79.3472 14.6903C78.308 14.6903 77.4106 14.4743 76.6548 14.0425C75.9035 13.6061 75.3255 12.9898 74.9206 12.1935C74.5157 11.3928 74.3133 10.4503 74.3133 9.36615C74.3133 8.29997 74.5157 7.36426 74.9206 6.559C75.33 5.74925 75.9013 5.11944 76.6346 4.66958C77.3678 4.21522 78.2293 3.98804 79.219 3.98804C79.8578 3.98804 80.4606 4.09151 81.0275 4.29844C81.5988 4.50088 82.1026 4.81579 82.539 5.24316C82.9799 5.67052 83.3263 6.21486 83.5782 6.87616C83.8301 7.53296 83.9561 8.31572 83.9561 9.22444V9.97346H75.4604V8.32696H81.6145C81.61 7.85911 81.5088 7.44298 81.3109 7.0786C81.1129 6.70971 80.8363 6.41955 80.4809 6.20811C80.13 5.99668 79.7206 5.89096 79.2528 5.89096C78.7534 5.89096 78.3148 6.01242 77.9369 6.25535C77.559 6.49377 77.2644 6.80868 77.0529 7.20006C76.846 7.58694 76.7403 8.01206 76.7358 8.47542V9.91273C76.7358 10.5155 76.846 11.0329 77.0664 11.4648C77.2869 11.8921 77.595 12.2205 77.9909 12.45C78.3868 12.6749 78.8501 12.7873 79.381 12.7873C79.7364 12.7873 80.058 12.7379 80.3459 12.6389C80.6338 12.5354 80.8835 12.3847 81.0949 12.1868C81.3064 11.9888 81.4661 11.7437 81.574 11.4513L83.8548 11.7077C83.7109 12.3105 83.4365 12.8368 83.0316 13.2867C82.6312 13.7321 82.1184 14.0785 81.4931 14.3259C80.8678 14.5688 80.1525 14.6903 79.3472 14.6903Z" fill="#F8F8F8"/>
<path d="M57.7049 14.4878V4.123H60.0397V5.88421H60.1612C60.3771 5.29039 60.7347 4.82703 61.2341 4.49413C61.7334 4.15674 62.3295 3.98804 63.0223 3.98804C63.7241 3.98804 64.3156 4.15899 64.797 4.50088C65.2828 4.83828 65.6247 5.29939 65.8227 5.88421H65.9306C66.1601 5.30839 66.547 4.84953 67.0913 4.50763C67.6401 4.16124 68.2902 3.98804 69.0414 3.98804C69.9952 3.98804 70.7734 4.28945 71.3762 4.89226C71.979 5.49508 72.2805 6.37456 72.2805 7.53071V14.4878H69.8309V7.90859C69.8309 7.26529 69.66 6.79518 69.3181 6.49827C68.9762 6.19686 68.5578 6.04616 68.063 6.04616C67.4737 6.04616 67.0126 6.2306 66.6797 6.59949C66.3513 6.96388 66.1871 7.43849 66.1871 8.02331V14.4878H63.7915V7.80737C63.7915 7.27204 63.6296 6.84467 63.3057 6.52526C62.9863 6.20586 62.5679 6.04616 62.0506 6.04616C61.6997 6.04616 61.3803 6.13613 61.0924 6.31608C60.8045 6.49152 60.575 6.7412 60.4041 7.0651C60.2331 7.3845 60.1477 7.75789 60.1477 8.18526V14.4878H57.7049Z" fill="#F8F8F8"/>
<path d="M50.6651 14.6903C49.6529 14.6903 48.7757 14.4676 48.0334 14.0222C47.2911 13.5769 46.7153 12.9538 46.306 12.153C45.9011 11.3523 45.6986 10.4166 45.6986 9.3459C45.6986 8.27523 45.9011 7.33727 46.306 6.53201C46.7153 5.72676 47.2911 5.10145 48.0334 4.65609C48.7757 4.21072 49.6529 3.98804 50.6651 3.98804C51.6773 3.98804 52.5545 4.21072 53.2968 4.65609C54.0391 5.10145 54.6127 5.72676 55.0175 6.53201C55.4269 7.33727 55.6316 8.27523 55.6316 9.3459C55.6316 10.4166 55.4269 11.3523 55.0175 12.153C54.6127 12.9538 54.0391 13.5769 53.2968 14.0222C52.5545 14.4676 51.6773 14.6903 50.6651 14.6903ZM50.6786 12.7334C51.2274 12.7334 51.6863 12.5827 52.0552 12.2813C52.4241 11.9753 52.6985 11.566 52.8784 11.0531C53.0629 10.5403 53.1551 9.96896 53.1551 9.33915C53.1551 8.70485 53.0629 8.13127 52.8784 7.61843C52.6985 7.10109 52.4241 6.68946 52.0552 6.38356C51.6863 6.07765 51.2274 5.9247 50.6786 5.9247C50.1163 5.9247 49.6484 6.07765 49.275 6.38356C48.9062 6.68946 48.6295 7.10109 48.445 7.61843C48.2651 8.13127 48.1751 8.70485 48.1751 9.33915C48.1751 9.96896 48.2651 10.5403 48.445 11.0531C48.6295 11.566 48.9062 11.9753 49.275 12.2813C49.6484 12.5827 50.1163 12.7334 50.6786 12.7334Z" fill="#F8F8F8"/>
<path d="M39.698 14.6903C38.6633 14.6903 37.7749 14.4631 37.0326 14.0087C36.2948 13.5544 35.7257 12.9268 35.3254 12.1261C34.9295 11.3208 34.7315 10.3941 34.7315 9.3459C34.7315 8.29322 34.934 7.36426 35.3389 6.559C35.7437 5.74925 36.3151 5.11944 37.0528 4.66958C37.7951 4.21522 38.6723 3.98804 39.6845 3.98804C40.5258 3.98804 41.2703 4.14324 41.9181 4.45365C42.5704 4.75955 43.09 5.19367 43.4769 5.756C43.8638 6.31383 44.0842 6.96613 44.1382 7.7129H41.8034C41.7089 7.21355 41.484 6.79743 41.1286 6.46453C40.7777 6.12714 40.3076 5.95844 39.7183 5.95844C39.2189 5.95844 38.7803 6.0934 38.4024 6.36331C38.0245 6.62873 37.7299 7.01112 37.5184 7.51046C37.3115 8.00981 37.208 8.60813 37.208 9.30542C37.208 10.0117 37.3115 10.619 37.5184 11.1274C37.7254 11.6312 38.0155 12.0203 38.3889 12.2948C38.7668 12.5647 39.2099 12.6996 39.7183 12.6996C40.0782 12.6996 40.3998 12.6321 40.6832 12.4972C40.9711 12.3577 41.2118 12.1575 41.4053 11.8966C41.5987 11.6357 41.7314 11.3185 41.8034 10.9452H44.1382C44.0797 11.6784 43.8638 12.3285 43.4904 12.8953C43.117 13.4576 42.6086 13.8985 41.9653 14.2179C41.322 14.5328 40.5663 14.6903 39.698 14.6903Z" fill="#F8F8F8"/>
<path d="M32.665 0.668046V14.4878H30.2222V0.668046H32.665Z" fill="#F8F8F8"/>
<path d="M23.5468 14.6903C22.5077 14.6903 21.6102 14.4743 20.8544 14.0425C20.1031 13.6061 19.5251 12.9898 19.1202 12.1935C18.7153 11.3928 18.5129 10.4503 18.5129 9.36615C18.5129 8.29997 18.7153 7.36426 19.1202 6.559C19.5296 5.74925 20.1009 5.11944 20.8342 4.66958C21.5674 4.21522 22.4289 3.98804 23.4186 3.98804C24.0574 3.98804 24.6603 4.09151 25.2271 4.29844C25.7984 4.50088 26.3022 4.81579 26.7386 5.24316C27.1795 5.67052 27.5259 6.21486 27.7778 6.87616C28.0297 7.53296 28.1557 8.31572 28.1557 9.22444V9.97346H19.66V8.32696H25.8141C25.8096 7.85911 25.7084 7.44298 25.5105 7.0786C25.3126 6.70971 25.0359 6.41955 24.6805 6.20811C24.3296 5.99668 23.9202 5.89096 23.4524 5.89096C22.953 5.89096 22.5144 6.01242 22.1365 6.25535C21.7586 6.49377 21.464 6.80868 21.2525 7.20006C21.0456 7.58694 20.9399 8.01206 20.9354 8.47542V9.91273C20.9354 10.5155 21.0456 11.0329 21.266 11.4648C21.4865 11.8921 21.7946 12.2205 22.1905 12.45C22.5864 12.6749 23.0497 12.7873 23.5806 12.7873C23.936 12.7873 24.2576 12.7379 24.5455 12.6389C24.8334 12.5354 25.0831 12.3847 25.2946 12.1868C25.506 11.9888 25.6657 11.7437 25.7737 11.4513L28.0545 11.7077C27.9105 12.3105 27.6361 12.8368 27.2312 13.2867C26.8308 13.7321 26.318 14.0785 25.6927 14.3259C25.0674 14.5688 24.3521 14.6903 23.5468 14.6903Z" fill="#F8F8F8"/>
<path d="M3.90031 14.4878L0 0.668046H2.69243L5.18242 10.8237H5.31063L7.96932 0.668046H10.4188L13.0843 10.8304H13.2057L15.6957 0.668046H18.3881L14.4878 14.4878H12.0181L9.25142 4.79104H9.14346L6.37005 14.4878H3.90031Z" fill="#F8F8F8"/>
</svg>
