<svg width="20" height="26" viewBox="0 0 20 26" fill="none" xmlns="http://www.w3.org/2000/svg">
<path d="M17.3333 8.66667H16.0952V6.19048C16.0952 2.77333 13.3219 0 9.90476 0C6.48762 0 3.71429 2.77333 3.71429 6.19048V8.66667H2.47619C1.11429 8.66667 0 9.78095 0 11.1429V23.5238C0 24.8857 1.11429 26 2.47619 26H17.3333C18.6952 26 19.8095 24.8857 19.8095 23.5238V11.1429C19.8095 9.78095 18.6952 8.66667 17.3333 8.66667ZM9.90476 19.8095C8.54286 19.8095 7.42857 18.6952 7.42857 17.3333C7.42857 15.9714 8.54286 14.8571 9.90476 14.8571C11.2667 14.8571 12.381 15.9714 12.381 17.3333C12.381 18.6952 11.2667 19.8095 9.90476 19.8095ZM6.19048 8.66667V6.19048C6.19048 4.13524 7.84953 2.47619 9.90476 2.47619C11.96 2.47619 13.6191 4.13524 13.6191 6.19048V8.66667H6.19048Z" fill="#272727"/>
</svg>
