<svg width="36" height="38" viewBox="0 0 36 38" fill="none" xmlns="http://www.w3.org/2000/svg">
<path d="M17.871 0C15.5776 0 13.3781 0.911045 11.7564 2.53272C10.1348 4.15439 9.22372 6.35385 9.22372 8.64724C9.22372 10.9406 10.1348 13.1401 11.7564 14.7618C13.3781 16.3834 15.5776 17.2945 17.871 17.2945C20.1643 17.2945 22.3638 16.3834 23.9855 14.7618C25.6071 13.1401 26.5182 10.9406 26.5182 8.64724C26.5182 6.35385 25.6071 4.15439 23.9855 2.53272C22.3638 0.911045 20.1643 0 17.871 0ZM8.64724 21.9063C6.35385 21.9063 4.15439 22.8174 2.53272 24.439C0.911045 26.0607 0 28.2602 0 30.5536V33.293C0 35.0317 1.25904 36.5121 2.97465 36.7911C12.8394 38.403 22.9025 38.403 32.7673 36.7911C33.5976 36.6559 34.3527 36.2298 34.8977 35.5889C35.4427 34.9481 35.7419 34.1343 35.7419 33.293V30.5536C35.7419 28.2602 34.8309 26.0607 33.2092 24.439C31.5875 22.8174 29.3881 21.9063 27.0947 21.9063H26.3107C25.8841 21.9063 25.4598 21.9755 25.0562 22.1046L23.0593 22.7572C19.6879 23.8577 16.054 23.8577 12.6826 22.7572L10.6857 22.1046C10.2813 21.9731 9.85877 21.9061 9.43356 21.9063H8.64724Z" fill="#F8F8F8"/>
</svg>
