<svg width="237" height="19" viewBox="0 0 237 19" fill="none" xmlns="http://www.w3.org/2000/svg">
<path d="M232.061 14.9788C230.973 14.9788 230.033 14.7643 229.243 14.3352C228.457 13.9016 227.852 13.2851 227.427 12.4857C227.007 11.6818 226.797 10.7266 226.797 9.62003C226.797 8.54512 227.01 7.6057 227.434 6.80177C227.859 5.99333 228.457 5.36554 229.23 4.91841C230.002 4.46677 230.912 4.24095 231.96 4.24095C232.7 4.24095 233.378 4.35611 233.992 4.58645C234.606 4.81679 235.137 5.15778 235.584 5.60943C236.031 6.06107 236.379 6.61885 236.627 7.28277C236.876 7.94217 237 8.69868 237 9.55229V10.3788H227.956V8.45479H233.918C233.913 8.10251 233.83 7.78861 233.667 7.51311C233.504 7.23761 233.281 7.02308 232.996 6.86952C232.716 6.71144 232.393 6.6324 232.027 6.6324C231.657 6.6324 231.325 6.71596 231.032 6.88307C230.738 7.04566 230.505 7.26922 230.334 7.55376C230.162 7.83378 230.072 8.15219 230.063 8.50899V10.4669C230.063 10.8914 230.146 11.264 230.314 11.5847C230.481 11.9008 230.718 12.147 231.025 12.3231C231.332 12.4993 231.698 12.5873 232.122 12.5873C232.416 12.5873 232.682 12.5467 232.922 12.4654C233.161 12.3841 233.367 12.2644 233.538 12.1063C233.71 11.9483 233.839 11.7541 233.924 11.5237L236.966 11.6118C236.84 12.2938 236.562 12.8877 236.133 13.3935C235.708 13.8948 235.151 14.2855 234.46 14.5655C233.769 14.841 232.969 14.9788 232.061 14.9788Z" fill="#CACACA"/>
<path d="M219.808 18.9013C218.819 18.9013 217.972 18.7636 217.267 18.4881C216.563 18.2126 216.009 17.8354 215.607 17.3567C215.205 16.878 214.964 16.336 214.883 15.7308L218.019 15.5546C218.078 15.7669 218.186 15.9521 218.344 16.1102C218.507 16.2682 218.717 16.3902 218.974 16.476C219.236 16.5618 219.544 16.6047 219.896 16.6047C220.451 16.6047 220.91 16.4692 221.271 16.1982C221.637 15.9318 221.82 15.4643 221.82 14.7959V12.9667H221.705C221.574 13.2874 221.375 13.5742 221.108 13.8271C220.842 14.08 220.51 14.2787 220.113 14.4233C219.72 14.5678 219.268 14.6401 218.758 14.6401C217.999 14.6401 217.303 14.4639 216.671 14.1116C216.043 13.7548 215.54 13.2038 215.16 12.4586C214.785 11.7089 214.598 10.7446 214.598 9.56584C214.598 8.35091 214.792 7.35052 215.181 6.56466C215.569 5.77428 216.077 5.1894 216.705 4.81002C217.337 4.43064 218.017 4.24095 218.744 4.24095C219.291 4.24095 219.758 4.33579 220.146 4.52548C220.539 4.71066 220.862 4.95003 221.115 5.2436C221.368 5.53717 221.56 5.84203 221.691 6.15818H221.786V4.37644H225.085V14.823C225.085 15.7037 224.864 16.4466 224.421 17.0518C223.979 17.657 223.36 18.1155 222.565 18.4271C221.77 18.7433 220.851 18.9013 219.808 18.9013ZM219.909 12.2283C220.311 12.2283 220.655 12.1221 220.939 11.9099C221.224 11.6976 221.443 11.3927 221.596 10.9953C221.75 10.5978 221.827 10.1214 221.827 9.56584C221.827 9.00128 221.75 8.51576 221.596 8.10928C221.447 7.69828 221.228 7.38213 220.939 7.16083C220.655 6.93952 220.311 6.82887 219.909 6.82887C219.498 6.82887 219.151 6.94178 218.866 7.1676C218.581 7.39343 218.365 7.71183 218.216 8.12283C218.071 8.52931 217.999 9.01031 217.999 9.56584C217.999 10.1214 218.073 10.5978 218.222 10.9953C218.371 11.3927 218.586 11.6976 218.866 11.9099C219.151 12.1221 219.498 12.2283 219.909 12.2283Z" fill="#CACACA"/>
<path d="M208.326 14.9788C207.238 14.9788 206.298 14.7643 205.508 14.3352C204.722 13.9016 204.117 13.2851 203.692 12.4857C203.272 11.6818 203.062 10.7266 203.062 9.62003C203.062 8.54512 203.275 7.6057 203.699 6.80177C204.124 5.99333 204.722 5.36554 205.494 4.91841C206.267 4.46677 207.177 4.24095 208.225 4.24095C208.965 4.24095 209.643 4.35611 210.257 4.58645C210.871 4.81679 211.402 5.15778 211.849 5.60943C212.296 6.06107 212.644 6.61885 212.892 7.28277C213.141 7.94217 213.265 8.69868 213.265 9.55229V10.3788H204.221V8.45479H210.183C210.178 8.10251 210.094 7.78861 209.932 7.51311C209.769 7.23761 209.546 7.02308 209.261 6.86952C208.981 6.71144 208.658 6.6324 208.292 6.6324C207.922 6.6324 207.59 6.71596 207.297 6.88307C207.003 7.04566 206.77 7.26922 206.599 7.55376C206.427 7.83378 206.337 8.15219 206.328 8.50899V10.4669C206.328 10.8914 206.411 11.264 206.578 11.5847C206.746 11.9008 206.983 12.147 207.29 12.3231C207.597 12.4993 207.963 12.5873 208.387 12.5873C208.681 12.5873 208.947 12.5467 209.187 12.4654C209.426 12.3841 209.632 12.2644 209.803 12.1063C209.975 11.9483 210.104 11.7541 210.189 11.5237L213.231 11.6118C213.105 12.2938 212.827 12.8877 212.398 13.3935C211.973 13.8948 211.416 14.2855 210.725 14.5655C210.034 14.841 209.234 14.9788 208.326 14.9788Z" fill="#CACACA"/>
<path d="M201.353 0.9078V14.7823H198.041V0.9078H201.353Z" fill="#CACACA"/>
<path d="M195.932 0.9078V14.7823H192.619V0.9078H195.932Z" fill="#CACACA"/>
<path d="M185.665 14.9788C184.572 14.9788 183.633 14.7552 182.847 14.3081C182.065 13.8565 181.462 13.2287 181.038 12.4247C180.618 11.6163 180.408 10.6791 180.408 9.61326C180.408 8.54286 180.618 7.6057 181.038 6.80177C181.462 5.99333 182.065 5.36554 182.847 4.91841C183.633 4.46677 184.572 4.24095 185.665 4.24095C186.758 4.24095 187.695 4.46677 188.477 4.91841C189.262 5.36554 189.865 5.99333 190.285 6.80177C190.71 7.6057 190.922 8.54286 190.922 9.61326C190.922 10.6791 190.71 11.6163 190.285 12.4247C189.865 13.2287 189.262 13.8565 188.477 14.3081C187.695 14.7552 186.758 14.9788 185.665 14.9788ZM185.685 12.4789C186.083 12.4789 186.419 12.357 186.695 12.1131C186.97 11.8692 187.18 11.5305 187.325 11.0969C187.474 10.6633 187.548 10.162 187.548 9.59293C187.548 9.01483 187.474 8.50899 187.325 8.07541C187.18 7.64183 186.97 7.3031 186.695 7.05921C186.419 6.81532 186.083 6.69338 185.685 6.69338C185.274 6.69338 184.927 6.81532 184.642 7.05921C184.362 7.3031 184.148 7.64183 183.998 8.07541C183.854 8.50899 183.782 9.01483 183.782 9.59293C183.782 10.162 183.854 10.6633 183.998 11.0969C184.148 11.5305 184.362 11.8692 184.642 12.1131C184.927 12.357 185.274 12.4789 185.685 12.4789Z" fill="#CACACA"/>
<path d="M178.889 5.93462H175.501C175.456 5.58686 175.363 5.27296 175.223 4.99294C175.083 4.71292 174.898 4.47355 174.668 4.27483C174.438 4.0761 174.164 3.9248 173.848 3.82093C173.537 3.71253 173.191 3.65833 172.812 3.65833C172.139 3.65833 171.558 3.82318 171.071 4.15288C170.587 4.48258 170.215 4.95907 169.953 5.58234C169.695 6.20561 169.567 6.95986 169.567 7.84508C169.567 8.76643 169.698 9.53875 169.96 10.162C170.226 10.7808 170.599 11.2482 171.077 11.5644C171.561 11.876 172.132 12.0318 172.791 12.0318C173.162 12.0318 173.498 11.9844 173.801 11.8896C174.108 11.7947 174.377 11.657 174.607 11.4763C174.842 11.2911 175.034 11.0676 175.183 10.8056C175.336 10.5391 175.442 10.2388 175.501 9.90458L178.889 9.9249C178.83 10.5391 178.651 11.1443 178.353 11.7405C178.06 12.3367 177.656 12.8809 177.141 13.3732C176.626 13.861 175.998 14.2494 175.257 14.5385C174.521 14.8275 173.677 14.972 172.724 14.972C171.468 14.972 170.343 14.6965 169.35 14.1455C168.361 13.59 167.579 12.7816 167.006 11.7202C166.432 10.6588 166.145 9.36712 166.145 7.84508C166.145 6.31852 166.437 5.02456 167.019 3.96319C167.602 2.90183 168.39 2.09564 169.384 1.54464C170.377 0.99363 171.491 0.718126 172.724 0.718126C173.564 0.718126 174.34 0.835554 175.054 1.07041C175.768 1.30075 176.395 1.63948 176.937 2.08661C177.479 2.52922 177.92 3.07345 178.258 3.71931C178.597 4.36516 178.807 5.1036 178.889 5.93462Z" fill="#CACACA"/>
<path d="M153.417 8.84772V14.7823H150.105V4.37644H153.255V6.2869H153.37C153.6 5.65008 153.993 5.15101 154.549 4.78969C155.104 4.42386 155.766 4.24095 156.534 4.24095C157.265 4.24095 157.9 4.4058 158.438 4.7355C158.979 5.06068 159.4 5.51684 159.698 6.10398C160 6.6866 160.149 7.36858 160.145 8.14993V14.7823H156.832V8.8003C156.836 8.22219 156.69 7.77055 156.392 7.44536C156.098 7.12018 155.689 6.95759 155.165 6.95759C154.818 6.95759 154.51 7.03437 154.244 7.18793C153.982 7.33697 153.779 7.5515 153.634 7.83152C153.494 8.11154 153.422 8.45027 153.417 8.84772Z" fill="#CACACA"/>
<path d="M141.86 14.9585C141.196 14.9585 140.607 14.8478 140.092 14.6265C139.581 14.4007 139.177 14.062 138.879 13.6103C138.585 13.1542 138.439 12.5828 138.439 11.8963C138.439 11.3182 138.54 10.8304 138.743 10.433C138.947 10.0355 139.227 9.71262 139.584 9.46422C139.94 9.21581 140.351 9.02838 140.817 8.90192C141.282 8.77094 141.779 8.68287 142.307 8.63771C142.899 8.58351 143.375 8.52705 143.736 8.46834C144.098 8.40511 144.36 8.31704 144.522 8.20413C144.689 8.0867 144.773 7.92185 144.773 7.70958V7.6757C144.773 7.32794 144.653 7.05921 144.414 6.86952C144.175 6.67983 143.852 6.58498 143.445 6.58498C143.007 6.58498 142.655 6.67983 142.388 6.86952C142.122 7.05921 141.952 7.32116 141.88 7.65538L138.825 7.54698C138.915 6.91468 139.148 6.35013 139.523 5.85332C139.902 5.35199 140.421 4.95906 141.081 4.67452C141.745 4.38547 142.542 4.24095 143.472 4.24095C144.136 4.24095 144.748 4.31998 145.308 4.47806C145.868 4.63162 146.356 4.85744 146.771 5.15553C147.187 5.4491 147.508 5.81041 147.733 6.23947C147.964 6.66854 148.079 7.15857 148.079 7.70958V14.7823H144.963V13.3326H144.881C144.696 13.6848 144.459 13.9829 144.17 14.2268C143.885 14.4707 143.549 14.6536 143.161 14.7756C142.777 14.8975 142.343 14.9585 141.86 14.9585ZM142.883 12.7906C143.24 12.7906 143.56 12.7183 143.845 12.5738C144.134 12.4293 144.364 12.2305 144.536 11.9776C144.707 11.7202 144.793 11.4221 144.793 11.0834V10.0943C144.698 10.1439 144.583 10.1891 144.448 10.2298C144.317 10.2704 144.172 10.3088 144.014 10.3449C143.856 10.3811 143.694 10.4127 143.526 10.4398C143.359 10.4669 143.199 10.4917 143.045 10.5143C142.734 10.564 142.467 10.6408 142.246 10.7446C142.029 10.8485 141.862 10.984 141.745 11.1511C141.632 11.3137 141.575 11.5079 141.575 11.7337C141.575 12.077 141.697 12.3389 141.941 12.5196C142.19 12.7002 142.503 12.7906 142.883 12.7906Z" fill="#CACACA"/>
<path d="M133.505 14.7823V4.37644H136.818V14.7823H133.505ZM135.165 3.16377C134.7 3.16377 134.3 3.01021 133.966 2.70309C133.631 2.39146 133.464 2.01659 133.464 1.5785C133.464 1.14492 133.631 0.774571 133.966 0.467453C134.3 0.155818 134.7 0 135.165 0C135.634 0 136.034 0.155818 136.364 0.467453C136.698 0.774571 136.865 1.14492 136.865 1.5785C136.865 2.01659 136.698 2.39146 136.364 2.70309C136.034 3.01021 135.634 3.16377 135.165 3.16377Z" fill="#CACACA"/>
<path d="M131.815 4.37643V6.81531H125.25V4.37643H131.815ZM126.626 1.88335H129.938V11.5102C129.938 11.7134 129.97 11.8782 130.033 12.0047C130.101 12.1266 130.198 12.2147 130.325 12.2689C130.451 12.3186 130.602 12.3434 130.778 12.3434C130.905 12.3434 131.038 12.3321 131.178 12.3096C131.323 12.2825 131.431 12.2599 131.503 12.2418L132.005 14.6333C131.847 14.6784 131.623 14.7349 131.334 14.8026C131.049 14.8704 130.708 14.9133 130.311 14.9314C129.534 14.9675 128.868 14.8772 128.312 14.6604C127.761 14.4391 127.339 14.0958 127.046 13.6306C126.757 13.1654 126.617 12.5806 126.626 11.876V1.88335Z" fill="#CACACA"/>
<path d="M124.052 7.55376L121.011 7.63506C120.979 7.41827 120.893 7.22632 120.753 7.05921C120.613 6.88758 120.43 6.75435 120.204 6.6595C119.983 6.56014 119.726 6.51046 119.432 6.51046C119.048 6.51046 118.721 6.58724 118.45 6.7408C118.183 6.89436 118.052 7.10211 118.057 7.36407C118.052 7.56731 118.134 7.74345 118.301 7.89249C118.472 8.04153 118.777 8.16122 119.215 8.25155L121.221 8.63093C122.259 8.82965 123.032 9.15936 123.538 9.62003C124.048 10.0807 124.305 10.6904 124.31 11.4492C124.305 12.1628 124.093 12.7838 123.673 13.3122C123.258 13.8407 122.689 14.2516 121.966 14.5452C121.243 14.8343 120.417 14.9788 119.486 14.9788C118 14.9788 116.828 14.6739 115.97 14.0642C115.117 13.45 114.629 12.628 114.507 11.5982L117.779 11.5169C117.851 11.8963 118.039 12.1854 118.341 12.3841C118.644 12.5828 119.03 12.6822 119.5 12.6822C119.924 12.6822 120.27 12.6031 120.536 12.4451C120.803 12.287 120.938 12.077 120.943 11.815C120.938 11.5802 120.835 11.3927 120.631 11.2527C120.428 11.1082 120.11 10.9953 119.676 10.914L117.86 10.5685C116.817 10.3788 116.04 10.0288 115.53 9.51841C115.02 9.00354 114.767 8.34865 114.771 7.55376C114.767 6.85823 114.952 6.26431 115.327 5.77202C115.702 5.27521 116.235 4.89583 116.926 4.63388C117.617 4.37192 118.432 4.24095 119.371 4.24095C120.78 4.24095 121.891 4.53677 122.704 5.12843C123.517 5.71556 123.967 6.52401 124.052 7.55376Z" fill="#CACACA"/>
<path d="M109.546 14.7823V4.37644H112.859V14.7823H109.546ZM111.206 3.16377C110.741 3.16377 110.341 3.01021 110.007 2.70309C109.673 2.39146 109.506 2.01659 109.506 1.5785C109.506 1.14492 109.673 0.774571 110.007 0.467453C110.341 0.155818 110.741 0 111.206 0C111.676 0 112.076 0.155818 112.405 0.467453C112.739 0.774571 112.907 1.14492 112.907 1.5785C112.907 2.01659 112.739 2.39146 112.405 2.70309C112.076 3.01021 111.676 3.16377 111.206 3.16377Z" fill="#CACACA"/>
<path d="M101.517 14.7823V4.37644H104.735V6.27335H104.843C105.033 5.58685 105.342 5.07649 105.771 4.74227C106.2 4.40354 106.699 4.23417 107.268 4.23417C107.422 4.23417 107.58 4.24547 107.743 4.26805C107.905 4.28611 108.057 4.31547 108.197 4.35612V7.23535C108.038 7.18115 107.831 7.13825 107.573 7.10663C107.32 7.07502 107.095 7.05921 106.896 7.05921C106.503 7.05921 106.148 7.14728 105.832 7.32342C105.521 7.49505 105.274 7.73668 105.094 8.04831C104.918 8.35543 104.83 8.71675 104.83 9.13226V14.7823H101.517Z" fill="#CACACA"/>
<path d="M92.7012 8.84771V14.7823H89.3884V0.9078H92.5928V6.28689H92.708C92.9428 5.64555 93.3267 5.14423 93.8597 4.78291C94.3971 4.4216 95.0543 4.24094 95.8311 4.24094C96.5628 4.24094 97.1996 4.40353 97.7415 4.72871C98.2835 5.04938 98.7035 5.50328 99.0016 6.09042C99.3042 6.67756 99.4533 7.36406 99.4488 8.14992V14.7823H96.136V8.80029C96.1405 8.22218 95.9959 7.77054 95.7024 7.44536C95.4088 7.12017 94.9955 6.95758 94.4626 6.95758C94.1148 6.95758 93.8077 7.03436 93.5412 7.18792C93.2793 7.33696 93.0738 7.55149 92.9248 7.83151C92.7802 8.11153 92.7057 8.45026 92.7012 8.84771Z" fill="#CACACA"/>
<path d="M87.4695 5.93462H84.0821C84.037 5.58686 83.9444 5.27296 83.8044 4.99294C83.6644 4.71292 83.4792 4.47355 83.2488 4.27483C83.0185 4.0761 82.7453 3.9248 82.4291 3.82093C82.1175 3.71253 81.772 3.65833 81.3926 3.65833C80.7196 3.65833 80.1393 3.82318 79.6515 4.15288C79.1682 4.48258 78.7956 4.95907 78.5337 5.58234C78.2762 6.20561 78.1475 6.95986 78.1475 7.84508C78.1475 8.76643 78.2785 9.53875 78.5404 10.162C78.8069 10.7808 79.1795 11.2482 79.6583 11.5644C80.1415 11.876 80.7128 12.0318 81.3723 12.0318C81.7426 12.0318 82.0791 11.9844 82.3817 11.8896C82.6888 11.7947 82.9575 11.657 83.1879 11.4763C83.4227 11.2911 83.6147 11.0676 83.7637 10.8056C83.9173 10.5391 84.0234 10.2388 84.0821 9.90458L87.4695 9.9249C87.4107 10.5391 87.2323 11.1443 86.9343 11.7405C86.6407 12.3367 86.2365 12.8809 85.7216 13.3732C85.2067 13.861 84.5789 14.2494 83.8382 14.5385C83.1021 14.8275 82.2575 14.972 81.3045 14.972C80.0489 14.972 78.9243 14.6965 77.9307 14.1455C76.9416 13.59 76.1603 12.7816 75.5867 11.7202C75.0131 10.6588 74.7263 9.36712 74.7263 7.84508C74.7263 6.31852 75.0176 5.02456 75.6002 3.96319C76.1829 2.90183 76.971 2.09564 77.9646 1.54464C78.9582 0.99363 80.0715 0.718126 81.3045 0.718126C82.1446 0.718126 82.9214 0.835554 83.635 1.07041C84.3486 1.30075 84.9764 1.63948 85.5184 2.08661C86.0603 2.52922 86.5007 3.07345 86.8394 3.71931C87.1781 4.36516 87.3882 5.1036 87.4695 5.93462Z" fill="#CACACA"/>
<path d="M68.888 7.55376L65.8462 7.63506C65.8146 7.41827 65.7288 7.22632 65.5888 7.05921C65.4488 6.88758 65.2659 6.75435 65.04 6.6595C64.8187 6.56014 64.5613 6.51046 64.2677 6.51046C63.8838 6.51046 63.5564 6.58724 63.2854 6.7408C63.0189 6.89436 62.8879 7.10211 62.8925 7.36407C62.8879 7.56731 62.9692 7.74345 63.1364 7.89249C63.308 8.04153 63.6128 8.16122 64.0509 8.25155L66.0562 8.63093C67.095 8.82965 67.8673 9.15936 68.3732 9.62003C68.8835 10.0807 69.141 10.6904 69.1455 11.4492C69.141 12.1628 68.9287 12.7838 68.5087 13.3122C68.0932 13.8407 67.5241 14.2516 66.8015 14.5452C66.0788 14.8343 65.2523 14.9788 64.3219 14.9788C62.836 14.9788 61.664 14.6739 60.8059 14.0642C59.9523 13.45 59.4645 12.628 59.3425 11.5982L62.6147 11.5169C62.687 11.8963 62.8744 12.1854 63.177 12.3841C63.4796 12.5828 63.8658 12.6822 64.3355 12.6822C64.76 12.6822 65.1055 12.6031 65.372 12.4451C65.6385 12.287 65.774 12.077 65.7785 11.815C65.774 11.5802 65.6701 11.3927 65.4668 11.2527C65.2636 11.1082 64.9452 10.9953 64.5116 10.914L62.696 10.5685C61.6527 10.3788 60.8759 10.0288 60.3655 9.51841C59.8552 9.00354 59.6022 8.34865 59.6068 7.55376C59.6022 6.85823 59.7874 6.26431 60.1623 5.77202C60.5371 5.27521 61.0701 4.89583 61.7611 4.63388C62.4521 4.37192 63.2673 4.24095 64.2068 4.24095C65.6159 4.24095 66.7269 4.53677 67.5399 5.12843C68.3529 5.71556 68.8022 6.52401 68.888 7.55376Z" fill="#CACACA"/>
<path d="M51.5586 14.9585C50.8947 14.9585 50.3053 14.8478 49.7904 14.6265C49.28 14.4007 48.8758 14.062 48.5777 13.6103C48.2842 13.1542 48.1374 12.5828 48.1374 11.8963C48.1374 11.3182 48.239 10.8304 48.4422 10.433C48.6455 10.0355 48.9255 9.71262 49.2823 9.46422C49.6391 9.21581 50.0501 9.02838 50.5153 8.90192C50.9805 8.77094 51.4773 8.68287 52.0057 8.63771C52.5974 8.58351 53.0738 8.52705 53.4352 8.46834C53.7965 8.40511 54.0584 8.31704 54.221 8.20413C54.3881 8.0867 54.4717 7.92185 54.4717 7.70958V7.6757C54.4717 7.32794 54.352 7.05921 54.1126 6.86952C53.8733 6.67983 53.5503 6.58498 53.1439 6.58498C52.7058 6.58498 52.3535 6.67983 52.087 6.86952C51.8205 7.05921 51.6512 7.32116 51.5789 7.65538L48.5235 7.54698C48.6139 6.91468 48.8465 6.35013 49.2213 5.85332C49.6007 5.35199 50.1201 4.95906 50.7795 4.67452C51.4434 4.38547 52.2406 4.24095 53.171 4.24095C53.8349 4.24095 54.4468 4.31998 55.0069 4.47806C55.5669 4.63162 56.0547 4.85744 56.4702 5.15553C56.8857 5.4491 57.2064 5.81041 57.4322 6.23947C57.6626 6.66854 57.7777 7.15857 57.7777 7.70958V14.7823H54.6614V13.3326H54.5801C54.3949 13.6848 54.1578 13.9829 53.8687 14.2268C53.5842 14.4707 53.2477 14.6536 52.8593 14.7756C52.4754 14.8975 52.0418 14.9585 51.5586 14.9585ZM52.5816 12.7906C52.9384 12.7906 53.259 12.7183 53.5436 12.5738C53.8326 12.4293 54.0629 12.2305 54.2346 11.9776C54.4062 11.7202 54.492 11.4221 54.492 11.0834V10.0943C54.3972 10.1439 54.282 10.1891 54.1465 10.2298C54.0155 10.2704 53.871 10.3088 53.7129 10.3449C53.5548 10.3811 53.3923 10.4127 53.2251 10.4398C53.058 10.4669 52.8977 10.4917 52.7441 10.5143C52.4325 10.564 52.166 10.6408 51.9447 10.7446C51.7279 10.8485 51.5608 10.984 51.4434 11.1511C51.3305 11.3137 51.274 11.5079 51.274 11.7337C51.274 12.077 51.396 12.3389 51.6399 12.5196C51.8883 12.7002 52.2022 12.7906 52.5816 12.7906Z" fill="#CACACA"/>
<path d="M40.9868 14.7823V4.37644H44.2047V6.27335H44.3131C44.5028 5.58685 44.8122 5.07649 45.2412 4.74227C45.6703 4.40354 46.1694 4.23417 46.7384 4.23417C46.892 4.23417 47.0501 4.24547 47.2127 4.26805C47.3753 4.28611 47.5266 4.31547 47.6666 4.35612V7.23535C47.5085 7.18115 47.3007 7.13825 47.0433 7.10663C46.7904 7.07502 46.5646 7.05921 46.3658 7.05921C45.9729 7.05921 45.6184 7.14728 45.3022 7.32342C44.9906 7.49505 44.7444 7.73668 44.5638 8.04831C44.3876 8.35543 44.2996 8.71675 44.2996 9.13226V14.7823H40.9868Z" fill="#CACACA"/>
<path d="M32.5846 14.9314C31.8169 14.9314 31.1191 14.7326 30.4913 14.3352C29.8635 13.9377 29.3622 13.3416 28.9873 12.5467C28.6124 11.7518 28.425 10.7649 28.425 9.58615C28.425 8.36219 28.6192 7.35503 29.0076 6.56465C29.396 5.77427 29.9041 5.18939 30.5319 4.81001C31.1642 4.43063 31.8439 4.24094 32.5711 4.24094C33.1176 4.24094 33.585 4.33578 33.9735 4.52547C34.3619 4.71065 34.6825 4.95002 34.9355 5.24359C35.1884 5.53716 35.3803 5.84202 35.5113 6.15817H35.579V0.9078H38.8919V14.7823H35.6129V13.0954H35.5113C35.3713 13.4161 35.1726 13.7164 34.9151 13.9965C34.6577 14.2765 34.3348 14.5023 33.9464 14.6739C33.5625 14.8456 33.1086 14.9314 32.5846 14.9314ZM33.7363 12.3502C34.1383 12.3502 34.4816 12.2373 34.7661 12.0115C35.0506 11.7811 35.2697 11.4582 35.4232 11.0427C35.5768 10.6272 35.6536 10.1394 35.6536 9.57938C35.6536 9.01031 35.5768 8.52027 35.4232 8.10927C35.2742 7.69828 35.0551 7.38213 34.7661 7.16082C34.4816 6.93951 34.1383 6.82886 33.7363 6.82886C33.3253 6.82886 32.9776 6.94177 32.693 7.16759C32.4085 7.39342 32.1917 7.71183 32.0427 8.12282C31.8981 8.53382 31.8259 9.01934 31.8259 9.57938C31.8259 10.1394 31.9004 10.6272 32.0494 11.0427C32.1985 11.4582 32.413 11.7811 32.693 12.0115C32.9776 12.2373 33.3253 12.3502 33.7363 12.3502Z" fill="#CACACA"/>
<path d="M20.5391 14.9585C19.8751 14.9585 19.2857 14.8478 18.7709 14.6265C18.2605 14.4007 17.8563 14.062 17.5582 13.6103C17.2646 13.1542 17.1179 12.5828 17.1179 11.8963C17.1179 11.3182 17.2195 10.8304 17.4227 10.433C17.626 10.0355 17.906 9.71262 18.2628 9.46422C18.6196 9.21581 19.0306 9.02838 19.4958 8.90192C19.961 8.77094 20.4578 8.68287 20.9862 8.63771C21.5778 8.58351 22.0543 8.52705 22.4156 8.46834C22.777 8.40511 23.0389 8.31704 23.2015 8.20413C23.3686 8.0867 23.4522 7.92185 23.4522 7.70958V7.6757C23.4522 7.32794 23.3325 7.05921 23.0931 6.86952C22.8537 6.67983 22.5308 6.58498 22.1243 6.58498C21.6862 6.58498 21.334 6.67983 21.0675 6.86952C20.801 7.05921 20.6316 7.32116 20.5594 7.65538L17.504 7.54698C17.5943 6.91468 17.8269 6.35013 18.2018 5.85332C18.5812 5.35199 19.1006 4.95906 19.76 4.67452C20.4239 4.38547 21.221 4.24095 22.1514 4.24095C22.8153 4.24095 23.4273 4.31998 23.9874 4.47806C24.5474 4.63162 25.0352 4.85744 25.4507 5.15553C25.8662 5.4491 26.1869 5.81041 26.4127 6.23947C26.643 6.66854 26.7582 7.15857 26.7582 7.70958V14.7823H23.6419V13.3326H23.5606C23.3754 13.6848 23.1383 13.9829 22.8492 14.2268C22.5647 14.4707 22.2282 14.6536 21.8398 14.7756C21.4559 14.8975 21.0223 14.9585 20.5391 14.9585ZM21.562 12.7906C21.9188 12.7906 22.2395 12.7183 22.524 12.5738C22.8131 12.4293 23.0434 12.2305 23.2151 11.9776C23.3867 11.7202 23.4725 11.4221 23.4725 11.0834V10.0943C23.3776 10.1439 23.2625 10.1891 23.127 10.2298C22.996 10.2704 22.8515 10.3088 22.6934 10.3449C22.5353 10.3811 22.3727 10.4127 22.2056 10.4398C22.0385 10.4669 21.8782 10.4917 21.7246 10.5143C21.413 10.564 21.1465 10.6408 20.9252 10.7446C20.7084 10.8485 20.5413 10.984 20.4239 11.1511C20.311 11.3137 20.2545 11.5079 20.2545 11.7337C20.2545 12.077 20.3765 12.3389 20.6204 12.5196C20.8688 12.7002 21.1827 12.7906 21.562 12.7906Z" fill="#CACACA"/>
<path d="M0 0.9078H4.15287L7.6757 9.49808H7.83829L11.3611 0.9078H15.514V14.7823H12.2486V6.25979H12.1334L8.8003 14.6943H6.7137L3.38056 6.21237H3.26539V14.7823H0V0.9078Z" fill="#CACACA"/>
</svg>
