<svg width="39" height="39" viewBox="0 0 39 39" fill="none" xmlns="http://www.w3.org/2000/svg">
<path d="M8.72021 18.2812H33.0952C33.4184 18.2812 33.7284 18.4097 33.957 18.6382C34.1856 18.8668 34.314 19.1768 34.314 19.5C34.314 19.8232 34.1856 20.1332 33.957 20.3618C33.7284 20.5903 33.4184 20.7188 33.0952 20.7188H8.72021C8.39698 20.7188 8.08699 20.5903 7.85843 20.3618C7.62987 20.1332 7.50146 19.8232 7.50146 19.5C7.50146 19.1768 7.62987 18.8668 7.85843 18.6382C8.08699 18.4097 8.39698 18.2812 8.72021 18.2812Z" fill="white"/>
<path d="M9.0358 19.5L19.1441 29.6059C19.373 29.8348 19.5015 30.1452 19.5015 30.4688C19.5015 30.7925 19.373 31.1028 19.1441 31.3317C18.9153 31.5605 18.6049 31.6891 18.2812 31.6891C17.9576 31.6891 17.6472 31.5605 17.4184 31.3317L6.44961 20.3629C6.33611 20.2497 6.24606 20.1152 6.18462 19.9672C6.12318 19.8191 6.09155 19.6604 6.09155 19.5C6.09155 19.3397 6.12318 19.181 6.18462 19.0329C6.24606 18.8849 6.33611 18.7504 6.44961 18.6372L17.4184 7.66839C17.6472 7.43954 17.9576 7.31097 18.2812 7.31097C18.6049 7.31097 18.9153 7.43954 19.1441 7.66839C19.373 7.89724 19.5015 8.20762 19.5015 8.53127C19.5015 8.85491 19.373 9.16529 19.1441 9.39414L9.0358 19.5Z" fill="white"/>
</svg>
