<svg width="31" height="31" viewBox="0 0 31 31" fill="none" xmlns="http://www.w3.org/2000/svg">
<path d="M24.1111 17.2222H17.2222V24.1111H13.7778V17.2222H6.88889V13.7778H13.7778V6.88889H17.2222V13.7778H24.1111M27.5555 0H3.44444C1.53278 0 0 1.53278 0 3.44444V27.5555C0 28.4691 0.362896 29.3452 1.00885 29.9911C1.65481 30.6371 2.53092 31 3.44444 31H27.5555C28.4691 31 29.3452 30.6371 29.9911 29.9911C30.6371 29.3452 31 28.4691 31 27.5555V3.44444C31 2.53092 30.6371 1.65481 29.9911 1.00885C29.3452 0.362896 28.4691 0 27.5555 0Z" fill="#DC3939"/>
</svg>
