<svg width="40" height="44" viewBox="0 0 40 44" fill="none" xmlns="http://www.w3.org/2000/svg">
<path d="M22.816 0.989995C22.0173 0.349221 21.024 0 20 0C18.9761 0 17.9827 0.349221 17.184 0.989995L1.684 13.424C1.15843 13.8457 0.734253 14.38 0.442786 14.9875C0.151319 15.595 9.38517e-07 16.2602 0 16.934V39.4941C0 40.6875 0.474107 41.8321 1.31802 42.676C2.16194 43.52 3.30653 43.9941 4.50001 43.9941H9.50002C10.6935 43.9941 11.8381 43.52 12.682 42.676C13.5259 41.8321 14 40.6875 14 39.4941V28.494C14 27.114 15.12 25.994 16.5 25.994H23.5C24.88 25.994 26 27.114 26 28.494V39.4941C26 40.6875 26.4742 41.8321 27.3181 42.676C28.162 43.52 29.3066 43.9941 30.5001 43.9941H35.5001C36.6935 43.9941 37.8381 43.52 38.682 42.676C39.526 41.8321 40.0001 40.6875 40.0001 39.4941V16.934C40.0001 16.2602 39.8488 15.595 39.5573 14.9875C39.2658 14.38 38.8416 13.8457 38.3161 13.424L22.816 0.989995Z" fill="#F2F2F2"/>
</svg>
