<svg width="313" height="88" viewBox="0 0 313 88" fill="none" xmlns="http://www.w3.org/2000/svg">
<path d="M166.086 77.8076C166.086 79.5117 165.863 81.0805 165.416 82.514C164.975 83.9431 164.341 85.2594 163.516 86.463H162.11C162.434 86.0168 162.736 85.4668 163.016 84.8131C163.3 84.164 163.548 83.4517 163.76 82.6763C163.972 81.8964 164.136 81.0917 164.253 80.2623C164.375 79.4283 164.436 78.6101 164.436 77.8076C164.436 76.7347 164.332 75.646 164.125 74.5416C163.917 73.4371 163.638 72.4115 163.286 71.4648C162.935 70.5182 162.543 69.7473 162.11 69.1522H163.516C164.341 70.3559 164.975 71.6745 165.416 73.108C165.863 74.5371 166.086 76.1036 166.086 77.8076Z" fill="#F8F8F8"/>
<path d="M159.721 81.7567L159.613 82.487C159.536 83.0009 159.419 83.5509 159.261 84.1369C159.108 84.7229 158.948 85.2752 158.781 85.7936C158.614 86.312 158.477 86.7245 158.369 87.0311H157.152C157.21 86.7425 157.287 86.3616 157.381 85.8883C157.476 85.4149 157.571 84.8852 157.665 84.2992C157.765 83.7177 157.846 83.1226 157.909 82.514L157.99 81.7567H159.721ZM158.747 76.0495C158.414 76.0495 158.128 75.93 157.889 75.6911C157.65 75.4522 157.53 75.1659 157.53 74.8323C157.53 74.4987 157.65 74.2125 157.889 73.9736C158.128 73.7346 158.414 73.6152 158.747 73.6152C159.081 73.6152 159.367 73.7346 159.606 73.9736C159.845 74.2125 159.965 74.4987 159.965 74.8323C159.965 75.0532 159.908 75.2561 159.796 75.4409C159.687 75.6258 159.541 75.7745 159.356 75.8872C159.176 75.9954 158.973 76.0495 158.747 76.0495Z" fill="#F8F8F8"/>
<path d="M142.414 87.545C142.143 87.545 141.902 87.5224 141.69 87.4774C141.478 87.4368 141.332 87.3962 141.251 87.3556L141.657 85.9491C142.044 86.0483 142.387 86.0844 142.684 86.0573C142.982 86.0303 143.246 85.8973 143.475 85.6584C143.71 85.4239 143.924 85.043 144.118 84.5156L144.415 83.7041L140.575 73.2635H142.306L145.173 81.5403H145.281L148.148 73.2635H149.879L145.47 85.1647C145.272 85.7012 145.026 86.1452 144.733 86.4969C144.44 86.853 144.1 87.1167 143.712 87.288C143.329 87.4593 142.896 87.545 142.414 87.545Z" fill="#F8F8F8"/>
<path d="M134.085 83.8935C133.426 83.8935 132.829 83.7695 132.293 83.5216C131.756 83.2691 131.33 82.9062 131.015 82.4329C130.699 81.955 130.541 81.378 130.541 80.7018C130.541 80.1067 130.658 79.6244 130.893 79.2547C131.127 78.8805 131.441 78.5875 131.833 78.3756C132.225 78.1638 132.658 78.006 133.131 77.9023C133.609 77.7941 134.089 77.7085 134.571 77.6453C135.203 77.5642 135.714 77.5033 136.106 77.4628C136.503 77.4177 136.792 77.3433 136.972 77.2396C137.157 77.1359 137.249 76.9556 137.249 76.6987V76.6446C137.249 75.9774 137.067 75.459 136.701 75.0893C136.341 74.7196 135.793 74.5348 135.058 74.5348C134.296 74.5348 133.699 74.7016 133.266 75.0352C132.834 75.3688 132.529 75.7249 132.353 76.1036L130.839 75.5626C131.109 74.9315 131.47 74.4401 131.921 74.0885C132.376 73.7324 132.872 73.4844 133.408 73.3447C133.949 73.2004 134.481 73.1283 135.004 73.1283C135.338 73.1283 135.721 73.1689 136.154 73.25C136.591 73.3267 137.013 73.4867 137.418 73.7301C137.828 73.9736 138.169 74.341 138.439 74.8323C138.71 75.3237 138.845 75.9819 138.845 76.8069V83.65H137.249V82.2435H137.168C137.06 82.4689 136.88 82.7101 136.627 82.9671C136.375 83.224 136.039 83.4427 135.62 83.623C135.2 83.8033 134.689 83.8935 134.085 83.8935ZM134.328 82.4599C134.959 82.4599 135.491 82.3359 135.924 82.088C136.361 81.8401 136.69 81.52 136.911 81.1278C137.136 80.7356 137.249 80.3231 137.249 79.8903V78.4297C137.182 78.5109 137.033 78.5853 136.803 78.6529C136.578 78.716 136.316 78.7723 136.019 78.8219C135.725 78.867 135.439 78.9076 135.16 78.9437C134.885 78.9752 134.662 79.0023 134.49 79.0248C134.076 79.0789 133.688 79.1668 133.327 79.2885C132.971 79.4057 132.683 79.5838 132.462 79.8227C132.245 80.0571 132.137 80.3772 132.137 80.7829C132.137 81.3374 132.342 81.7567 132.752 82.0407C133.167 82.3202 133.692 82.4599 134.328 82.4599Z" fill="#F8F8F8"/>
<path d="M123.123 83.8664C122.258 83.8664 121.494 83.6478 120.831 83.2105C120.168 82.7687 119.65 82.1466 119.276 81.3442C118.902 80.5372 118.714 79.5838 118.714 78.4838C118.714 77.3929 118.902 76.4462 119.276 75.6438C119.65 74.8413 120.171 74.2215 120.838 73.7842C121.505 73.3469 122.276 73.1283 123.15 73.1283C123.827 73.1283 124.361 73.241 124.753 73.4664C125.15 73.6873 125.452 73.9397 125.659 74.2238C125.871 74.5032 126.035 74.7332 126.153 74.9135H126.288V69.8014H127.884V83.65H126.342V82.0542H126.153C126.035 82.2435 125.869 82.4825 125.652 82.771C125.436 83.055 125.127 83.3097 124.726 83.5351C124.325 83.756 123.79 83.8664 123.123 83.8664ZM123.34 82.4329C123.98 82.4329 124.521 82.2661 124.963 81.9325C125.404 81.5944 125.74 81.1278 125.97 80.5327C126.2 79.9332 126.315 79.2412 126.315 78.4568C126.315 77.6814 126.202 77.0029 125.977 76.4214C125.751 75.8354 125.418 75.3801 124.976 75.0555C124.534 74.7264 123.989 74.5619 123.34 74.5619C122.663 74.5619 122.1 74.7354 121.649 75.0825C121.203 75.4251 120.867 75.8917 120.642 76.4823C120.421 77.0683 120.31 77.7265 120.31 78.4568C120.31 79.1961 120.423 79.8678 120.648 80.4719C120.878 81.0714 121.216 81.5493 121.663 81.9054C122.113 82.2571 122.672 82.4329 123.34 82.4329Z" fill="#F8F8F8"/>
<path d="M105.941 83.8664C105.075 83.8664 104.311 83.6478 103.649 83.2105C102.986 82.7687 102.468 82.1466 102.093 81.3442C101.719 80.5372 101.532 79.5838 101.532 78.4838C101.532 77.3929 101.719 76.4462 102.093 75.6438C102.468 74.8413 102.988 74.2215 103.655 73.7842C104.323 73.3469 105.093 73.1283 105.968 73.1283C106.644 73.1283 107.178 73.241 107.571 73.4664C107.967 73.6873 108.269 73.9397 108.477 74.2238C108.689 74.5032 108.853 74.7332 108.97 74.9135H109.106V69.8014H110.701V83.65H109.16V82.0542H108.97C108.853 82.2435 108.686 82.4825 108.47 82.771C108.254 83.055 107.945 83.3097 107.544 83.5351C107.142 83.756 106.608 83.8664 105.941 83.8664ZM106.157 82.4329C106.797 82.4329 107.338 82.2661 107.78 81.9325C108.222 81.5944 108.558 81.1278 108.788 80.5327C109.018 79.9332 109.133 79.2412 109.133 78.4568C109.133 77.6814 109.02 77.0029 108.795 76.4214C108.569 75.8354 108.236 75.3801 107.794 75.0555C107.352 74.7264 106.806 74.5619 106.157 74.5619C105.481 74.5619 104.918 74.7354 104.467 75.0825C104.021 75.4251 103.685 75.8917 103.459 76.4823C103.238 77.0683 103.128 77.7265 103.128 78.4568C103.128 79.1961 103.241 79.8678 103.466 80.4719C103.696 81.0714 104.034 81.5493 104.48 81.9054C104.931 82.2571 105.49 82.4329 106.157 82.4329Z" fill="#F8F8F8"/>
<path d="M94.8765 83.8664C93.9389 83.8664 93.1162 83.6433 92.4084 83.197C91.7051 82.7507 91.1552 82.1263 90.7585 81.3239C90.3663 80.5215 90.1702 79.5838 90.1702 78.5109C90.1702 77.429 90.3663 76.4845 90.7585 75.6776C91.1552 74.8707 91.7051 74.244 92.4084 73.7977C93.1162 73.3514 93.9389 73.1283 94.8765 73.1283C95.8142 73.1283 96.6347 73.3514 97.3379 73.7977C98.0457 74.244 98.5957 74.8707 98.9879 75.6776C99.3846 76.4845 99.5829 77.429 99.5829 78.5109C99.5829 79.5838 99.3846 80.5215 98.9879 81.3239C98.5957 82.1263 98.0457 82.7507 97.3379 83.197C96.6347 83.6433 95.8142 83.8664 94.8765 83.8664ZM94.8765 82.4329C95.5888 82.4329 96.1749 82.2503 96.6347 81.8851C97.0945 81.52 97.4349 81.0399 97.6557 80.4448C97.8766 79.8498 97.9871 79.2051 97.9871 78.5109C97.9871 77.8167 97.8766 77.1697 97.6557 76.5702C97.4349 75.9706 97.0945 75.486 96.6347 75.1163C96.1749 74.7467 95.5888 74.5619 94.8765 74.5619C94.1643 74.5619 93.5782 74.7467 93.1184 75.1163C92.6586 75.486 92.3182 75.9706 92.0973 76.5702C91.8765 77.1697 91.766 77.8167 91.766 78.5109C91.766 79.2051 91.8765 79.8498 92.0973 80.4448C92.3182 81.0399 92.6586 81.52 93.1184 81.8851C93.5782 82.2503 94.1643 82.4329 94.8765 82.4329Z" fill="#F8F8F8"/>
<path d="M83.5146 83.8664C82.5769 83.8664 81.7542 83.6433 81.0465 83.197C80.3432 82.7507 79.7932 82.1263 79.3965 81.3239C79.0043 80.5215 78.8082 79.5838 78.8082 78.5109C78.8082 77.429 79.0043 76.4845 79.3965 75.6776C79.7932 74.8707 80.3432 74.244 81.0465 73.7977C81.7542 73.3514 82.5769 73.1283 83.5146 73.1283C84.4523 73.1283 85.2728 73.3514 85.976 73.7977C86.6838 74.244 87.2337 74.8707 87.6259 75.6776C88.0227 76.4845 88.221 77.429 88.221 78.5109C88.221 79.5838 88.0227 80.5215 87.6259 81.3239C87.2337 82.1263 86.6838 82.7507 85.976 83.197C85.2728 83.6433 84.4523 83.8664 83.5146 83.8664ZM83.5146 82.4329C84.2269 82.4329 84.8129 82.2503 85.2728 81.8851C85.7326 81.52 86.0729 81.0399 86.2938 80.4448C86.5147 79.8498 86.6252 79.2051 86.6252 78.5109C86.6252 77.8167 86.5147 77.1697 86.2938 76.5702C86.0729 75.9706 85.7326 75.486 85.2728 75.1163C84.8129 74.7467 84.2269 74.5619 83.5146 74.5619C82.8023 74.5619 82.2163 74.7467 81.7565 75.1163C81.2967 75.486 80.9563 75.9706 80.7354 76.5702C80.5145 77.1697 80.4041 77.8167 80.4041 78.5109C80.4041 79.2051 80.5145 79.8498 80.7354 80.4448C80.9563 81.0399 81.2967 81.52 81.7565 81.8851C82.2163 82.2503 82.8023 82.4329 83.5146 82.4329Z" fill="#F8F8F8"/>
<path d="M71.8839 87.7614C71.113 87.7614 70.4504 87.6622 69.8959 87.4638C69.3414 87.27 68.8793 87.013 68.5096 86.693C68.1445 86.3774 67.8537 86.0393 67.6373 85.6787L68.9086 84.7861C69.0529 84.9754 69.2354 85.1918 69.4563 85.4352C69.6772 85.6832 69.9793 85.8973 70.3624 86.0776C70.7501 86.2624 71.2573 86.3549 71.8839 86.3549C72.7224 86.3549 73.4144 86.152 73.9599 85.7463C74.5053 85.3406 74.7781 84.7049 74.7781 83.8394V81.7296H74.6428C74.5256 81.919 74.3588 82.1534 74.1424 82.4329C73.9305 82.7079 73.624 82.9535 73.2228 83.1699C72.8261 83.3818 72.2896 83.4877 71.6134 83.4877C70.7749 83.4877 70.0221 83.2894 69.3549 82.8927C68.6922 82.496 68.167 81.919 67.7793 81.1616C67.3962 80.4043 67.2046 79.4846 67.2046 78.4027C67.2046 77.3388 67.3917 76.4124 67.7658 75.6235C68.14 74.8301 68.6607 74.217 69.3279 73.7842C69.995 73.3469 70.7659 73.1283 71.6405 73.1283C72.3167 73.1283 72.8531 73.241 73.2498 73.4664C73.651 73.6873 73.9576 73.9397 74.1695 74.2238C74.3859 74.5032 74.5527 74.7332 74.6699 74.9135H74.8322V73.2635H76.3739V83.9476C76.3739 84.8402 76.171 85.566 75.7653 86.1249C75.3641 86.6885 74.8231 87.1009 74.1424 87.3624C73.4662 87.6284 72.7134 87.7614 71.8839 87.7614ZM71.8298 82.0542C72.4699 82.0542 73.0109 81.9077 73.4527 81.6147C73.8945 81.3216 74.2303 80.9001 74.4602 80.3502C74.6902 79.8002 74.8051 79.142 74.8051 78.3756C74.8051 77.6273 74.6924 76.9669 74.467 76.3944C74.2416 75.8218 73.908 75.3733 73.4662 75.0487C73.0244 74.7241 72.479 74.5619 71.8298 74.5619C71.1536 74.5619 70.5901 74.7332 70.1393 75.0758C69.693 75.4184 69.3572 75.8782 69.1318 76.4552C68.9109 77.0323 68.8004 77.6724 68.8004 78.3756C68.8004 79.0969 68.9131 79.7348 69.1385 80.2893C69.3684 80.8393 69.7065 81.2721 70.1528 81.5876C70.6036 81.8987 71.1626 82.0542 71.8298 82.0542Z" fill="#F8F8F8"/>
<path d="M54.6627 83.8935C54.0045 83.8935 53.4072 83.7695 52.8707 83.5216C52.3343 83.2691 51.9083 82.9062 51.5927 82.4329C51.2771 81.955 51.1194 81.378 51.1194 80.7018C51.1194 80.1067 51.2366 79.6244 51.471 79.2547C51.7054 78.8805 52.0187 78.5875 52.4109 78.3756C52.8031 78.1638 53.2359 78.006 53.7092 77.9023C54.1871 77.7941 54.6672 77.7085 55.1495 77.6453C55.7807 77.5642 56.2923 77.5033 56.6845 77.4628C57.0812 77.4177 57.3697 77.3433 57.5501 77.2396C57.7349 77.1359 57.8273 76.9556 57.8273 76.6987V76.6446C57.8273 75.9774 57.6447 75.459 57.2796 75.0893C56.9189 74.7196 56.3712 74.5348 55.6364 74.5348C54.8745 74.5348 54.2772 74.7016 53.8445 75.0352C53.4117 75.3688 53.1074 75.7249 52.9316 76.1036L51.4169 75.5626C51.6874 74.9315 52.048 74.4401 52.4988 74.0885C52.9541 73.7324 53.45 73.4844 53.9865 73.3447C54.5274 73.2004 55.0594 73.1283 55.5823 73.1283C55.9159 73.1283 56.2991 73.1689 56.7319 73.25C57.1691 73.3267 57.5906 73.4867 57.9964 73.7301C58.4066 73.9736 58.7469 74.341 59.0174 74.8323C59.2879 75.3237 59.4231 75.9819 59.4231 76.8069V83.65H57.8273V82.2435H57.7462C57.638 82.4689 57.4576 82.7101 57.2052 82.9671C56.9527 83.224 56.6169 83.4427 56.1977 83.623C55.7784 83.8033 55.2667 83.8935 54.6627 83.8935ZM54.9061 82.4599C55.5372 82.4599 56.0692 82.3359 56.5019 82.088C56.9392 81.8401 57.2683 81.52 57.4892 81.1278C57.7146 80.7356 57.8273 80.3231 57.8273 79.8903V78.4297C57.7597 78.5109 57.6109 78.5853 57.381 78.6529C57.1556 78.716 56.8941 78.7723 56.5966 78.8219C56.3036 78.867 56.0173 78.9076 55.7378 78.9437C55.4628 78.9752 55.2397 79.0023 55.0684 79.0248C54.6537 79.0789 54.266 79.1668 53.9053 79.2885C53.5492 79.4057 53.2607 79.5838 53.0398 79.8227C52.8234 80.0571 52.7152 80.3772 52.7152 80.7829C52.7152 81.3374 52.9203 81.7567 53.3305 82.0407C53.7453 82.3202 54.2705 82.4599 54.9061 82.4599Z" fill="#F8F8F8"/>
<path d="M39.5225 83.8664C38.5217 83.8664 37.6584 83.6455 36.9326 83.2037C36.2113 82.7574 35.6546 82.1353 35.2624 81.3374C34.8747 80.535 34.6808 79.6018 34.6808 78.5379C34.6808 77.474 34.8747 76.5364 35.2624 75.7249C35.6546 74.909 36.2 74.2733 36.8988 73.818C37.602 73.3582 38.4225 73.1283 39.3602 73.1283C39.9011 73.1283 40.4353 73.2185 40.9628 73.3988C41.4902 73.5791 41.9703 73.8721 42.4031 74.2778C42.8359 74.6791 43.1807 75.211 43.4377 75.8737C43.6946 76.5364 43.8231 77.3523 43.8231 78.3215V78.9978H35.8169V77.6183H42.2002C42.2002 77.0323 42.083 76.5093 41.8486 76.0495C41.6187 75.5897 41.2896 75.2268 40.8613 74.9608C40.4376 74.6948 39.9372 74.5619 39.3602 74.5619C38.7245 74.5619 38.1746 74.7196 37.7102 75.0352C37.2504 75.3463 36.8965 75.752 36.6486 76.2524C36.4006 76.7528 36.2767 77.2892 36.2767 77.8617V78.7814C36.2767 79.5658 36.4119 80.2307 36.6824 80.7762C36.9574 81.3171 37.3383 81.7296 37.8252 82.0136C38.312 82.2931 38.8778 82.4329 39.5225 82.4329C39.9417 82.4329 40.3204 82.3743 40.6585 82.2571C41.0011 82.1353 41.2964 81.955 41.5443 81.7161C41.7922 81.4727 41.9838 81.1706 42.1191 80.81L43.6608 81.2428C43.4985 81.7657 43.2258 82.2255 42.8426 82.6222C42.4594 83.0144 41.9861 83.321 41.4226 83.5418C40.8591 83.7582 40.2257 83.8664 39.5225 83.8664Z" fill="#F8F8F8"/>
<path d="M33.4334 73.2635L29.5925 83.65H27.9696L24.1288 73.2635H25.8599L28.727 81.5403H28.8352L31.7023 73.2635H33.4334Z" fill="#F8F8F8"/>
<path d="M17.6388 83.8935C16.9806 83.8935 16.3833 83.7695 15.8468 83.5216C15.3104 83.2691 14.8844 82.9062 14.5688 82.4329C14.2533 81.955 14.0955 81.378 14.0955 80.7018C14.0955 80.1067 14.2127 79.6244 14.4471 79.2547C14.6815 78.8805 14.9948 78.5875 15.387 78.3756C15.7792 78.1638 16.212 78.006 16.6853 77.9023C17.1632 77.7941 17.6433 77.7085 18.1257 77.6453C18.7568 77.5642 19.2684 77.5033 19.6606 77.4628C20.0573 77.4177 20.3459 77.3433 20.5262 77.2396C20.711 77.1359 20.8034 76.9556 20.8034 76.6987V76.6446C20.8034 75.9774 20.6209 75.459 20.2557 75.0893C19.8951 74.7196 19.3473 74.5348 18.6125 74.5348C17.8507 74.5348 17.2534 74.7016 16.8206 75.0352C16.3878 75.3688 16.0835 75.7249 15.9077 76.1036L14.393 75.5626C14.6635 74.9315 15.0241 74.4401 15.4749 74.0885C15.9302 73.7324 16.4261 73.4844 16.9626 73.3447C17.5035 73.2004 18.0355 73.1283 18.5584 73.1283C18.892 73.1283 19.2752 73.1689 19.708 73.25C20.1453 73.3267 20.5668 73.4867 20.9725 73.7301C21.3827 73.9736 21.7231 74.341 21.9935 74.8323C22.264 75.3237 22.3993 75.9819 22.3993 76.8069V83.65H20.8034V82.2435H20.7223C20.6141 82.4689 20.4338 82.7101 20.1813 82.9671C19.9289 83.224 19.593 83.4427 19.1738 83.623C18.7545 83.8033 18.2429 83.8935 17.6388 83.8935ZM17.8822 82.4599C18.5133 82.4599 19.0453 82.3359 19.4781 82.088C19.9153 81.8401 20.2444 81.52 20.4653 81.1278C20.6907 80.7356 20.8034 80.3231 20.8034 79.8903V78.4297C20.7358 78.5109 20.587 78.5853 20.3571 78.6529C20.1317 78.716 19.8703 78.7723 19.5727 78.8219C19.2797 78.867 18.9935 78.9076 18.714 78.9437C18.439 78.9752 18.2158 79.0023 18.0445 79.0248C17.6298 79.0789 17.2421 79.1668 16.8814 79.2885C16.5253 79.4057 16.2368 79.5838 16.0159 79.8227C15.7995 80.0571 15.6913 80.3772 15.6913 80.7829C15.6913 81.3374 15.8964 81.7567 16.3067 82.0407C16.7214 82.3202 17.2466 82.4599 17.8822 82.4599Z" fill="#F8F8F8"/>
<path d="M0.703208 83.65V69.8014H2.38019V75.9684H9.76435V69.8014H11.4413V83.65H9.76435V77.456H2.38019V83.65H0.703208Z" fill="#F8F8F8"/>
<path d="M299.486 37.5486V27.1621H301.028V28.7309H301.136C301.325 28.2169 301.668 27.8 302.164 27.4799C302.66 27.1598 303.219 26.9998 303.841 26.9998C303.958 26.9998 304.104 27.002 304.28 27.0065C304.456 27.011 304.589 27.0178 304.679 27.0268V28.6497C304.625 28.6362 304.501 28.6159 304.307 28.5889C304.118 28.5573 303.917 28.5415 303.705 28.5415C303.2 28.5415 302.75 28.6475 302.353 28.8593C301.961 29.0667 301.65 29.3552 301.42 29.7249C301.194 30.09 301.082 30.507 301.082 30.9759V37.5486H299.486Z" fill="#F8F8F8"/>
<path d="M292.758 37.7649C291.757 37.7649 290.894 37.5441 290.168 37.1023C289.446 36.656 288.89 36.0339 288.498 35.2359C288.11 34.4335 287.916 33.5003 287.916 32.4365C287.916 31.3726 288.11 30.4349 288.498 29.6234C288.89 28.8075 289.435 28.1719 290.134 27.7165C290.837 27.2567 291.658 27.0268 292.595 27.0268C293.136 27.0268 293.67 27.117 294.198 27.2973C294.725 27.4776 295.205 27.7706 295.638 28.1764C296.071 28.5776 296.416 29.1095 296.673 29.7722C296.93 30.4349 297.058 31.2508 297.058 32.2201V32.8963H289.052V31.5168H295.435C295.435 30.9308 295.318 30.4078 295.084 29.948C294.854 29.4882 294.525 29.1253 294.096 28.8593C293.673 28.5934 293.172 28.4604 292.595 28.4604C291.96 28.4604 291.41 28.6182 290.945 28.9337C290.486 29.2448 290.132 29.6505 289.884 30.1509C289.636 30.6513 289.512 31.1877 289.512 31.7602V32.6799C289.512 33.4643 289.647 34.1292 289.918 34.6747C290.193 35.2157 290.573 35.6281 291.06 35.9121C291.547 36.1916 292.113 36.3314 292.758 36.3314C293.177 36.3314 293.556 36.2728 293.894 36.1556C294.236 36.0339 294.532 35.8535 294.779 35.6146C295.027 35.3712 295.219 35.0691 295.354 34.7085L296.896 35.1413C296.734 35.6642 296.461 36.124 296.078 36.5207C295.695 36.9129 295.221 37.2195 294.658 37.4404C294.094 37.6568 293.461 37.7649 292.758 37.7649Z" fill="#F8F8F8"/>
<path d="M278.748 31.3004V37.5486H277.153V23.6999H278.748V28.785H278.884C279.127 28.2485 279.492 27.8225 279.979 27.5069C280.47 27.1869 281.124 27.0268 281.94 27.0268C282.648 27.0268 283.268 27.1688 283.8 27.4528C284.332 27.7323 284.744 28.1628 285.037 28.7444C285.335 29.3214 285.483 30.0562 285.483 30.9488V37.5486H283.888V31.057C283.888 30.232 283.673 29.5941 283.245 29.1433C282.821 28.688 282.233 28.4604 281.48 28.4604C280.957 28.4604 280.488 28.5708 280.074 28.7917C279.664 29.0126 279.339 29.3349 279.1 29.7587C278.866 30.1824 278.748 30.6964 278.748 31.3004Z" fill="#F8F8F8"/>
<path d="M274.529 27.1621V28.5145H269.146V27.1621H274.529ZM270.715 24.6736H272.311V34.5733C272.311 35.0241 272.376 35.3622 272.507 35.5876C272.642 35.8085 272.813 35.9572 273.021 36.0339C273.233 36.106 273.456 36.1421 273.69 36.1421C273.866 36.1421 274.01 36.133 274.123 36.115C274.236 36.0925 274.326 36.0744 274.394 36.0609L274.718 37.4945C274.61 37.535 274.459 37.5756 274.265 37.6162C274.071 37.6613 273.825 37.6838 273.528 37.6838C273.077 37.6838 272.635 37.5869 272.203 37.393C271.774 37.1992 271.418 36.9039 271.134 36.5072C270.855 36.1105 270.715 35.6101 270.715 35.006V24.6736Z" fill="#F8F8F8"/>
<path d="M262.869 37.7649C261.932 37.7649 261.109 37.5418 260.401 37.0955C259.698 36.6492 259.148 36.0248 258.751 35.2224C258.359 34.42 258.163 33.4823 258.163 32.4094C258.163 31.3275 258.359 30.383 258.751 29.5761C259.148 28.7692 259.698 28.1426 260.401 27.6963C261.109 27.25 261.932 27.0268 262.869 27.0268C263.807 27.0268 264.627 27.25 265.331 27.6963C266.039 28.1426 266.589 28.7692 266.981 29.5761C267.377 30.383 267.576 31.3275 267.576 32.4094C267.576 33.4823 267.377 34.42 266.981 35.2224C266.589 36.0248 266.039 36.6492 265.331 37.0955C264.627 37.5418 263.807 37.7649 262.869 37.7649ZM262.869 36.3314C263.582 36.3314 264.168 36.1488 264.628 35.7837C265.087 35.4185 265.428 34.9384 265.649 34.3434C265.869 33.7483 265.98 33.1036 265.98 32.4094C265.98 31.7152 265.869 31.0683 265.649 30.4687C265.428 29.8691 265.087 29.3845 264.628 29.0149C264.168 28.6452 263.582 28.4604 262.869 28.4604C262.157 28.4604 261.571 28.6452 261.111 29.0149C260.651 29.3845 260.311 29.8691 260.09 30.4687C259.869 31.0683 259.759 31.7152 259.759 32.4094C259.759 33.1036 259.869 33.7483 260.09 34.3434C260.311 34.9384 260.651 35.4185 261.111 35.7837C261.571 36.1488 262.157 36.3314 262.869 36.3314Z" fill="#F8F8F8"/>
<path d="M243.64 31.3004V37.5486H242.044V23.6999H243.64V28.785H243.775C244.019 28.2485 244.384 27.8225 244.871 27.5069C245.362 27.1869 246.016 27.0268 246.832 27.0268C247.539 27.0268 248.159 27.1688 248.691 27.4528C249.223 27.7323 249.636 28.1628 249.929 28.7444C250.226 29.3214 250.375 30.0562 250.375 30.9488V37.5486H248.779V31.057C248.779 30.232 248.565 29.5941 248.137 29.1433C247.713 28.688 247.125 28.4604 246.372 28.4604C245.849 28.4604 245.38 28.5708 244.965 28.7917C244.555 29.0126 244.23 29.3349 243.991 29.7587C243.757 30.1824 243.64 30.6964 243.64 31.3004Z" fill="#F8F8F8"/>
<path d="M235.627 37.7649C234.653 37.7649 233.815 37.535 233.111 37.0752C232.408 36.6154 231.867 35.982 231.488 35.1751C231.11 34.3681 230.92 33.4463 230.92 32.4094C230.92 31.3545 231.114 30.4236 231.502 29.6167C231.894 28.8052 232.44 28.1719 233.138 27.7165C233.842 27.2567 234.662 27.0268 235.6 27.0268C236.33 27.0268 236.988 27.1621 237.574 27.4325C238.16 27.703 238.64 28.0817 239.015 28.5686C239.389 29.0554 239.621 29.6234 239.711 30.2726H238.115C237.994 29.7993 237.723 29.38 237.304 29.0149C236.889 28.6452 236.33 28.4604 235.627 28.4604C235.005 28.4604 234.459 28.6227 233.99 28.9472C233.526 29.2673 233.163 29.7204 232.902 30.3064C232.645 30.8879 232.516 31.5709 232.516 32.3553C232.516 33.1577 232.642 33.8565 232.895 34.4515C233.152 35.0466 233.513 35.5087 233.977 35.8378C234.446 36.1668 234.996 36.3314 235.627 36.3314C236.042 36.3314 236.418 36.2593 236.756 36.115C237.094 35.9708 237.38 35.7634 237.615 35.4929C237.849 35.2224 238.016 34.8978 238.115 34.5192H239.711C239.621 35.1323 239.398 35.6845 239.042 36.1759C238.69 36.6627 238.223 37.0504 237.642 37.3389C237.065 37.6229 236.393 37.7649 235.627 37.7649Z" fill="#F8F8F8"/>
<path d="M223.734 37.792C223.076 37.792 222.479 37.668 221.942 37.4201C221.406 37.1676 220.98 36.8047 220.664 36.3314C220.349 35.8535 220.191 35.2765 220.191 34.6003C220.191 34.0053 220.308 33.5229 220.542 33.1532C220.777 32.7791 221.09 32.486 221.482 32.2742C221.874 32.0623 222.307 31.9045 222.781 31.8008C223.258 31.6926 223.739 31.607 224.221 31.5439C224.852 31.4627 225.364 31.4019 225.756 31.3613C226.153 31.3162 226.441 31.2418 226.621 31.1381C226.806 31.0345 226.899 30.8541 226.899 30.5972V30.5431C226.899 29.8759 226.716 29.3575 226.351 28.9878C225.99 28.6182 225.443 28.4333 224.708 28.4333C223.946 28.4333 223.349 28.6001 222.916 28.9337C222.483 29.2673 222.179 29.6234 222.003 30.0021L220.488 29.4612C220.759 28.83 221.119 28.3387 221.57 27.987C222.025 27.6309 222.521 27.383 223.058 27.2432C223.599 27.0989 224.131 27.0268 224.654 27.0268C224.987 27.0268 225.37 27.0674 225.803 27.1485C226.241 27.2252 226.662 27.3852 227.068 27.6286C227.478 27.8721 227.818 28.2395 228.089 28.7309C228.359 29.2222 228.495 29.8804 228.495 30.7054V37.5486H226.899V36.1421H226.818C226.709 36.3675 226.529 36.6086 226.277 36.8656C226.024 37.1226 225.688 37.3412 225.269 37.5215C224.85 37.7018 224.338 37.792 223.734 37.792ZM223.977 36.3584C224.609 36.3584 225.141 36.2345 225.573 35.9865C226.011 35.7386 226.34 35.4185 226.561 35.0263C226.786 34.6341 226.899 34.2216 226.899 33.7889V32.3283C226.831 32.4094 226.682 32.4838 226.452 32.5514C226.227 32.6145 225.966 32.6709 225.668 32.7205C225.375 32.7655 225.089 32.8061 224.809 32.8422C224.534 32.8737 224.311 32.9008 224.14 32.9233C223.725 32.9774 223.337 33.0653 222.977 33.187C222.621 33.3043 222.332 33.4823 222.111 33.7212C221.895 33.9557 221.787 34.2757 221.787 34.6815C221.787 35.2359 221.992 35.6552 222.402 35.9392C222.817 36.2187 223.342 36.3584 223.977 36.3584Z" fill="#F8F8F8"/>
<path d="M213.949 37.7649C212.949 37.7649 212.085 37.5441 211.36 37.1023C210.638 36.656 210.081 36.0339 209.689 35.2359C209.302 34.4335 209.108 33.5003 209.108 32.4365C209.108 31.3726 209.302 30.4349 209.689 29.6234C210.081 28.8075 210.627 28.1719 211.326 27.7165C212.029 27.2567 212.849 27.0268 213.787 27.0268C214.328 27.0268 214.862 27.117 215.39 27.2973C215.917 27.4776 216.397 27.7706 216.83 28.1764C217.263 28.5776 217.608 29.1095 217.865 29.7722C218.122 30.4349 218.25 31.2508 218.25 32.2201V32.8963H210.244V31.5168H216.627C216.627 30.9308 216.51 30.4078 216.276 29.948C216.046 29.4882 215.717 29.1253 215.288 28.8593C214.864 28.5934 214.364 28.4604 213.787 28.4604C213.151 28.4604 212.601 28.6182 212.137 28.9337C211.677 29.2448 211.323 29.6505 211.075 30.1509C210.828 30.6513 210.704 31.1877 210.704 31.7602V32.6799C210.704 33.4643 210.839 34.1292 211.109 34.6747C211.384 35.2157 211.765 35.6281 212.252 35.9121C212.739 36.1916 213.305 36.3314 213.949 36.3314C214.369 36.3314 214.747 36.2728 215.085 36.1556C215.428 36.0339 215.723 35.8535 215.971 35.6146C216.219 35.3712 216.411 35.0691 216.546 34.7085L218.088 35.1413C217.925 35.6642 217.653 36.124 217.27 36.5207C216.886 36.9129 216.413 37.2195 215.849 37.4404C215.286 37.6568 214.653 37.7649 213.949 37.7649Z" fill="#F8F8F8"/>
<path d="M201.838 27.1621V28.5145H196.456V27.1621H201.838ZM198.025 24.6736H199.621V34.5733C199.621 35.0241 199.686 35.3622 199.817 35.5876C199.952 35.8085 200.123 35.9572 200.331 36.0339C200.542 36.106 200.766 36.1421 201 36.1421C201.176 36.1421 201.32 36.133 201.433 36.115C201.545 36.0925 201.636 36.0744 201.703 36.0609L202.028 37.4945C201.92 37.535 201.769 37.5756 201.575 37.6162C201.381 37.6613 201.135 37.6838 200.838 37.6838C200.387 37.6838 199.945 37.5869 199.512 37.393C199.084 37.1992 198.728 36.9039 198.444 36.5072C198.164 36.1105 198.025 35.6101 198.025 35.006V24.6736Z" fill="#F8F8F8"/>
<path d="M190.904 37.7649C189.931 37.7649 189.092 37.535 188.389 37.0752C187.686 36.6154 187.145 35.982 186.766 35.1751C186.387 34.3681 186.198 33.4463 186.198 32.4094C186.198 31.3545 186.392 30.4236 186.779 29.6167C187.172 28.8052 187.717 28.1719 188.416 27.7165C189.119 27.2567 189.94 27.0268 190.877 27.0268C191.608 27.0268 192.266 27.1621 192.852 27.4325C193.438 27.703 193.918 28.0817 194.292 28.5686C194.666 29.0554 194.898 29.6234 194.989 30.2726H193.393C193.271 29.7993 193.001 29.38 192.581 29.0149C192.167 28.6452 191.608 28.4604 190.904 28.4604C190.282 28.4604 189.737 28.6227 189.268 28.9472C188.804 29.2673 188.441 29.7204 188.179 30.3064C187.922 30.8879 187.794 31.5709 187.794 32.3553C187.794 33.1577 187.92 33.8565 188.172 34.4515C188.429 35.0466 188.79 35.5087 189.254 35.8378C189.723 36.1668 190.273 36.3314 190.904 36.3314C191.319 36.3314 191.695 36.2593 192.034 36.115C192.372 35.9708 192.658 35.7634 192.892 35.4929C193.127 35.2224 193.294 34.8978 193.393 34.5192H194.989C194.898 35.1323 194.675 35.6845 194.319 36.1759C193.968 36.6627 193.501 37.0504 192.919 37.3389C192.342 37.6229 191.671 37.7649 190.904 37.7649Z" fill="#F8F8F8"/>
<path d="M179.957 37.7649C178.956 37.7649 178.093 37.5441 177.367 37.1023C176.645 36.656 176.089 36.0339 175.696 35.2359C175.309 34.4335 175.115 33.5003 175.115 32.4365C175.115 31.3726 175.309 30.4349 175.696 29.6234C176.089 28.8075 176.634 28.1719 177.333 27.7165C178.036 27.2567 178.857 27.0268 179.794 27.0268C180.335 27.0268 180.869 27.117 181.397 27.2973C181.924 27.4776 182.404 27.7706 182.837 28.1764C183.27 28.5776 183.615 29.1095 183.872 29.7722C184.129 30.4349 184.257 31.2508 184.257 32.2201V32.8963H176.251V31.5168H182.634C182.634 30.9308 182.517 30.4078 182.283 29.948C182.053 29.4882 181.724 29.1253 181.295 28.8593C180.872 28.5934 180.371 28.4604 179.794 28.4604C179.159 28.4604 178.609 28.6182 178.144 28.9337C177.685 29.2448 177.331 29.6505 177.083 30.1509C176.835 30.6513 176.711 31.1877 176.711 31.7602V32.6799C176.711 33.4643 176.846 34.1292 177.117 34.6747C177.392 35.2157 177.772 35.6281 178.259 35.9121C178.746 36.1916 179.312 36.3314 179.957 36.3314C180.376 36.3314 180.754 36.2728 181.093 36.1556C181.435 36.0339 181.73 35.8535 181.978 35.6146C182.226 35.3712 182.418 35.0691 182.553 34.7085L184.095 35.1413C183.933 35.6642 183.66 36.124 183.277 36.5207C182.894 36.9129 182.42 37.2195 181.857 37.4404C181.293 37.6568 180.66 37.7649 179.957 37.7649Z" fill="#F8F8F8"/>
<path d="M163.998 41.4435V27.1621H165.54V28.812H165.729C165.846 28.6317 166.009 28.4018 166.216 28.1223C166.428 27.8383 166.73 27.5858 167.122 27.3649C167.519 27.1395 168.055 27.0268 168.732 27.0268C169.606 27.0268 170.377 27.2455 171.044 27.6827C171.711 28.12 172.232 28.7399 172.606 29.5423C172.98 30.3447 173.168 31.2914 173.168 32.3824C173.168 33.4823 172.98 34.4358 172.606 35.2427C172.232 36.0451 171.714 36.6672 171.051 37.109C170.388 37.5463 169.624 37.7649 168.759 37.7649C168.091 37.7649 167.557 37.6545 167.156 37.4336C166.755 37.2082 166.446 36.9535 166.23 36.6695C166.013 36.381 165.846 36.1421 165.729 35.9527H165.594V41.4435H163.998ZM165.567 32.3553C165.567 33.1397 165.682 33.8317 165.912 34.4313C166.142 35.0263 166.478 35.4929 166.919 35.831C167.361 36.1646 167.902 36.3314 168.542 36.3314C169.209 36.3314 169.766 36.1556 170.213 35.804C170.663 35.4478 171.001 34.97 171.227 34.3704C171.457 33.7663 171.572 33.0946 171.572 32.3553C171.572 31.625 171.459 30.9668 171.234 30.3808C171.013 29.7902 170.677 29.3237 170.226 28.981C169.78 28.6339 169.218 28.4604 168.542 28.4604C167.893 28.4604 167.348 28.6249 166.906 28.954C166.464 29.2786 166.131 29.7339 165.905 30.3199C165.68 30.9015 165.567 31.5799 165.567 32.3553Z" fill="#F8F8F8"/>
<path d="M161.406 29.4882L159.973 29.8939C159.883 29.655 159.75 29.4228 159.574 29.1974C159.403 28.9675 159.168 28.7782 158.871 28.6294C158.573 28.4807 158.192 28.4063 157.728 28.4063C157.092 28.4063 156.563 28.5528 156.139 28.8458C155.72 29.1343 155.51 29.5017 155.51 29.948C155.51 30.3447 155.654 30.658 155.943 30.8879C156.231 31.1179 156.682 31.3094 157.295 31.4627L158.837 31.8414C159.766 32.0668 160.458 32.4117 160.913 32.876C161.368 33.3358 161.596 33.9286 161.596 34.6544C161.596 35.2495 161.424 35.7814 161.082 36.2502C160.744 36.7191 160.27 37.0887 159.662 37.3592C159.053 37.6297 158.346 37.7649 157.539 37.7649C156.479 37.7649 155.602 37.535 154.908 37.0752C154.214 36.6154 153.774 35.9437 153.59 35.0601L155.104 34.6815C155.248 35.2405 155.521 35.6597 155.922 35.9392C156.328 36.2187 156.858 36.3584 157.512 36.3584C158.255 36.3584 158.846 36.2007 159.283 35.8851C159.725 35.565 159.946 35.1818 159.946 34.7355C159.946 34.3749 159.82 34.0729 159.567 33.8294C159.315 33.5815 158.927 33.3967 158.404 33.2749L156.673 32.8692C155.722 32.6438 155.023 32.2945 154.577 31.8211C154.135 31.3433 153.914 30.7459 153.914 30.0292C153.914 29.4431 154.079 28.9247 154.408 28.4739C154.741 28.0231 155.194 27.6692 155.767 27.4123C156.344 27.1553 156.998 27.0268 157.728 27.0268C158.756 27.0268 159.563 27.2522 160.149 27.703C160.739 28.1538 161.159 28.7489 161.406 29.4882Z" fill="#F8F8F8"/>
<path d="M147.321 37.7649C146.32 37.7649 145.457 37.5441 144.731 37.1023C144.01 36.656 143.453 36.0339 143.061 35.2359C142.673 34.4335 142.48 33.5003 142.48 32.4365C142.48 31.3726 142.673 30.4349 143.061 29.6234C143.453 28.8075 143.999 28.1719 144.698 27.7165C145.401 27.2567 146.221 27.0268 147.159 27.0268C147.7 27.0268 148.234 27.117 148.762 27.2973C149.289 27.4776 149.769 27.7706 150.202 28.1764C150.635 28.5776 150.98 29.1095 151.236 29.7722C151.493 30.4349 151.622 31.2508 151.622 32.2201V32.8963H143.616V31.5168H149.999C149.999 30.9308 149.882 30.4078 149.647 29.948C149.417 29.4882 149.088 29.1253 148.66 28.8593C148.236 28.5934 147.736 28.4604 147.159 28.4604C146.523 28.4604 145.973 28.6182 145.509 28.9337C145.049 29.2448 144.695 29.6505 144.447 30.1509C144.199 30.6513 144.075 31.1877 144.075 31.7602V32.6799C144.075 33.4643 144.211 34.1292 144.481 34.6747C144.756 35.2157 145.137 35.6281 145.624 35.9121C146.111 36.1916 146.677 36.3314 147.321 36.3314C147.741 36.3314 148.119 36.2728 148.457 36.1556C148.8 36.0339 149.095 35.8535 149.343 35.6146C149.591 35.3712 149.783 35.0691 149.918 34.7085L151.46 35.1413C151.297 35.6642 151.025 36.124 150.641 36.5207C150.258 36.9129 149.785 37.2195 149.221 37.4404C148.658 37.6568 148.025 37.7649 147.321 37.7649Z" fill="#F8F8F8"/>
<path d="M136.198 37.5486V27.1621H137.739V28.7309H137.848C138.037 28.2169 138.38 27.8 138.876 27.4799C139.371 27.1598 139.93 26.9998 140.552 26.9998C140.67 26.9998 140.816 27.002 140.992 27.0065C141.168 27.011 141.301 27.0178 141.391 27.0268V28.6497C141.337 28.6362 141.213 28.6159 141.019 28.5889C140.83 28.5573 140.629 28.5415 140.417 28.5415C139.912 28.5415 139.462 28.6475 139.065 28.8593C138.673 29.0667 138.362 29.3552 138.132 29.7249C137.906 30.09 137.794 30.507 137.794 30.9759V37.5486H136.198Z" fill="#F8F8F8"/>
<path d="M122.937 37.7649C122.072 37.7649 121.308 37.5463 120.645 37.109C119.982 36.6672 119.464 36.0451 119.09 35.2427C118.716 34.4358 118.528 33.4823 118.528 32.3824C118.528 31.2914 118.716 30.3447 119.09 29.5423C119.464 28.7399 119.985 28.12 120.652 27.6827C121.319 27.2455 122.09 27.0268 122.964 27.0268C123.641 27.0268 124.175 27.1395 124.567 27.3649C124.964 27.5858 125.266 27.8383 125.473 28.1223C125.685 28.4018 125.85 28.6317 125.967 28.812H126.102V23.6999H127.698V37.5486H126.156V35.9527H125.967C125.85 36.1421 125.683 36.381 125.466 36.6695C125.25 36.9535 124.941 37.2082 124.54 37.4336C124.139 37.6545 123.605 37.7649 122.937 37.7649ZM123.154 36.3314C123.794 36.3314 124.335 36.1646 124.777 35.831C125.218 35.4929 125.554 35.0263 125.784 34.4313C126.014 33.8317 126.129 33.1397 126.129 32.3553C126.129 31.5799 126.016 30.9015 125.791 30.3199C125.566 29.7339 125.232 29.2786 124.79 28.954C124.348 28.6249 123.803 28.4604 123.154 28.4604C122.478 28.4604 121.914 28.6339 121.463 28.981C121.017 29.3237 120.681 29.7902 120.456 30.3808C120.235 30.9668 120.124 31.625 120.124 32.3553C120.124 33.0946 120.237 33.7663 120.462 34.3704C120.692 34.97 121.03 35.4478 121.477 35.804C121.928 36.1556 122.487 36.3314 123.154 36.3314Z" fill="#F8F8F8"/>
<path d="M109.472 31.3004V37.5486H107.877V27.1621H109.418V28.785H109.554C109.797 28.2575 110.167 27.8338 110.663 27.5137C111.158 27.1891 111.799 27.0268 112.583 27.0268C113.286 27.0268 113.902 27.1711 114.429 27.4596C114.956 27.7436 115.367 28.1764 115.66 28.7579C115.953 29.3349 116.099 30.0652 116.099 30.9488V37.5486H114.503V31.057C114.503 30.241 114.292 29.6054 113.868 29.1501C113.444 28.6903 112.862 28.4604 112.123 28.4604C111.614 28.4604 111.158 28.5708 110.757 28.7917C110.361 29.0126 110.047 29.3349 109.817 29.7587C109.587 30.1824 109.472 30.6964 109.472 31.3004Z" fill="#F8F8F8"/>
<path d="M100.203 37.792C99.5452 37.792 98.9479 37.668 98.4114 37.4201C97.875 37.1676 97.4489 36.8047 97.1334 36.3314C96.8178 35.8535 96.66 35.2765 96.66 34.6003C96.66 34.0053 96.7772 33.5229 97.0117 33.1532C97.2461 32.7791 97.5594 32.486 97.9516 32.2742C98.3438 32.0623 98.7766 31.9045 99.2499 31.8008C99.7277 31.6926 100.208 31.607 100.69 31.5439C101.321 31.4627 101.833 31.4019 102.225 31.3613C102.622 31.3162 102.91 31.2418 103.091 31.1381C103.276 31.0345 103.368 30.8541 103.368 30.5972V30.5431C103.368 29.8759 103.185 29.3575 102.82 28.9878C102.46 28.6182 101.912 28.4333 101.177 28.4333C100.415 28.4333 99.8179 28.6001 99.3851 28.9337C98.9524 29.2673 98.6481 29.6234 98.4723 30.0021L96.9576 29.4612C97.228 28.83 97.5887 28.3387 98.0395 27.987C98.4948 27.6309 98.9907 27.383 99.5271 27.2432C100.068 27.0989 100.6 27.0268 101.123 27.0268C101.457 27.0268 101.84 27.0674 102.273 27.1485C102.71 27.2252 103.131 27.3852 103.537 27.6286C103.947 27.8721 104.288 28.2395 104.558 28.7309C104.829 29.2222 104.964 29.8804 104.964 30.7054V37.5486H103.368V36.1421H103.287C103.179 36.3675 102.998 36.6086 102.746 36.8656C102.493 37.1226 102.158 37.3412 101.738 37.5215C101.319 37.7018 100.807 37.792 100.203 37.792ZM100.447 36.3584C101.078 36.3584 101.61 36.2345 102.043 35.9865C102.48 35.7386 102.809 35.4185 103.03 35.0263C103.255 34.6341 103.368 34.2216 103.368 33.7889V32.3283C103.3 32.4094 103.152 32.4838 102.922 32.5514C102.696 32.6145 102.435 32.6709 102.137 32.7205C101.844 32.7655 101.558 32.8061 101.279 32.8422C101.004 32.8737 100.78 32.9008 100.609 32.9233C100.194 32.9774 99.8066 33.0653 99.446 33.187C99.0899 33.3043 98.8013 33.4823 98.5805 33.7212C98.3641 33.9557 98.2559 34.2757 98.2559 34.6815C98.2559 35.2359 98.461 35.6552 98.8712 35.9392C99.286 36.2187 99.8111 36.3584 100.447 36.3584Z" fill="#F8F8F8"/>
<path d="M89.1997 29.4882L87.7661 29.8939C87.676 29.655 87.543 29.4228 87.3672 29.1974C87.1959 28.9675 86.9614 28.7782 86.6639 28.6294C86.3664 28.4807 85.9854 28.4063 85.5211 28.4063C84.8855 28.4063 84.3558 28.5528 83.932 28.8458C83.5128 29.1343 83.3032 29.5017 83.3032 29.948C83.3032 30.3447 83.4474 30.658 83.7359 30.8879C84.0245 31.1179 84.4753 31.3094 85.0883 31.4627L86.6301 31.8414C87.5587 32.0668 88.2507 32.4117 88.706 32.876C89.1614 33.3358 89.389 33.9286 89.389 34.6544C89.389 35.2495 89.2177 35.7814 88.8751 36.2502C88.537 36.7191 88.0636 37.0887 87.4551 37.3592C86.8465 37.6297 86.1387 37.7649 85.3318 37.7649C84.2724 37.7649 83.3956 37.535 82.7013 37.0752C82.0071 36.6154 81.5676 35.9437 81.3828 35.0601L82.8974 34.6815C83.0417 35.2405 83.3144 35.6597 83.7157 35.9392C84.1214 36.2187 84.6511 36.3584 85.3047 36.3584C86.0486 36.3584 86.6391 36.2007 87.0764 35.8851C87.5182 35.565 87.7391 35.1818 87.7391 34.7355C87.7391 34.3749 87.6128 34.0729 87.3604 33.8294C87.1079 33.5815 86.7203 33.3967 86.1973 33.2749L84.4662 32.8692C83.515 32.6438 82.8163 32.2945 82.37 31.8211C81.9282 31.3433 81.7073 30.7459 81.7073 30.0292C81.7073 29.4431 81.8719 28.9247 82.201 28.4739C82.5346 28.0231 82.9876 27.6692 83.5601 27.4123C84.1372 27.1553 84.7908 27.0268 85.5211 27.0268C86.5489 27.0268 87.3559 27.2522 87.9419 27.703C88.5325 28.1538 88.9517 28.7489 89.1997 29.4882Z" fill="#F8F8F8"/>
<path d="M75.1145 37.7649C74.1137 37.7649 73.2504 37.5441 72.5246 37.1023C71.8033 36.656 71.2466 36.0339 70.8544 35.2359C70.4667 34.4335 70.2728 33.5003 70.2728 32.4365C70.2728 31.3726 70.4667 30.4349 70.8544 29.6234C71.2466 28.8075 71.7921 28.1719 72.4908 27.7165C73.1941 27.2567 74.0145 27.0268 74.9522 27.0268C75.4931 27.0268 76.0273 27.117 76.5548 27.2973C77.0822 27.4776 77.5623 27.7706 77.9951 28.1764C78.4279 28.5776 78.7727 29.1095 79.0297 29.7722C79.2867 30.4349 79.4151 31.2508 79.4151 32.2201V32.8963H71.4089V31.5168H77.7922C77.7922 30.9308 77.675 30.4078 77.4406 29.948C77.2107 29.4882 76.8816 29.1253 76.4534 28.8593C76.0296 28.5934 75.5292 28.4604 74.9522 28.4604C74.3166 28.4604 73.7666 28.6182 73.3022 28.9337C72.8424 29.2448 72.4885 29.6505 72.2406 30.1509C71.9927 30.6513 71.8687 31.1877 71.8687 31.7602V32.6799C71.8687 33.4643 72.0039 34.1292 72.2744 34.6747C72.5494 35.2157 72.9303 35.6281 73.4172 35.9121C73.9041 36.1916 74.4698 36.3314 75.1145 36.3314C75.5337 36.3314 75.9124 36.2728 76.2505 36.1556C76.5931 36.0339 76.8884 35.8535 77.1363 35.6146C77.3843 35.3712 77.5759 35.0691 77.7111 34.7085L79.2528 35.1413C79.0906 35.6642 78.8178 36.124 78.4346 36.5207C78.0515 36.9129 77.5781 37.2195 77.0146 37.4404C76.4511 37.6568 75.8177 37.7649 75.1145 37.7649Z" fill="#F8F8F8"/>
<path d="M61.2168 31.3004V37.5486H59.621V27.1621H61.1627V28.785H61.298C61.5414 28.2575 61.9111 27.8338 62.4069 27.5137C62.9028 27.1891 63.543 27.0268 64.3274 27.0268C65.0306 27.0268 65.646 27.1711 66.1734 27.4596C66.7008 27.7436 67.1111 28.1764 67.4041 28.7579C67.6971 29.3349 67.8436 30.0652 67.8436 30.9488V37.5486H66.2478V31.057C66.2478 30.241 66.0359 29.6054 65.6122 29.1501C65.1884 28.6903 64.6069 28.4604 63.8675 28.4604C63.3581 28.4604 62.9028 28.5708 62.5016 28.7917C62.1049 29.0126 61.7916 29.3349 61.5617 29.7587C61.3318 30.1824 61.2168 30.6964 61.2168 31.3004Z" fill="#F8F8F8"/>
<path d="M55.1024 37.5486V27.1621H56.6982V37.5486H55.1024ZM55.9138 25.431C55.6028 25.431 55.3345 25.325 55.1091 25.1132C54.8882 24.9013 54.7778 24.6466 54.7778 24.3491C54.7778 24.0515 54.8882 23.7968 55.1091 23.5849C55.3345 23.3731 55.6028 23.2671 55.9138 23.2671C56.2249 23.2671 56.4909 23.3731 56.7117 23.5849C56.9371 23.7968 57.0499 24.0515 57.0499 24.3491C57.0499 24.6466 56.9371 24.9013 56.7117 25.1132C56.4909 25.325 56.2249 25.431 55.9138 25.431Z" fill="#F8F8F8"/>
<path d="M52.1794 23.6999V37.5486H50.5835V23.6999H52.1794Z" fill="#F8F8F8"/>
<path d="M43.8552 37.7649C42.8545 37.7649 41.9912 37.5441 41.2654 37.1023C40.5441 36.656 39.9873 36.0339 39.5951 35.2359C39.2075 34.4335 39.0136 33.5003 39.0136 32.4365C39.0136 31.3726 39.2075 30.4349 39.5951 29.6234C39.9873 28.8075 40.5328 28.1719 41.2316 27.7165C41.9348 27.2567 42.7553 27.0268 43.6929 27.0268C44.2339 27.0268 44.7681 27.117 45.2955 27.2973C45.823 27.4776 46.3031 27.7706 46.7359 28.1764C47.1686 28.5776 47.5135 29.1095 47.7705 29.7722C48.0274 30.4349 48.1559 31.2508 48.1559 32.2201V32.8963H40.1496V31.5168H46.533C46.533 30.9308 46.4158 30.4078 46.1814 29.948C45.9515 29.4882 45.6224 29.1253 45.1941 28.8593C44.7704 28.5934 44.27 28.4604 43.6929 28.4604C43.0573 28.4604 42.5073 28.6182 42.043 28.9337C41.5832 29.2448 41.2293 29.6505 40.9814 30.1509C40.7334 30.6513 40.6094 31.1877 40.6094 31.7602V32.6799C40.6094 33.4643 40.7447 34.1292 41.0152 34.6747C41.2902 35.2157 41.6711 35.6281 42.158 35.9121C42.6448 36.1916 43.2106 36.3314 43.8552 36.3314C44.2745 36.3314 44.6532 36.2728 44.9913 36.1556C45.3339 36.0339 45.6291 35.8535 45.8771 35.6146C46.125 35.3712 46.3166 35.0691 46.4519 34.7085L47.9936 35.1413C47.8313 35.6642 47.5586 36.124 47.1754 36.5207C46.7922 36.9129 46.3189 37.2195 45.7554 37.4404C45.1919 37.6568 44.5585 37.7649 43.8552 37.7649Z" fill="#F8F8F8"/>
<path d="M31.5956 37.7649C30.7301 37.7649 29.966 37.5463 29.3033 37.109C28.6406 36.6672 28.1222 36.0451 27.748 35.2427C27.3739 34.4358 27.1868 33.4823 27.1868 32.3824C27.1868 31.2914 27.3739 30.3447 27.748 29.5423C28.1222 28.7399 28.6429 28.12 29.3101 27.6827C29.9773 27.2455 30.7481 27.0268 31.6227 27.0268C32.2989 27.0268 32.8331 27.1395 33.2253 27.3649C33.622 27.5858 33.924 27.8383 34.1314 28.1223C34.3433 28.4018 34.5078 28.6317 34.625 28.812H34.7603V23.6999H36.3561V37.5486H34.8144V35.9527H34.625C34.5078 36.1421 34.341 36.381 34.1247 36.6695C33.9083 36.9535 33.5995 37.2082 33.1983 37.4336C32.797 37.6545 32.2628 37.7649 31.5956 37.7649ZM31.812 36.3314C32.4522 36.3314 32.9931 36.1646 33.4349 35.831C33.8767 35.4929 34.2126 35.0263 34.4425 34.4313C34.6724 33.8317 34.7873 33.1397 34.7873 32.3553C34.7873 31.5799 34.6746 30.9015 34.4492 30.3199C34.2238 29.7339 33.8902 29.2786 33.4484 28.954C33.0067 28.6249 32.4612 28.4604 31.812 28.4604C31.1358 28.4604 30.5723 28.6339 30.1215 28.981C29.6752 29.3237 29.3394 29.7902 29.114 30.3808C28.8931 30.9668 28.7826 31.625 28.7826 32.3553C28.7826 33.0946 28.8953 33.7663 29.1207 34.3704C29.3507 34.97 29.6888 35.4478 30.135 35.804C30.5859 36.1556 31.1448 36.3314 31.812 36.3314Z" fill="#F8F8F8"/>
<path d="M23.1551 37.5486V27.1621H24.7509V37.5486H23.1551ZM23.9666 25.431C23.6555 25.431 23.3873 25.325 23.1619 25.1132C22.941 24.9013 22.8305 24.6466 22.8305 24.3491C22.8305 24.0515 22.941 23.7968 23.1619 23.5849C23.3873 23.3731 23.6555 23.2671 23.9666 23.2671C24.2776 23.2671 24.5436 23.3731 24.7645 23.5849C24.9899 23.7968 25.1026 24.0515 25.1026 24.3491C25.1026 24.6466 24.9899 24.9013 24.7645 25.1132C24.5436 25.325 24.2776 25.431 23.9666 25.431Z" fill="#F8F8F8"/>
<path d="M18.6362 33.302V27.1621H20.2321V37.5486H18.6362V35.7904H18.528C18.2846 36.3179 17.9059 36.7664 17.392 37.1361C16.8781 37.5012 16.2289 37.6838 15.4446 37.6838C14.7954 37.6838 14.2184 37.5418 13.7135 37.2578C13.2086 36.9693 12.8119 36.5365 12.5233 35.9595C12.2348 35.378 12.0906 34.6454 12.0906 33.7618V27.1621H13.6864V33.6536C13.6864 34.411 13.8983 35.0151 14.3221 35.4659C14.7503 35.9167 15.2958 36.1421 15.9585 36.1421C16.3552 36.1421 16.7586 36.0406 17.1689 35.8378C17.5836 35.6349 17.9307 35.3239 18.2102 34.9046C18.4942 34.4854 18.6362 33.9512 18.6362 33.302Z" fill="#F8F8F8"/>
<path d="M4.67933 41.6599C3.90846 41.6599 3.24578 41.5607 2.69129 41.3624C2.13681 41.1685 1.67473 40.9115 1.30507 40.5915C0.939924 40.2759 0.649156 39.9378 0.432771 39.5772L1.70403 38.6846C1.84829 38.8739 2.03087 39.0903 2.25176 39.3337C2.47265 39.5817 2.77469 39.7958 3.15787 39.9761C3.54556 40.161 4.05272 40.2534 4.67933 40.2534C5.51783 40.2534 6.20981 40.0505 6.75528 39.6448C7.30075 39.2391 7.57349 38.6034 7.57349 37.7379V35.6281H7.43825C7.32104 35.8175 7.15424 36.0519 6.93786 36.3314C6.72598 36.6064 6.41943 36.8521 6.01822 37.0685C5.62151 37.2803 5.08506 37.3863 4.40885 37.3863C3.57036 37.3863 2.81752 37.1879 2.15033 36.7912C1.48765 36.3945 0.962464 35.8175 0.574774 35.0601C0.191591 34.3028 0 33.3831 0 32.3012C0 31.2373 0.187083 30.3109 0.56125 29.522C0.935416 28.7286 1.45609 28.1155 2.12328 27.6827C2.79047 27.2455 3.56134 27.0268 4.4359 27.0268C5.1121 27.0268 5.64856 27.1395 6.04527 27.3649C6.44648 27.5858 6.75303 27.8383 6.96491 28.1223C7.18129 28.4018 7.34809 28.6317 7.4653 28.812H7.62759V27.1621H9.16933V37.8461C9.16933 38.7387 8.96647 39.4645 8.56075 40.0235C8.15953 40.587 7.61857 40.9995 6.93786 41.2609C6.26165 41.5269 5.50881 41.6599 4.67933 41.6599ZM4.62524 35.9527C5.26538 35.9527 5.80634 35.8062 6.24813 35.5132C6.68991 35.2202 7.02576 34.7987 7.25567 34.2487C7.48558 33.6987 7.60054 33.0405 7.60054 32.2742C7.60054 31.5258 7.48784 30.8654 7.26244 30.2929C7.03703 29.7204 6.70344 29.2718 6.26165 28.9472C5.81987 28.6227 5.27439 28.4604 4.62524 28.4604C3.94903 28.4604 3.38553 28.6317 2.93473 28.9743C2.48843 29.3169 2.15258 29.7767 1.92718 30.3537C1.70629 30.9308 1.59584 31.5709 1.59584 32.2742C1.59584 32.9955 1.70854 33.6333 1.93394 34.1878C2.16385 34.7378 2.50196 35.1706 2.94825 35.4861C3.39905 35.7972 3.95805 35.9527 4.62524 35.9527Z" fill="#F8F8F8"/>
<path d="M305.535 18.3928C305.264 18.3928 305.023 18.3702 304.811 18.3251C304.599 18.2846 304.453 18.244 304.372 18.2034L304.777 16.7969C305.165 16.8961 305.508 16.9322 305.805 16.9051C306.103 16.8781 306.366 16.7451 306.596 16.5062C306.831 16.2717 307.045 15.8908 307.239 15.3634L307.536 14.5519L303.695 4.11133H305.426L308.294 12.3881H308.402L311.269 4.11133H313L308.591 16.0125C308.393 16.549 308.147 16.993 307.854 17.3446C307.561 17.7008 307.221 17.9645 306.833 18.1358C306.45 18.3071 306.017 18.3928 305.535 18.3928Z" fill="#F8F8F8"/>
<path d="M302.106 4.11133V5.46374H296.723V4.11133H302.106ZM298.292 1.6229H299.888V11.5225C299.888 11.9733 299.953 12.3114 300.084 12.5368C300.219 12.7577 300.391 12.9065 300.598 12.9831C300.81 13.0553 301.033 13.0913 301.268 13.0913C301.443 13.0913 301.588 13.0823 301.7 13.0643C301.813 13.0417 301.903 13.0237 301.971 13.0102L302.295 14.4437C302.187 14.4843 302.036 14.5249 301.842 14.5654C301.648 14.6105 301.403 14.6331 301.105 14.6331C300.654 14.6331 300.213 14.5361 299.78 14.3423C299.352 14.1485 298.996 13.8532 298.711 13.4565C298.432 13.0598 298.292 12.5594 298.292 11.9553V1.6229Z" fill="#F8F8F8"/>
<path d="M293.071 14.4978V4.11133H294.666V14.4978H293.071ZM293.882 2.38024C293.571 2.38024 293.303 2.2743 293.077 2.06243C292.856 1.85055 292.746 1.59585 292.746 1.29832C292.746 1.00079 292.856 0.746081 293.077 0.534204C293.303 0.322327 293.571 0.216388 293.882 0.216388C294.193 0.216388 294.459 0.322327 294.68 0.534204C294.905 0.746081 295.018 1.00079 295.018 1.29832C295.018 1.59585 294.905 1.85055 294.68 2.06243C294.459 2.2743 294.193 2.38024 293.882 2.38024Z" fill="#F8F8F8"/>
<path d="M283.527 8.24969V14.4978H281.932V4.11132H283.473V5.73421H283.609C283.852 5.20678 284.222 4.78302 284.718 4.46295C285.213 4.13837 285.854 3.97608 286.638 3.97608C287.341 3.97608 287.957 4.12034 288.484 4.40885C289.011 4.69286 289.422 5.12563 289.715 5.70717C290.008 6.28419 290.154 7.01449 290.154 7.89807V14.4978H288.558V8.00626C288.558 7.19031 288.347 6.55468 287.923 6.09936C287.499 5.63955 286.917 5.40964 286.178 5.40964C285.669 5.40964 285.213 5.52008 284.812 5.74098C284.416 5.96187 284.102 6.28419 283.872 6.70795C283.642 7.1317 283.527 7.64562 283.527 8.24969Z" fill="#F8F8F8"/>
<path d="M277.413 10.2513V4.11133H279.009V14.4978H277.413V12.7397H277.305C277.061 13.2671 276.683 13.7157 276.169 14.0853C275.655 14.4505 275.006 14.6331 274.221 14.6331C273.572 14.6331 272.995 14.4911 272.49 14.2071C271.985 13.9185 271.588 13.4858 271.3 12.9087C271.011 12.3272 270.867 11.5947 270.867 10.7111V4.11133H272.463V10.6029C272.463 11.3602 272.675 11.9643 273.099 12.4151C273.527 12.8659 274.072 13.0913 274.735 13.0913C275.132 13.0913 275.535 12.9899 275.946 12.787C276.36 12.5842 276.707 12.2731 276.987 11.8539C277.271 11.4346 277.413 10.9004 277.413 10.2513Z" fill="#F8F8F8"/>
<path d="M254.317 14.4978V4.11132H255.859V5.73421H255.994C256.21 5.17973 256.56 4.74921 257.042 4.44266C257.525 4.13161 258.104 3.97608 258.78 3.97608C259.465 3.97608 260.036 4.13161 260.491 4.44266C260.951 4.74921 261.309 5.17973 261.566 5.73421H261.674C261.94 5.19776 262.339 4.77175 262.871 4.45619C263.403 4.13612 264.041 3.97608 264.785 3.97608C265.713 3.97608 266.473 4.26685 267.064 4.84839C267.654 5.42541 267.949 6.32477 267.949 7.54644V14.4978H266.354V7.54644C266.354 6.78008 266.144 6.23235 265.725 5.90326C265.305 5.57418 264.812 5.40964 264.244 5.40964C263.513 5.40964 262.948 5.63053 262.547 6.07232C262.145 6.50959 261.945 7.06408 261.945 7.73578V14.4978H260.322V7.38415C260.322 6.7936 260.13 6.318 259.747 5.95736C259.364 5.59221 258.87 5.40964 258.266 5.40964C257.851 5.40964 257.464 5.52008 257.103 5.74098C256.747 5.96187 256.458 6.26842 256.238 6.66061C256.021 7.0483 255.913 7.49685 255.913 8.00626V14.4978H254.317Z" fill="#F8F8F8"/>
<path d="M237.767 14.4978V4.11132H239.309V5.73421H239.444C239.66 5.17973 240.01 4.74921 240.492 4.44266C240.974 4.13161 241.554 3.97608 242.23 3.97608C242.915 3.97608 243.485 4.13161 243.941 4.44266C244.401 4.74921 244.759 5.17973 245.016 5.73421H245.124C245.39 5.19776 245.789 4.77175 246.321 4.45619C246.853 4.13612 247.491 3.97608 248.235 3.97608C249.163 3.97608 249.923 4.26685 250.513 4.84839C251.104 5.42541 251.399 6.32477 251.399 7.54644V14.4978H249.803V7.54644C249.803 6.78008 249.594 6.23235 249.175 5.90326C248.755 5.57418 248.262 5.40964 247.694 5.40964C246.963 5.40964 246.398 5.63053 245.996 6.07232C245.595 6.50959 245.395 7.06408 245.395 7.73578V14.4978H243.772V7.38415C243.772 6.7936 243.58 6.318 243.197 5.95736C242.814 5.59221 242.32 5.40964 241.716 5.40964C241.301 5.40964 240.914 5.52008 240.553 5.74098C240.197 5.96187 239.908 6.26842 239.687 6.66061C239.471 7.0483 239.363 7.49685 239.363 8.00626V14.4978H237.767Z" fill="#F8F8F8"/>
<path d="M230.625 14.7142C229.687 14.7142 228.864 14.4911 228.156 14.0448C227.453 13.5985 226.903 12.9741 226.506 12.1717C226.114 11.3693 225.918 10.4316 225.918 9.35867C225.918 8.27674 226.114 7.33231 226.506 6.52537C226.903 5.71844 227.453 5.09182 228.156 4.64553C228.864 4.19923 229.687 3.97608 230.625 3.97608C231.562 3.97608 232.383 4.19923 233.086 4.64553C233.794 5.09182 234.344 5.71844 234.736 6.52537C235.133 7.33231 235.331 8.27674 235.331 9.35867C235.331 10.4316 235.133 11.3693 234.736 12.1717C234.344 12.9741 233.794 13.5985 233.086 14.0448C232.383 14.4911 231.562 14.7142 230.625 14.7142ZM230.625 13.2807C231.337 13.2807 231.923 13.0981 232.383 12.7329C232.843 12.3678 233.183 11.8877 233.404 11.2926C233.625 10.6976 233.735 10.0529 233.735 9.35867C233.735 8.66443 233.625 8.01753 233.404 7.41796C233.183 6.8184 232.843 6.33378 232.383 5.96412C231.923 5.59446 231.337 5.40964 230.625 5.40964C229.912 5.40964 229.326 5.59446 228.866 5.96412C228.407 6.33378 228.066 6.8184 227.845 7.41796C227.624 8.01753 227.514 8.66443 227.514 9.35867C227.514 10.0529 227.624 10.6976 227.845 11.2926C228.066 11.8877 228.407 12.3678 228.866 12.7329C229.326 13.0981 229.912 13.2807 230.625 13.2807Z" fill="#F8F8F8"/>
<path d="M219.988 14.7142C219.014 14.7142 218.176 14.4843 217.472 14.0245C216.769 13.5647 216.228 12.9313 215.849 12.1243C215.471 11.3174 215.281 10.3955 215.281 9.35867C215.281 8.30379 215.475 7.37288 215.863 6.56594C216.255 5.7545 216.801 5.12112 217.499 4.66581C218.203 4.20599 219.023 3.97608 219.961 3.97608C220.691 3.97608 221.349 4.11132 221.935 4.38181C222.521 4.65229 223.001 5.03096 223.376 5.51783C223.75 6.0047 223.982 6.57271 224.072 7.22186H222.476C222.355 6.74852 222.084 6.32927 221.665 5.96412C221.25 5.59446 220.691 5.40964 219.988 5.40964C219.366 5.40964 218.82 5.57192 218.351 5.8965C217.887 6.21657 217.524 6.66963 217.263 7.25567C217.006 7.83721 216.877 8.52018 216.877 9.30457C216.877 10.107 217.004 10.8057 217.256 11.4008C217.513 11.9959 217.874 12.4579 218.338 12.787C218.807 13.1161 219.357 13.2807 219.988 13.2807C220.403 13.2807 220.779 13.2085 221.117 13.0643C221.455 12.92 221.741 12.7126 221.976 12.4422C222.21 12.1717 222.377 11.8471 222.476 11.4684H224.072C223.982 12.0815 223.759 12.6338 223.403 13.1251C223.051 13.612 222.584 13.9997 222.003 14.2882C221.426 14.5722 220.754 14.7142 219.988 14.7142Z" fill="#F8F8F8"/>
<path d="M203.685 14.7142C202.684 14.7142 201.821 14.4933 201.095 14.0515C200.373 13.6052 199.817 12.9831 199.425 12.1852C199.037 11.3828 198.843 10.4496 198.843 9.38572C198.843 8.32182 199.037 7.38415 199.425 6.57271C199.817 5.75675 200.362 5.12112 201.061 4.66581C201.764 4.20599 202.585 3.97608 203.522 3.97608C204.063 3.97608 204.597 4.06624 205.125 4.24656C205.652 4.42689 206.132 4.71991 206.565 5.12563C206.998 5.52684 207.343 6.05879 207.6 6.72147C207.857 7.38415 207.985 8.20011 207.985 9.16933V9.84554H199.979V8.46608H206.362C206.362 7.88004 206.245 7.3571 206.011 6.89729C205.781 6.43747 205.452 6.07457 205.023 5.8086C204.6 5.54262 204.099 5.40964 203.522 5.40964C202.887 5.40964 202.337 5.56742 201.872 5.88298C201.413 6.19403 201.059 6.59976 200.811 7.10015C200.563 7.60054 200.439 8.13699 200.439 8.70951V9.62915C200.439 10.4135 200.574 11.0785 200.845 11.624C201.12 12.1649 201.5 12.5774 201.987 12.8614C202.474 13.1409 203.04 13.2807 203.685 13.2807C204.104 13.2807 204.483 13.222 204.821 13.1048C205.163 12.9831 205.458 12.8028 205.706 12.5639C205.954 12.3204 206.146 12.0184 206.281 11.6578L207.823 12.0905C207.661 12.6135 207.388 13.0733 207.005 13.47C206.622 13.8622 206.148 14.1687 205.585 14.3896C205.021 14.606 204.388 14.7142 203.685 14.7142Z" fill="#F8F8F8"/>
<path d="M189.675 8.2497V14.4978H188.08V0.649165H189.675V5.73422H189.811C190.054 5.19777 190.419 4.77176 190.906 4.4562C191.397 4.13613 192.051 3.97609 192.867 3.97609C193.575 3.97609 194.195 4.11809 194.727 4.4021C195.259 4.6816 195.671 5.11211 195.964 5.69365C196.262 6.27068 196.41 7.00549 196.41 7.89808V14.4978H194.815V8.00627C194.815 7.1813 194.6 6.54341 194.172 6.09261C193.748 5.6373 193.16 5.40964 192.407 5.40964C191.884 5.40964 191.415 5.52009 191.001 5.74098C190.591 5.96188 190.266 6.2842 190.027 6.70795C189.793 7.13171 189.675 7.64563 189.675 8.2497Z" fill="#F8F8F8"/>
<path d="M185.456 4.11133V5.46374H180.073V4.11133H185.456ZM181.642 1.6229H183.238V11.5225C183.238 11.9733 183.303 12.3114 183.434 12.5368C183.569 12.7577 183.74 12.9065 183.948 12.9831C184.16 13.0553 184.383 13.0913 184.617 13.0913C184.793 13.0913 184.937 13.0823 185.05 13.0643C185.163 13.0417 185.253 13.0237 185.32 13.0102L185.645 14.4437C185.537 14.4843 185.386 14.5249 185.192 14.5654C184.998 14.6105 184.752 14.6331 184.455 14.6331C184.004 14.6331 183.562 14.5361 183.13 14.3423C182.701 14.1485 182.345 13.8532 182.061 13.4565C181.782 13.0598 181.642 12.5594 181.642 11.9553V1.6229Z" fill="#F8F8F8"/>
<path d="M162.465 14.4978L159.3 4.11133H160.977L163.222 12.0635H163.331L165.548 4.11133H167.253L169.443 12.0364H169.552L171.797 4.11133H173.474L170.309 14.4978H168.74L166.468 6.51862H166.306L164.034 14.4978H162.465Z" fill="#F8F8F8"/>
<path d="M153.323 14.7142C152.385 14.7142 151.562 14.4911 150.854 14.0448C150.151 13.5985 149.601 12.9741 149.204 12.1717C148.812 11.3693 148.616 10.4316 148.616 9.35867C148.616 8.27674 148.812 7.33231 149.204 6.52537C149.601 5.71844 150.151 5.09182 150.854 4.64553C151.562 4.19923 152.385 3.97608 153.323 3.97608C154.26 3.97608 155.081 4.19923 155.784 4.64553C156.492 5.09182 157.042 5.71844 157.434 6.52537C157.831 7.33231 158.029 8.27674 158.029 9.35867C158.029 10.4316 157.831 11.3693 157.434 12.1717C157.042 12.9741 156.492 13.5985 155.784 14.0448C155.081 14.4911 154.26 14.7142 153.323 14.7142ZM153.323 13.2807C154.035 13.2807 154.621 13.0981 155.081 12.7329C155.541 12.3678 155.881 11.8877 156.102 11.2926C156.323 10.6976 156.433 10.0529 156.433 9.35867C156.433 8.66443 156.323 8.01753 156.102 7.41796C155.881 6.8184 155.541 6.33378 155.081 5.96412C154.621 5.59446 154.035 5.40964 153.323 5.40964C152.61 5.40964 152.024 5.59446 151.564 5.96412C151.105 6.33378 150.764 6.8184 150.543 7.41796C150.322 8.01753 150.212 8.66443 150.212 9.35867C150.212 10.0529 150.322 10.6976 150.543 11.2926C150.764 11.8877 151.105 12.3678 151.564 12.7329C152.024 13.0981 152.61 13.2807 153.323 13.2807Z" fill="#F8F8F8"/>
<path d="M146.18 0.649165V14.4978H144.584V0.649165H146.18Z" fill="#F8F8F8"/>
<path d="M141.661 0.649165V14.4978H140.066V0.649165H141.661Z" fill="#F8F8F8"/>
<path d="M132.923 14.7142C131.986 14.7142 131.163 14.4911 130.455 14.0448C129.752 13.5985 129.202 12.9741 128.805 12.1717C128.413 11.3693 128.217 10.4316 128.217 9.35867C128.217 8.27674 128.413 7.33231 128.805 6.52537C129.202 5.71844 129.752 5.09182 130.455 4.64553C131.163 4.19923 131.986 3.97608 132.923 3.97608C133.861 3.97608 134.681 4.19923 135.385 4.64553C136.092 5.09182 136.642 5.71844 137.035 6.52537C137.431 7.33231 137.63 8.27674 137.63 9.35867C137.63 10.4316 137.431 11.3693 137.035 12.1717C136.642 12.9741 136.092 13.5985 135.385 14.0448C134.681 14.4911 133.861 14.7142 132.923 14.7142ZM132.923 13.2807C133.635 13.2807 134.221 13.0981 134.681 12.7329C135.141 12.3678 135.481 11.8877 135.702 11.2926C135.923 10.6976 136.034 10.0529 136.034 9.35867C136.034 8.66443 135.923 8.01753 135.702 7.41796C135.481 6.8184 135.141 6.33378 134.681 5.96412C134.221 5.59446 133.635 5.40964 132.923 5.40964C132.211 5.40964 131.625 5.59446 131.165 5.96412C130.705 6.33378 130.365 6.8184 130.144 7.41796C129.923 8.01753 129.813 8.66443 129.813 9.35867C129.813 10.0529 129.923 10.6976 130.144 11.2926C130.365 11.8877 130.705 12.3678 131.165 12.7329C131.625 13.0981 132.211 13.2807 132.923 13.2807Z" fill="#F8F8F8"/>
<path d="M126.895 4.11132V5.46373H121.296V4.11132H126.895ZM122.973 14.4978V2.67777C122.973 2.08271 123.113 1.58683 123.392 1.19012C123.672 0.793413 124.034 0.495883 124.481 0.29753C124.927 0.0991766 125.398 0 125.894 0C126.286 0 126.606 0.0315563 126.854 0.0946691C127.102 0.157781 127.287 0.216385 127.409 0.270482L126.949 1.64994C126.868 1.62289 126.755 1.58908 126.611 1.54851C126.471 1.50794 126.286 1.48765 126.056 1.48765C125.529 1.48765 125.148 1.62064 124.913 1.88661C124.684 2.15258 124.569 2.54253 124.569 3.05644V14.4978H122.973Z" fill="#F8F8F8"/>
<path d="M109.772 14.7142C108.834 14.7142 108.011 14.4911 107.303 14.0448C106.6 13.5985 106.05 12.9741 105.654 12.1717C105.261 11.3693 105.065 10.4316 105.065 9.35867C105.065 8.27674 105.261 7.33231 105.654 6.52537C106.05 5.71844 106.6 5.09182 107.303 4.64553C108.011 4.19923 108.834 3.97608 109.772 3.97608C110.709 3.97608 111.53 4.19923 112.233 4.64553C112.941 5.09182 113.491 5.71844 113.883 6.52537C114.28 7.33231 114.478 8.27674 114.478 9.35867C114.478 10.4316 114.28 11.3693 113.883 12.1717C113.491 12.9741 112.941 13.5985 112.233 14.0448C111.53 14.4911 110.709 14.7142 109.772 14.7142ZM109.772 13.2807C110.484 13.2807 111.07 13.0981 111.53 12.7329C111.99 12.3678 112.33 11.8877 112.551 11.2926C112.772 10.6976 112.882 10.0529 112.882 9.35867C112.882 8.66443 112.772 8.01753 112.551 7.41796C112.33 6.8184 111.99 6.33378 111.53 5.96412C111.07 5.59446 110.484 5.40964 109.772 5.40964C109.059 5.40964 108.473 5.59446 108.014 5.96412C107.554 6.33378 107.213 6.8184 106.992 7.41796C106.772 8.01753 106.661 8.66443 106.661 9.35867C106.661 10.0529 106.772 10.6976 106.992 11.2926C107.213 11.8877 107.554 12.3678 108.014 12.7329C108.473 13.0981 109.059 13.2807 109.772 13.2807Z" fill="#F8F8F8"/>
<path d="M103.263 4.11133V5.46374H97.8805V4.11133H103.263ZM99.4493 1.6229H101.045V11.5225C101.045 11.9733 101.11 12.3114 101.241 12.5368C101.376 12.7577 101.548 12.9065 101.755 12.9831C101.967 13.0553 102.19 13.0913 102.425 13.0913C102.6 13.0913 102.745 13.0823 102.857 13.0643C102.97 13.0417 103.06 13.0237 103.128 13.0102L103.452 14.4437C103.344 14.4843 103.193 14.5249 102.999 14.5654C102.806 14.6105 102.56 14.6331 102.262 14.6331C101.811 14.6331 101.37 14.5361 100.937 14.3423C100.509 14.1485 100.153 13.8532 99.8685 13.4565C99.589 13.0598 99.4493 12.5594 99.4493 11.9553V1.6229Z" fill="#F8F8F8"/>
<path d="M86.6624 14.7142C85.6616 14.7142 84.7983 14.4933 84.0725 14.0515C83.3512 13.6052 82.7945 12.9831 82.4023 12.1852C82.0146 11.3828 81.8207 10.4496 81.8207 9.38572C81.8207 8.32182 82.0146 7.38415 82.4023 6.57271C82.7945 5.75675 83.3399 5.12112 84.0387 4.66581C84.7419 4.20599 85.5624 3.97608 86.5001 3.97608C87.041 3.97608 87.5752 4.06624 88.1027 4.24656C88.6301 4.42689 89.1102 4.71991 89.543 5.12563C89.9758 5.52684 90.3206 6.05879 90.5776 6.72147C90.8345 7.38415 90.963 8.20011 90.963 9.16933V9.84554H82.9567V8.46608H89.3401C89.3401 7.88004 89.2229 7.3571 88.9885 6.89729C88.7586 6.43747 88.4295 6.07457 88.0012 5.8086C87.5775 5.54262 87.0771 5.40964 86.5001 5.40964C85.8644 5.40964 85.3144 5.56742 84.8501 5.88298C84.3903 6.19403 84.0364 6.59976 83.7885 7.10015C83.5405 7.60054 83.4166 8.13699 83.4166 8.70951V9.62915C83.4166 10.4135 83.5518 11.0785 83.8223 11.624C84.0973 12.1649 84.4782 12.5774 84.9651 12.8614C85.4519 13.1409 86.0177 13.2807 86.6624 13.2807C87.0816 13.2807 87.4603 13.222 87.7984 13.1048C88.141 12.9831 88.4363 12.8028 88.6842 12.5639C88.9321 12.3204 89.1237 12.0184 89.259 11.6578L90.8007 12.0905C90.6384 12.6135 90.3657 13.0733 89.9825 13.47C89.5993 13.8622 89.126 14.1687 88.5625 14.3896C87.999 14.606 87.3656 14.7142 86.6624 14.7142Z" fill="#F8F8F8"/>
<path d="M75.5388 14.4978V4.11132H77.0806V5.68011H77.1888C77.3781 5.1662 77.7207 4.74921 78.2166 4.42914C78.7125 4.10907 79.2715 3.94903 79.8936 3.94903C80.0108 3.94903 80.1573 3.95128 80.3331 3.95579C80.5089 3.9603 80.6419 3.96706 80.7321 3.97608V5.59897C80.678 5.58545 80.554 5.56516 80.3602 5.53811C80.1708 5.50656 79.9702 5.49078 79.7583 5.49078C79.2534 5.49078 78.8026 5.59672 78.4059 5.80859C78.0137 6.01596 77.7027 6.30448 77.4728 6.67413C77.2474 7.03929 77.1347 7.45628 77.1347 7.92511V14.4978H75.5388Z" fill="#F8F8F8"/>
<path d="M71.0201 10.2513V4.11133H72.6159V14.4978H71.0201V12.7397H70.9119C70.6685 13.2671 70.2898 13.7157 69.7759 14.0853C69.262 14.4505 68.6128 14.6331 67.8284 14.6331C67.1793 14.6331 66.6022 14.4911 66.0973 14.2071C65.5924 13.9185 65.1957 13.4858 64.9072 12.9087C64.6187 12.3272 64.4744 11.5947 64.4744 10.7111V4.11133H66.0703V10.6029C66.0703 11.3602 66.2822 11.9643 66.7059 12.4151C67.1342 12.8659 67.6796 13.0913 68.3423 13.0913C68.739 13.0913 69.1425 12.9899 69.5527 12.787C69.9675 12.5842 70.3146 12.2731 70.5941 11.8539C70.8781 11.4346 71.0201 10.9004 71.0201 10.2513Z" fill="#F8F8F8"/>
<path d="M61.8827 6.43747L60.4492 6.84319C60.359 6.60426 60.226 6.3721 60.0502 6.1467C59.8789 5.91679 59.6445 5.72745 59.3469 5.57869C59.0494 5.42992 58.6685 5.35554 58.2042 5.35554C57.5685 5.35554 57.0388 5.50205 56.6151 5.79507C56.1958 6.08359 55.9862 6.45099 55.9862 6.89729C55.9862 7.29399 56.1305 7.6073 56.419 7.83721C56.7075 8.06712 57.1583 8.25871 57.7714 8.41198L59.3131 8.79066C60.2418 9.01606 60.9338 9.36092 61.3891 9.82525C61.8444 10.2851 62.072 10.8779 62.072 11.6037C62.072 12.1987 61.9007 12.7307 61.5581 13.1995C61.22 13.6683 60.7467 14.038 60.1381 14.3085C59.5295 14.579 58.8218 14.7142 58.0148 14.7142C56.9554 14.7142 56.0786 14.4843 55.3844 14.0245C54.6901 13.5647 54.2506 12.893 54.0658 12.0094L55.5805 11.6307C55.7247 12.1897 55.9975 12.609 56.3987 12.8885C56.8044 13.168 57.3341 13.3077 57.9878 13.3077C58.7316 13.3077 59.3221 13.1499 59.7594 12.8344C60.2012 12.5143 60.4221 12.1311 60.4221 11.6848C60.4221 11.3242 60.2959 11.0221 60.0434 10.7787C59.791 10.5308 59.4033 10.3459 58.8804 10.2242L57.1493 9.81849C56.1981 9.59309 55.4993 9.24371 55.053 8.77037C54.6113 8.29252 54.3904 7.69521 54.3904 6.97843C54.3904 6.39239 54.5549 5.87396 54.884 5.42316C55.2176 4.97236 55.6706 4.61848 56.2432 4.36152C56.8202 4.10456 57.4739 3.97608 58.2042 3.97608C59.232 3.97608 60.0389 4.20148 60.625 4.65229C61.2155 5.10309 61.6348 5.69815 61.8827 6.43747Z" fill="#F8F8F8"/>
<path d="M42.442 14.7142C41.4412 14.7142 40.5779 14.4933 39.8521 14.0515C39.1308 13.6052 38.5741 12.9831 38.1819 12.1852C37.7942 11.3828 37.6003 10.4496 37.6003 9.38572C37.6003 8.32182 37.7942 7.38415 38.1819 6.57271C38.5741 5.75675 39.1195 5.12112 39.8183 4.66581C40.5215 4.20599 41.342 3.97608 42.2797 3.97608C42.8206 3.97608 43.3548 4.06624 43.8823 4.24656C44.4097 4.42689 44.8898 4.71991 45.3226 5.12563C45.7554 5.52684 46.1002 6.05879 46.3572 6.72147C46.6141 7.38415 46.7426 8.20011 46.7426 9.16933V9.84554H38.7364V8.46608H45.1197C45.1197 7.88004 45.0025 7.3571 44.7681 6.89729C44.5382 6.43747 44.2091 6.07457 43.7809 5.8086C43.3571 5.54262 42.8567 5.40964 42.2797 5.40964C41.644 5.40964 41.0941 5.56742 40.6297 5.88298C40.1699 6.19403 39.816 6.59976 39.5681 7.10015C39.3202 7.60054 39.1962 8.13699 39.1962 8.70951V9.62915C39.1962 10.4135 39.3314 11.0785 39.6019 11.624C39.8769 12.1649 40.2578 12.5774 40.7447 12.8614C41.2316 13.1409 41.7973 13.2807 42.442 13.2807C42.8612 13.2807 43.2399 13.222 43.578 13.1048C43.9206 12.9831 44.2159 12.8028 44.4638 12.5639C44.7118 12.3204 44.9033 12.0184 45.0386 11.6578L46.5803 12.0905C46.418 12.6135 46.1453 13.0733 45.7621 13.47C45.3789 13.8622 44.9056 14.1687 44.3421 14.3896C43.7786 14.606 43.1452 14.7142 42.442 14.7142Z" fill="#F8F8F8"/>
<path d="M29.6448 10.7111L29.6178 8.73657H29.9424L34.4865 4.11133H36.461L31.6194 9.00705H31.4841L29.6448 10.7111ZM28.1572 14.4978V0.649165H29.753V14.4978H28.1572ZM34.7569 14.4978L30.6997 9.35868L31.8357 8.2497L36.7856 14.4978H34.7569Z" fill="#F8F8F8"/>
<path d="M20.4839 14.7413C19.8257 14.7413 19.2284 14.6173 18.692 14.3693C18.1555 14.1169 17.7295 13.754 17.414 13.2807C17.0984 12.8028 16.9406 12.2258 16.9406 11.5496C16.9406 10.9545 17.0578 10.4722 17.2922 10.1025C17.5267 9.72833 17.84 9.43531 18.2322 9.22343C18.6244 9.01155 19.0571 8.85377 19.5305 8.75009C20.0083 8.64189 20.4884 8.55624 20.9708 8.49313C21.6019 8.41198 22.1136 8.35112 22.5058 8.31055C22.9025 8.26547 23.191 8.19109 23.3713 8.08741C23.5561 7.98372 23.6486 7.8034 23.6486 7.54644V7.49235C23.6486 6.82516 23.466 6.30673 23.1008 5.93708C22.7402 5.56742 22.1925 5.38259 21.4577 5.38259C20.6958 5.38259 20.0985 5.54939 19.6657 5.88298C19.2329 6.21657 18.9287 6.57271 18.7528 6.95138L17.2381 6.41042C17.5086 5.77929 17.8693 5.28792 18.3201 4.93629C18.7754 4.58016 19.2713 4.33222 19.8077 4.19247C20.3487 4.04821 20.8806 3.97608 21.4036 3.97608C21.7372 3.97608 22.1203 4.01665 22.5531 4.0978C22.9904 4.17444 23.4119 4.33447 23.8176 4.5779C24.2278 4.82134 24.5682 5.18874 24.8387 5.68012C25.1092 6.17149 25.2444 6.82967 25.2444 7.65463V14.4978H23.6486V13.0913H23.5674C23.4592 13.3167 23.2789 13.5579 23.0265 13.8149C22.774 14.0718 22.4382 14.2905 22.0189 14.4708C21.5997 14.6511 21.088 14.7413 20.4839 14.7413ZM20.7274 13.3077C21.3585 13.3077 21.8904 13.1837 22.3232 12.9358C22.7605 12.6878 23.0896 12.3678 23.3105 11.9756C23.5359 11.5834 23.6486 11.1709 23.6486 10.7381V9.27752C23.5809 9.35867 23.4322 9.43305 23.2023 9.50067C22.9769 9.56378 22.7154 9.62014 22.4179 9.66972C22.1248 9.7148 21.8386 9.75538 21.5591 9.79144C21.2841 9.823 21.0609 9.85004 20.8896 9.87258C20.4749 9.92668 20.0872 10.0146 19.7266 10.1363C19.3704 10.2535 19.0819 10.4316 18.861 10.6705C18.6446 10.9049 18.5365 11.225 18.5365 11.6307C18.5365 12.1852 18.7416 12.6045 19.1518 12.8885C19.5665 13.168 20.0917 13.3077 20.7274 13.3077Z" fill="#F8F8F8"/>
<path d="M0.703208 0.649165H2.70477L7.41116 12.1446H7.57344L12.2798 0.649165H14.2814V14.4978H12.7126V3.97609H12.5774L8.24965 14.4978H6.73495L2.40724 3.97609H2.272V14.4978H0.703208V0.649165Z" fill="#F8F8F8"/>
</svg>
