<svg width="384" height="65" viewBox="0 0 384 65" fill="none" xmlns="http://www.w3.org/2000/svg">
<path d="M0 8C0 3.58172 3.58172 0 8 0H376C380.418 0 384 3.58172 384 8V57C384 61.4183 380.418 65 376 65H7.99999C3.58171 65 0 61.4183 0 57V8Z" fill="#DC3939"/>
<path d="M146.046 28.3118C145.983 27.6118 145.7 27.0677 145.197 26.6795C144.7 26.285 143.991 26.0877 143.068 26.0877C142.457 26.0877 141.948 26.1673 141.541 26.3264C141.134 26.4855 140.828 26.705 140.625 26.985C140.421 27.2586 140.316 27.5736 140.31 27.93C140.297 28.2227 140.354 28.4805 140.481 28.7032C140.615 28.9259 140.806 29.1232 141.054 29.295C141.309 29.4605 141.614 29.6068 141.97 29.7341C142.327 29.8614 142.728 29.9727 143.173 30.0682L144.853 30.45C145.82 30.66 146.673 30.94 147.411 31.29C148.156 31.64 148.78 32.0568 149.282 32.5405C149.791 33.0241 150.176 33.5809 150.437 34.2109C150.698 34.8409 150.832 35.5473 150.838 36.33C150.832 37.5645 150.52 38.6241 149.903 39.5086C149.285 40.3932 148.398 41.0709 147.24 41.5418C146.088 42.0127 144.697 42.2482 143.068 42.2482C141.433 42.2482 140.007 42.0032 138.792 41.5132C137.576 41.0232 136.631 40.2786 135.957 39.2795C135.282 38.2805 134.935 37.0173 134.916 35.49H139.441C139.479 36.12 139.648 36.645 139.947 37.065C140.246 37.485 140.656 37.8032 141.178 38.0195C141.706 38.2359 142.317 38.3441 143.011 38.3441C143.647 38.3441 144.188 38.2582 144.634 38.0864C145.085 37.9145 145.432 37.6759 145.674 37.3705C145.916 37.065 146.04 36.715 146.046 36.3205C146.04 35.9514 145.925 35.6364 145.703 35.3755C145.48 35.1082 145.136 34.8791 144.672 34.6882C144.214 34.4909 143.628 34.3095 142.915 34.1441L140.873 33.6668C139.18 33.2786 137.847 32.6518 136.873 31.7864C135.9 30.9145 135.416 29.7373 135.422 28.2545C135.416 27.0455 135.74 25.9859 136.396 25.0759C137.051 24.1659 137.958 23.4564 139.116 22.9473C140.275 22.4382 141.595 22.1836 143.078 22.1836C144.592 22.1836 145.906 22.4414 147.02 22.9568C148.14 23.4659 149.009 24.1818 149.626 25.1045C150.243 26.0273 150.558 27.0964 150.571 28.3118H146.046Z" fill="white"/>
<path d="M153.225 42V27.3382H157.892V42H153.225ZM155.563 25.6295C154.908 25.6295 154.345 25.4132 153.874 24.9805C153.403 24.5414 153.167 24.0132 153.167 23.3959C153.167 22.785 153.403 22.2632 153.874 21.8305C154.345 21.3914 154.908 21.1718 155.563 21.1718C156.225 21.1718 156.788 21.3914 157.253 21.8305C157.724 22.2632 157.959 22.785 157.959 23.3959C157.959 24.0132 157.724 24.5414 157.253 24.9805C156.788 25.4132 156.225 25.6295 155.563 25.6295Z" fill="white"/>
<path d="M167.698 47.8036C166.304 47.8036 165.111 47.6095 164.118 47.2214C163.126 46.8332 162.346 46.3018 161.78 45.6273C161.213 44.9527 160.873 44.1891 160.758 43.3364L165.178 43.0882C165.261 43.3873 165.413 43.6482 165.636 43.8709C165.865 44.0936 166.161 44.2655 166.524 44.3864C166.893 44.5073 167.326 44.5677 167.822 44.5677C168.605 44.5677 169.251 44.3768 169.76 43.995C170.275 43.6195 170.533 42.9609 170.533 42.0191V39.4418H170.371C170.186 39.8936 169.906 40.2977 169.531 40.6541C169.155 41.0105 168.687 41.2905 168.127 41.4941C167.574 41.6977 166.937 41.7995 166.218 41.7995C165.149 41.7995 164.169 41.5514 163.278 41.055C162.394 40.5523 161.684 39.7759 161.15 38.7259C160.621 37.6695 160.357 36.3109 160.357 34.65C160.357 32.9382 160.631 31.5286 161.178 30.4214C161.726 29.3077 162.441 28.4836 163.326 27.9491C164.217 27.4145 165.175 27.1473 166.199 27.1473C166.969 27.1473 167.628 27.2809 168.175 27.5482C168.729 27.8091 169.184 28.1464 169.54 28.56C169.896 28.9736 170.167 29.4032 170.351 29.8486H170.485V27.3382H175.134V42.0573C175.134 43.2982 174.822 44.345 174.198 45.1977C173.575 46.0505 172.703 46.6964 171.583 47.1355C170.463 47.5809 169.168 47.8036 167.698 47.8036ZM167.841 38.4014C168.407 38.4014 168.891 38.2518 169.292 37.9527C169.693 37.6536 170.001 37.2241 170.218 36.6641C170.434 36.1041 170.542 35.4327 170.542 34.65C170.542 33.8545 170.434 33.1705 170.218 32.5977C170.008 32.0186 169.699 31.5732 169.292 31.2614C168.891 30.9495 168.407 30.7936 167.841 30.7936C167.262 30.7936 166.772 30.9527 166.371 31.2709C165.97 31.5891 165.665 32.0377 165.455 32.6168C165.251 33.1895 165.149 33.8673 165.149 34.65C165.149 35.4327 165.254 36.1041 165.464 36.6641C165.674 37.2241 165.976 37.6536 166.371 37.9527C166.772 38.2518 167.262 38.4014 167.841 38.4014Z" fill="white"/>
<path d="M182.777 33.6382V42H178.11V27.3382H182.548V30.03H182.71C183.035 29.1327 183.589 28.4295 184.371 27.9205C185.154 27.405 186.086 27.1473 187.168 27.1473C188.199 27.1473 189.093 27.3795 189.85 27.8441C190.614 28.3023 191.206 28.945 191.626 29.7723C192.052 30.5932 192.262 31.5541 192.256 32.655V42H187.588V33.5714C187.595 32.7568 187.388 32.1205 186.968 31.6623C186.554 31.2041 185.978 30.975 185.24 30.975C184.75 30.975 184.317 31.0832 183.942 31.2995C183.573 31.5095 183.286 31.8118 183.083 32.2064C182.885 32.6009 182.784 33.0782 182.777 33.6382Z" fill="white"/>
<path d="M212.748 22.4509H217.463V35.0605C217.463 36.5177 217.116 37.7873 216.423 38.8691C215.729 39.9445 214.762 40.7782 213.521 41.37C212.28 41.9555 210.839 42.2482 209.197 42.2482C207.536 42.2482 206.085 41.9555 204.844 41.37C203.603 40.7782 202.639 39.9445 201.952 38.8691C201.264 37.7873 200.921 36.5177 200.921 35.0605V22.4509H205.646V34.65C205.646 35.3245 205.792 35.9259 206.085 36.4541C206.384 36.9823 206.801 37.3959 207.335 37.695C207.87 37.9941 208.49 38.1436 209.197 38.1436C209.903 38.1436 210.52 37.9941 211.049 37.695C211.583 37.3959 212 36.9823 212.299 36.4541C212.598 35.9259 212.748 35.3245 212.748 34.65V22.4509Z" fill="white"/>
<path d="M220.425 47.4982V27.3382H225.045V29.8486H225.188C225.379 29.4032 225.649 28.9736 225.999 28.56C226.355 28.1464 226.807 27.8091 227.355 27.5482C227.908 27.2809 228.57 27.1473 229.34 27.1473C230.358 27.1473 231.31 27.4145 232.194 27.9491C233.085 28.4836 233.804 29.3077 234.351 30.4214C234.899 31.535 235.172 32.9541 235.172 34.6786C235.172 36.3395 234.908 37.73 234.38 38.85C233.858 39.97 233.152 40.81 232.261 41.37C231.376 41.93 230.393 42.21 229.311 42.21C228.573 42.21 227.934 42.0891 227.393 41.8473C226.852 41.6055 226.397 41.2873 226.028 40.8927C225.665 40.4982 225.385 40.075 225.188 39.6232H225.092V47.4982H220.425ZM224.997 34.6691C224.997 35.4582 225.102 36.1455 225.312 36.7309C225.528 37.3164 225.837 37.7714 226.238 38.0959C226.645 38.4141 227.132 38.5732 227.698 38.5732C228.271 38.5732 228.758 38.4141 229.159 38.0959C229.56 37.7714 229.862 37.3164 230.065 36.7309C230.275 36.1455 230.38 35.4582 230.38 34.6691C230.38 33.88 230.275 33.1959 230.065 32.6168C229.862 32.0377 229.56 31.5891 229.159 31.2709C228.764 30.9527 228.277 30.7936 227.698 30.7936C227.125 30.7936 226.639 30.9495 226.238 31.2614C225.837 31.5732 225.528 32.0186 225.312 32.5977C225.102 33.1768 224.997 33.8673 224.997 34.6691Z" fill="white"/>
</svg>
