<svg width="202" height="19" viewBox="0 0 202 19" fill="none" xmlns="http://www.w3.org/2000/svg">
<path d="M197.308 14.5085C196.413 14.5085 195.616 14.3548 194.915 14.0475C194.219 13.7401 193.665 13.313 193.254 12.7661C192.847 12.2147 192.626 11.5751 192.59 10.8475H194.298C194.334 11.2949 194.488 11.6814 194.759 12.0068C195.03 12.3277 195.385 12.5763 195.824 12.7525C196.262 12.9288 196.748 13.0169 197.281 13.0169C197.878 13.0169 198.407 12.913 198.868 12.7051C199.329 12.4972 199.69 12.2079 199.952 11.8373C200.215 11.4667 200.346 11.0373 200.346 10.5492C200.346 10.0384 200.219 9.5887 199.966 9.2C199.713 8.80678 199.342 8.49944 198.854 8.27797C198.366 8.0565 197.769 7.94576 197.064 7.94576H195.952V6.45424H197.064C197.616 6.45424 198.099 6.35481 198.515 6.15594C198.935 5.95707 199.263 5.67684 199.498 5.31526C199.738 4.95368 199.857 4.52882 199.857 4.04068C199.857 3.57063 199.753 3.16159 199.546 2.81356C199.338 2.46554 199.044 2.19436 198.664 2.00001C198.289 1.80566 197.846 1.70848 197.335 1.70848C196.856 1.70848 196.404 1.79662 195.979 1.97289C195.559 2.14464 195.216 2.39549 194.949 2.72543C194.682 3.05085 194.538 3.44407 194.515 3.90509H192.888C192.915 3.17741 193.134 2.54012 193.546 1.99323C193.957 1.44181 194.495 1.01244 195.159 0.705092C195.828 0.397747 196.563 0.244075 197.363 0.244075C198.221 0.244075 198.958 0.418086 199.573 0.766108C200.187 1.10961 200.66 1.56385 200.99 2.12882C201.32 2.69379 201.485 3.30396 201.485 3.95933C201.485 4.74125 201.279 5.40791 200.868 5.95933C200.461 6.51074 199.907 6.89266 199.207 7.10509V7.21356C200.083 7.35819 200.768 7.73108 201.261 8.33221C201.753 8.92882 202 9.6678 202 10.5492C202 11.304 201.794 11.9819 201.383 12.5831C200.976 13.1797 200.42 13.6497 199.715 13.9932C199.01 14.3367 198.208 14.5085 197.308 14.5085Z" fill="#F8F8F8"/>
<path d="M180.52 8.13559V7.05085L189.252 2.60339V4.33898L182.554 7.5661L182.608 7.45763V7.72881L182.554 7.62034L189.252 10.8475V12.583L180.52 8.13559Z" fill="#F8F8F8"/>
<path d="M167.944 14.5356C166.941 14.5356 166.075 14.3141 165.347 13.8712C164.624 13.4237 164.066 12.8 163.673 12C163.284 11.1955 163.09 10.2599 163.09 9.19321C163.09 8.12655 163.284 7.18643 163.673 6.37288C164.066 5.5548 164.613 4.91751 165.314 4.46101C166.019 4 166.841 3.76949 167.781 3.76949C168.324 3.76949 168.859 3.85988 169.388 4.04067C169.917 4.22146 170.398 4.51525 170.832 4.92203C171.266 5.32429 171.612 5.85762 171.87 6.52203C172.127 7.18643 172.256 8.00451 172.256 8.97626V9.65423H164.229V8.27118H170.629C170.629 7.68361 170.511 7.15932 170.276 6.6983C170.046 6.23728 169.716 5.87344 169.286 5.60677C168.862 5.34011 168.36 5.20677 167.781 5.20677C167.144 5.20677 166.593 5.36497 166.127 5.68135C165.666 5.99322 165.311 6.39999 165.063 6.90169C164.814 7.40338 164.69 7.94124 164.69 8.51525V9.43728C164.69 10.2237 164.825 10.8904 165.097 11.4373C165.372 11.9797 165.754 12.3932 166.242 12.678C166.731 12.9582 167.298 13.0983 167.944 13.0983C168.364 13.0983 168.744 13.0395 169.083 12.922C169.427 12.8 169.723 12.6192 169.971 12.3797C170.22 12.1356 170.412 11.8328 170.547 11.4712L172.093 11.9051C171.931 12.4294 171.657 12.8904 171.273 13.2881C170.889 13.6813 170.414 13.9887 169.849 14.2102C169.284 14.4271 168.649 14.5356 167.944 14.5356Z" fill="#F8F8F8"/>
<path d="M156.792 14.3186V3.90508H158.337V5.47796H158.446C158.636 4.9627 158.979 4.54462 159.476 4.22372C159.974 3.90282 160.534 3.74236 161.158 3.74236C161.275 3.74236 161.422 3.74462 161.598 3.74914C161.775 3.75366 161.908 3.76044 161.998 3.76948V5.3966C161.944 5.38304 161.82 5.3627 161.626 5.33558C161.436 5.30395 161.235 5.28813 161.022 5.28813C160.516 5.28813 160.064 5.39434 159.666 5.60677C159.273 5.81468 158.961 6.10395 158.731 6.47457C158.505 6.84067 158.392 7.25875 158.392 7.7288V14.3186H156.792Z" fill="#F8F8F8"/>
<path d="M150.046 14.5356C149.042 14.5356 148.177 14.3141 147.449 13.8712C146.726 13.4237 146.168 12.8 145.775 12C145.386 11.1955 145.192 10.2599 145.192 9.19321C145.192 8.12655 145.386 7.18643 145.775 6.37288C146.168 5.5548 146.715 4.91751 147.415 4.46101C148.12 4 148.943 3.76949 149.883 3.76949C150.425 3.76949 150.961 3.85988 151.49 4.04067C152.019 4.22146 152.5 4.51525 152.934 4.92203C153.368 5.32429 153.714 5.85762 153.971 6.52203C154.229 7.18643 154.358 8.00451 154.358 8.97626V9.65423H146.331V8.27118H152.731C152.731 7.68361 152.613 7.15932 152.378 6.6983C152.147 6.23728 151.818 5.87344 151.388 5.60677C150.963 5.34011 150.462 5.20677 149.883 5.20677C149.246 5.20677 148.694 5.36497 148.229 5.68135C147.768 5.99322 147.413 6.39999 147.164 6.90169C146.916 7.40338 146.792 7.94124 146.792 8.51525V9.43728C146.792 10.2237 146.927 10.8904 147.198 11.4373C147.474 11.9797 147.856 12.3932 148.344 12.678C148.832 12.9582 149.399 13.0983 150.046 13.0983C150.466 13.0983 150.846 13.0395 151.185 12.922C151.528 12.8 151.824 12.6192 152.073 12.3797C152.322 12.1356 152.514 11.8328 152.649 11.4712L154.195 11.9051C154.032 12.4294 153.759 12.8904 153.375 13.2881C152.99 13.6813 152.516 13.9887 151.951 14.2102C151.386 14.4271 150.751 14.5356 150.046 14.5356Z" fill="#F8F8F8"/>
<path d="M136 8.05424V14.3186H134.4V0.433904H136V5.53221H136.136C136.38 4.99435 136.746 4.56723 137.234 4.25085C137.727 3.92995 138.382 3.76949 139.2 3.76949C139.91 3.76949 140.531 3.91187 141.064 4.19661C141.598 4.47684 142.011 4.90848 142.305 5.49153C142.603 6.07006 142.753 6.80678 142.753 7.7017V14.3186H141.153V7.81017C141.153 6.98305 140.938 6.3435 140.509 5.89153C140.084 5.43503 139.494 5.20678 138.739 5.20678C138.215 5.20678 137.745 5.31752 137.329 5.53898C136.918 5.76045 136.592 6.08362 136.353 6.50848C136.118 6.93333 136 7.44859 136 8.05424Z" fill="#F8F8F8"/>
<path d="M126.432 6.23728L124.995 6.64406C124.904 6.40451 124.771 6.17175 124.595 5.94576C124.423 5.71525 124.188 5.52542 123.89 5.37627C123.591 5.22711 123.21 5.15254 122.744 5.15254C122.107 5.15254 121.576 5.29943 121.151 5.59322C120.73 5.88248 120.52 6.25084 120.52 6.6983C120.52 7.09604 120.665 7.41016 120.954 7.64067C121.243 7.87118 121.695 8.06327 122.31 8.21694L123.856 8.5966C124.787 8.82259 125.481 9.16835 125.937 9.63389C126.394 10.0949 126.622 10.6893 126.622 11.4169C126.622 12.0136 126.45 12.5469 126.107 13.0169C125.768 13.487 125.293 13.8576 124.683 14.1288C124.073 14.4 123.363 14.5356 122.554 14.5356C121.492 14.5356 120.613 14.3051 119.917 13.8441C119.221 13.383 118.78 12.7096 118.595 11.8237L120.113 11.4441C120.258 12.0045 120.532 12.4248 120.934 12.7051C121.341 12.9853 121.872 13.1254 122.527 13.1254C123.273 13.1254 123.865 12.9672 124.303 12.6508C124.746 12.3299 124.968 11.9458 124.968 11.4983C124.968 11.1367 124.841 10.8339 124.588 10.5898C124.335 10.3412 123.946 10.1559 123.422 10.0339L121.686 9.62711C120.733 9.40112 120.032 9.05084 119.585 8.57626C119.142 8.09717 118.92 7.4983 118.92 6.77966C118.92 6.19208 119.085 5.67231 119.415 5.22033C119.75 4.76836 120.204 4.41355 120.778 4.15593C121.356 3.8983 122.012 3.76949 122.744 3.76949C123.774 3.76949 124.584 3.99548 125.171 4.44745C125.763 4.89943 126.184 5.49604 126.432 6.23728Z" fill="#F8F8F8"/>
<path d="M114.525 14.3186V3.90508H116.125V14.3186H114.525ZM115.339 2.16949C115.027 2.16949 114.758 2.06328 114.532 1.85085C114.31 1.63842 114.2 1.38305 114.2 1.08475C114.2 0.78644 114.31 0.531073 114.532 0.318643C114.758 0.106214 115.027 0 115.339 0C115.651 0 115.917 0.106214 116.139 0.318643C116.365 0.531073 116.478 0.78644 116.478 1.08475C116.478 1.38305 116.365 1.63842 116.139 1.85085C115.917 2.06328 115.651 2.16949 115.339 2.16949Z" fill="#F8F8F8"/>
<path d="M109.995 3.90508H111.595V15.078C111.595 15.7198 111.484 16.2757 111.262 16.7458C111.045 17.2158 110.716 17.5797 110.273 17.8373C109.834 18.0949 109.28 18.2237 108.612 18.2237C108.557 18.2237 108.503 18.2237 108.449 18.2237C108.395 18.2237 108.34 18.2237 108.286 18.2237V16.7322C108.34 16.7322 108.39 16.7322 108.435 16.7322C108.48 16.7322 108.53 16.7322 108.584 16.7322C109.073 16.7322 109.43 16.5876 109.656 16.2983C109.882 16.0135 109.995 15.6068 109.995 15.078V3.90508ZM110.781 2.16949C110.469 2.16949 110.2 2.06328 109.974 1.85085C109.753 1.63842 109.642 1.38305 109.642 1.08475C109.642 0.78644 109.753 0.531073 109.974 0.318643C110.2 0.106214 110.469 0 110.781 0C111.093 0 111.36 0.106214 111.581 0.318643C111.807 0.531073 111.92 0.78644 111.92 1.08475C111.92 1.38305 111.807 1.63842 111.581 1.85085C111.36 2.06328 111.093 2.16949 110.781 2.16949Z" fill="#F8F8F8"/>
<path d="M105.464 3.90508H107.064V15.078C107.064 15.7198 106.953 16.2757 106.732 16.7458C106.515 17.2158 106.185 17.5797 105.742 17.8373C105.304 18.0949 104.75 18.2237 104.081 18.2237C104.027 18.2237 103.973 18.2237 103.918 18.2237C103.864 18.2237 103.81 18.2237 103.756 18.2237V16.7322C103.81 16.7322 103.86 16.7322 103.905 16.7322C103.95 16.7322 104 16.7322 104.054 16.7322C104.542 16.7322 104.899 16.5876 105.125 16.2983C105.351 16.0135 105.464 15.6068 105.464 15.078V3.90508ZM106.251 2.16949C105.939 2.16949 105.67 2.06328 105.444 1.85085C105.222 1.63842 105.112 1.38305 105.112 1.08475C105.112 0.78644 105.222 0.531073 105.444 0.318643C105.67 0.106214 105.939 0 106.251 0C106.562 0 106.829 0.106214 107.051 0.318643C107.277 0.531073 107.39 0.78644 107.39 1.08475C107.39 1.38305 107.277 1.63842 107.051 1.85085C106.829 2.06328 106.562 2.16949 106.251 2.16949Z" fill="#F8F8F8"/>
<path d="M97.7713 14.5627C97.1114 14.5627 96.5125 14.4384 95.9747 14.1898C95.4368 13.9367 95.0097 13.5729 94.6933 13.0983C94.3769 12.6192 94.2187 12.0407 94.2187 11.3627C94.2187 10.7661 94.3362 10.2825 94.5713 9.91186C94.8063 9.53672 95.1204 9.24293 95.5136 9.0305C95.9069 8.81807 96.3408 8.65988 96.8153 8.55592C97.2944 8.44745 97.7758 8.36158 98.2594 8.2983C98.8922 8.21694 99.4052 8.15593 99.7984 8.11525C100.196 8.07005 100.485 7.99547 100.666 7.89152C100.851 7.78756 100.944 7.60677 100.944 7.34915V7.29491C100.944 6.62598 100.761 6.10621 100.395 5.73559C100.033 5.36497 99.4842 5.17966 98.7475 5.17966C97.9837 5.17966 97.3848 5.34689 96.9509 5.68135C96.517 6.01581 96.2119 6.37288 96.0357 6.75254L94.517 6.21016C94.7882 5.5774 95.1498 5.08474 95.6018 4.7322C96.0583 4.37514 96.5554 4.12655 97.0933 3.98644C97.6357 3.8418 98.169 3.76949 98.6933 3.76949C99.0278 3.76949 99.4119 3.81017 99.8458 3.89152C100.284 3.96836 100.707 4.12881 101.114 4.37288C101.525 4.61694 101.866 4.98531 102.137 5.47796C102.409 5.97062 102.544 6.6305 102.544 7.45762V14.3186H100.944V12.9085H100.863C100.754 13.1345 100.574 13.3763 100.32 13.6339C100.067 13.8915 99.7306 14.1107 99.3102 14.2915C98.8899 14.4723 98.3769 14.5627 97.7713 14.5627ZM98.0153 13.1254C98.6481 13.1254 99.1814 13.0011 99.6153 12.7525C100.054 12.5039 100.384 12.183 100.605 11.7898C100.831 11.3966 100.944 10.983 100.944 10.5491V9.08474C100.876 9.16609 100.727 9.24067 100.497 9.30847C100.271 9.37174 100.009 9.42824 99.7102 9.47796C99.4165 9.52316 99.1295 9.56383 98.8492 9.59999C98.5735 9.63163 98.3498 9.65875 98.178 9.68135C97.7622 9.73558 97.3735 9.82372 97.0119 9.94576C96.6549 10.0633 96.3656 10.2418 96.1441 10.4813C95.9272 10.7164 95.8187 11.0373 95.8187 11.4441C95.8187 12 96.0244 12.4203 96.4357 12.7051C96.8515 12.9853 97.378 13.1254 98.0153 13.1254Z" fill="#F8F8F8"/>
<path d="M83.0661 14.3186V0.433904H84.6661V5.55932H84.8017C84.9192 5.37853 85.082 5.14802 85.2899 4.8678C85.5023 4.58305 85.8051 4.32995 86.1983 4.10848C86.5961 3.88249 87.1339 3.76949 87.8119 3.76949C88.6887 3.76949 89.4616 3.9887 90.1305 4.42712C90.7995 4.86554 91.3215 5.48701 91.6966 6.29153C92.0718 7.09605 92.2593 8.0452 92.2593 9.13898C92.2593 10.2418 92.0718 11.1977 91.6966 12.0068C91.3215 12.8113 90.8017 13.435 90.1373 13.878C89.4729 14.3164 88.7068 14.5356 87.839 14.5356C87.1701 14.5356 86.6345 14.4249 86.2322 14.2034C85.83 13.9774 85.5204 13.722 85.3034 13.4373C85.0865 13.148 84.9192 12.9085 84.8017 12.7186H84.6119V14.3186H83.0661ZM84.639 9.11186C84.639 9.8983 84.7543 10.5921 84.9848 11.1932C85.2153 11.7898 85.552 12.2576 85.9949 12.5966C86.4379 12.9311 86.9803 13.0983 87.6221 13.0983C88.291 13.0983 88.8492 12.922 89.2966 12.5695C89.7486 12.2124 90.0876 11.7333 90.3136 11.1322C90.5441 10.5266 90.6593 9.85311 90.6593 9.11186C90.6593 8.37966 90.5464 7.71977 90.3204 7.1322C90.0989 6.54011 89.7622 6.07232 89.3102 5.72882C88.8627 5.38079 88.3 5.20678 87.6221 5.20678C86.9712 5.20678 86.4243 5.37175 85.9814 5.7017C85.5385 6.02712 85.204 6.48362 84.978 7.07119C84.752 7.65424 84.639 8.33446 84.639 9.11186Z" fill="#F8F8F8"/>
<path d="M69.5543 14.5356C68.6865 14.5356 67.9204 14.3164 67.256 13.878C66.5916 13.435 66.0718 12.8113 65.6967 12.0068C65.3216 11.1977 65.134 10.2418 65.134 9.13898C65.134 8.0452 65.3216 7.09605 65.6967 6.29153C66.0718 5.48701 66.5939 4.86554 67.2628 4.42712C67.9317 3.9887 68.7046 3.76949 69.5814 3.76949C70.2594 3.76949 70.795 3.88249 71.1882 4.10848C71.586 4.32995 71.8888 4.58305 72.0967 4.8678C72.3091 5.14802 72.4741 5.37853 72.5916 5.55932H72.7272V0.433904H74.3272V14.3186H72.7814V12.7186H72.5916C72.4741 12.9085 72.3069 13.148 72.0899 13.4373C71.873 13.722 71.5634 13.9774 71.1611 14.2034C70.7588 14.4249 70.2233 14.5356 69.5543 14.5356ZM69.7713 13.0983C70.4131 13.0983 70.9555 12.9311 71.3984 12.5966C71.8413 12.2576 72.1781 11.7898 72.4086 11.1932C72.6391 10.5921 72.7543 9.8983 72.7543 9.11186C72.7543 8.33446 72.6413 7.65424 72.4153 7.07119C72.1894 6.48362 71.8549 6.02712 71.412 5.7017C70.969 5.37175 70.4221 5.20678 69.7713 5.20678C69.0933 5.20678 68.5283 5.38079 68.0764 5.72882C67.6289 6.07232 67.2922 6.54011 67.0662 7.1322C66.8447 7.71977 66.734 8.37966 66.734 9.11186C66.734 9.85311 66.847 10.5266 67.073 11.1322C67.3035 11.7333 67.6425 12.2124 68.0899 12.5695C68.5419 12.922 69.1024 13.0983 69.7713 13.0983Z" fill="#F8F8F8"/>
<path d="M57.9289 14.5627C57.269 14.5627 56.6702 14.4384 56.1323 14.1898C55.5944 13.9367 55.1673 13.5729 54.8509 13.0983C54.5346 12.6192 54.3764 12.0407 54.3764 11.3627C54.3764 10.7661 54.4939 10.2825 54.7289 9.91186C54.9639 9.53672 55.2781 9.24293 55.6713 9.0305C56.0645 8.81807 56.4984 8.65988 56.973 8.55592C57.4521 8.44745 57.9334 8.36158 58.417 8.2983C59.0498 8.21694 59.5628 8.15593 59.956 8.11525C60.3538 8.07005 60.643 7.99547 60.8238 7.89152C61.0091 7.78756 61.1018 7.60677 61.1018 7.34915V7.29491C61.1018 6.62598 60.9187 6.10621 60.5526 5.73559C60.1911 5.36497 59.6419 5.17966 58.9052 5.17966C58.1413 5.17966 57.5425 5.34689 57.1086 5.68135C56.6747 6.01581 56.3696 6.37288 56.1933 6.75254L54.6747 6.21016C54.9459 5.5774 55.3074 5.08474 55.7594 4.7322C56.2159 4.37514 56.7131 4.12655 57.2509 3.98644C57.7933 3.8418 58.3266 3.76949 58.8509 3.76949C59.1854 3.76949 59.5696 3.81017 60.0035 3.89152C60.4419 3.96836 60.8645 4.12881 61.2713 4.37288C61.6826 4.61694 62.0238 4.98531 62.295 5.47796C62.5662 5.97062 62.7018 6.6305 62.7018 7.45762V14.3186H61.1018V12.9085H61.0204C60.912 13.1345 60.7312 13.3763 60.4781 13.6339C60.225 13.8915 59.8882 14.1107 59.4679 14.2915C59.0476 14.4723 58.5346 14.5627 57.9289 14.5627ZM58.173 13.1254C58.8057 13.1254 59.3391 13.0011 59.773 12.7525C60.2114 12.5039 60.5413 12.183 60.7628 11.7898C60.9888 11.3966 61.1018 10.983 61.1018 10.5491V9.08474C61.034 9.16609 60.8848 9.24067 60.6543 9.30847C60.4283 9.37174 60.1662 9.42824 59.8679 9.47796C59.5741 9.52316 59.2871 9.56383 59.0069 9.59999C58.7312 9.63163 58.5074 9.65875 58.3357 9.68135C57.9199 9.73558 57.5312 9.82372 57.1696 9.94576C56.8125 10.0633 56.5233 10.2418 56.3018 10.4813C56.0848 10.7164 55.9764 11.0373 55.9764 11.4441C55.9764 12 56.182 12.4203 56.5933 12.7051C57.0091 12.9853 57.5357 13.1254 58.173 13.1254Z" fill="#F8F8F8"/>
<path d="M48.1187 14.5356C47.1154 14.5356 46.2498 14.3141 45.5221 13.8712C44.799 13.4237 44.2408 12.8 43.8476 12C43.4589 11.1955 43.2645 10.2599 43.2645 9.19321C43.2645 8.12655 43.4589 7.18643 43.8476 6.37288C44.2408 5.5548 44.7877 4.91751 45.4882 4.46101C46.1933 4 47.0159 3.76949 47.956 3.76949C48.4984 3.76949 49.034 3.85988 49.5628 4.04067C50.0916 4.22146 50.573 4.51525 51.0069 4.92203C51.4408 5.32429 51.7865 5.85762 52.0442 6.52203C52.3018 7.18643 52.4306 8.00451 52.4306 8.97626V9.65423H44.4035V8.27118H50.8035C50.8035 7.68361 50.686 7.15932 50.4509 6.6983C50.2204 6.23728 49.8905 5.87344 49.4611 5.60677C49.0363 5.34011 48.5346 5.20677 47.956 5.20677C47.3187 5.20677 46.7673 5.36497 46.3018 5.68135C45.8408 5.99322 45.486 6.39999 45.2374 6.90169C44.9888 7.40338 44.8645 7.94124 44.8645 8.51525V9.43728C44.8645 10.2237 45.0001 10.8904 45.2713 11.4373C45.547 11.9797 45.9289 12.3932 46.4171 12.678C46.9052 12.9582 47.4724 13.0983 48.1187 13.0983C48.5391 13.0983 48.9187 13.0395 49.2577 12.922C49.6012 12.8 49.8973 12.6192 50.1459 12.3797C50.3945 12.1356 50.5865 11.8328 50.7221 11.4712L52.2679 11.9051C52.1052 12.4294 51.8317 12.8904 51.4476 13.2881C51.0634 13.6813 50.5888 13.9887 50.0238 14.2102C49.4589 14.4271 48.8238 14.5356 48.1187 14.5356Z" fill="#F8F8F8"/>
<path d="M36.9663 14.3186V3.90508H38.512V5.47796H38.6205C38.8103 4.9627 39.1538 4.54462 39.651 4.22372C40.1482 3.90282 40.7086 3.74236 41.3324 3.74236C41.4499 3.74236 41.5968 3.74462 41.773 3.74914C41.9493 3.75366 42.0826 3.76044 42.173 3.76948V5.3966C42.1188 5.38304 41.9945 5.3627 41.8002 5.33558C41.6103 5.30395 41.4092 5.28813 41.1968 5.28813C40.6905 5.28813 40.2386 5.39434 39.8408 5.60677C39.4476 5.81468 39.1357 6.10395 38.9052 6.47457C38.6792 6.84067 38.5663 7.25875 38.5663 7.7288V14.3186H36.9663Z" fill="#F8F8F8"/>
<path d="M24.7662 14.3186V0.433904H29.6204C30.5876 0.433904 31.3854 0.601135 32.0136 0.935598C32.6419 1.26554 33.1097 1.71074 33.417 2.27119C33.7244 2.82712 33.878 3.44407 33.878 4.12204C33.878 4.71865 33.7718 5.2113 33.5594 5.6C33.3515 5.9887 33.0758 6.29605 32.7323 6.52203C32.3933 6.74802 32.0249 6.91526 31.6272 7.02373V7.15932C32.052 7.18644 32.4792 7.33559 32.9085 7.60678C33.3379 7.87797 33.6972 8.26667 33.9865 8.77288C34.2758 9.2791 34.4204 9.8983 34.4204 10.6305C34.4204 11.3266 34.2622 11.9525 33.9458 12.5085C33.6294 13.0644 33.13 13.5051 32.4475 13.8305C31.765 14.1559 30.8769 14.3186 29.7831 14.3186H24.7662ZM26.4475 12.8271H29.7831C30.8814 12.8271 31.6611 12.6147 32.1221 12.1898C32.5876 11.7604 32.8204 11.2407 32.8204 10.6305C32.8204 10.1605 32.7006 9.72655 32.4611 9.32881C32.2215 8.92655 31.8803 8.60565 31.4374 8.3661C30.9944 8.12203 30.4701 8 29.8645 8H26.4475V12.8271ZM26.4475 6.53559H29.5662C30.0724 6.53559 30.5289 6.43616 30.9357 6.23729C31.347 6.03842 31.6724 5.75819 31.9119 5.39661C32.156 5.03503 32.278 4.61017 32.278 4.12204C32.278 3.51187 32.0656 2.99435 31.6407 2.5695C31.2159 2.14012 30.5424 1.92543 29.6204 1.92543H26.4475V6.53559Z" fill="#F8F8F8"/>
<path d="M3.79661 14.3186L0 0.433904H1.70847L4.61017 11.7424H4.74576L7.70169 0.433904H9.59999L12.5559 11.7424H12.6915L15.5932 0.433904H17.3017L13.5051 14.3186H11.7695L8.70508 3.25424H8.5966L5.5322 14.3186H3.79661Z" fill="#F8F8F8"/>
</svg>
