<svg width="39" height="39" viewBox="0 0 39 39" fill="none" xmlns="http://www.w3.org/2000/svg">
<path d="M8.53125 18.2812H32.9062C33.2295 18.2812 33.5395 18.4097 33.768 18.6382C33.9966 18.8668 34.125 19.1768 34.125 19.5C34.125 19.8232 33.9966 20.1332 33.768 20.3618C33.5395 20.5903 33.2295 20.7188 32.9062 20.7188H8.53125C8.20802 20.7188 7.89802 20.5903 7.66946 20.3618C7.4409 20.1332 7.3125 19.8232 7.3125 19.5C7.3125 19.1768 7.4409 18.8668 7.66946 18.6382C7.89802 18.4097 8.20802 18.2812 8.53125 18.2812Z" fill="#DC3939"/>
<path d="M9.03604 19.5L19.1444 29.6059C19.3732 29.8348 19.5018 30.1452 19.5018 30.4688C19.5018 30.7925 19.3732 31.1028 19.1444 31.3317C18.9155 31.5605 18.6051 31.6891 18.2815 31.6891C17.9578 31.6891 17.6475 31.5605 17.4186 31.3317L6.44985 20.3629C6.33635 20.2497 6.2463 20.1152 6.18486 19.9672C6.12342 19.8191 6.0918 19.6604 6.0918 19.5C6.0918 19.3397 6.12342 19.181 6.18486 19.0329C6.2463 18.8849 6.33635 18.7504 6.44985 18.6372L17.4186 7.66839C17.6475 7.43954 17.9578 7.31097 18.2815 7.31097C18.6051 7.31097 18.9155 7.43954 19.1444 7.66839C19.3732 7.89724 19.5018 8.20762 19.5018 8.53127C19.5018 8.85491 19.3732 9.16529 19.1444 9.39414L9.03604 19.5Z" fill="#DC3939"/>
</svg>
