<svg width="35" height="35" viewBox="0 0 35 35" fill="none" xmlns="http://www.w3.org/2000/svg">
<path d="M28.4375 8.75H32.8125V35H4.375V8.75H8.75V6.5625H10.9375V8.75H26.25V6.5625H28.4375V8.75ZM30.625 10.9375H28.4375V13.125H30.625V10.9375ZM26.25 10.9375H10.9375V13.125H26.25V10.9375ZM8.75 10.9375H6.5625V13.125H8.75V10.9375ZM6.5625 32.8125H30.625V15.3125H6.5625V32.8125ZM4.375 6.5625V4.375H2.1875V28.4375H0V2.1875H4.375V0H6.5625V2.1875H21.875V0H24.0625V2.1875H28.4375V4.375H24.0625V6.5625H21.875V4.375H6.5625V6.5625H4.375ZM10.9375 24.0625V21.875H13.125V24.0625H10.9375ZM15.3125 24.0625V21.875H17.5V24.0625H15.3125ZM19.6875 24.0625V21.875H21.875V24.0625H19.6875ZM24.0625 24.0625V21.875H26.25V24.0625H24.0625ZM10.9375 28.4375V26.25H13.125V28.4375H10.9375ZM15.3125 28.4375V26.25H17.5V28.4375H15.3125ZM19.6875 28.4375V26.25H21.875V28.4375H19.6875ZM15.3125 19.6875V17.5H17.5V19.6875H15.3125ZM19.6875 19.6875V17.5H21.875V19.6875H19.6875ZM24.0625 19.6875V17.5H26.25V19.6875H24.0625Z" fill="#CACACA"/>
</svg>
