<svg width="36" height="32" viewBox="0 0 36 32" fill="none" xmlns="http://www.w3.org/2000/svg">
<path d="M2.5145 5.46456H34.5427L29.4856 22.3215H7.57159L2.5145 5.46456ZM2.5145 5.46456L1.25023 1.25032M14.3009 13.893H17.6723M17.6723 13.893H21.0437M17.6723 13.893V10.5217M17.6723 13.893V17.2644M16.0001 28.2215C16.0001 28.8921 15.7337 29.5352 15.2595 30.0094C14.7853 30.4836 14.1421 30.75 13.4715 30.75C12.8009 30.75 12.1578 30.4836 11.6836 30.0094C11.2094 29.5352 10.943 28.8921 10.943 28.2215M26.1142 28.2215C26.1142 28.8921 25.8478 29.5352 25.3737 30.0094C24.8995 30.4836 24.2563 30.75 23.5857 30.75C22.9151 30.75 22.2719 30.4836 21.7978 30.0094C21.3236 29.5352 21.0572 28.8921 21.0572 28.2215" stroke="#272727" stroke-width="2.5" stroke-linecap="round" stroke-linejoin="round"/>
</svg>
