<svg width="430" height="59" viewBox="0 0 430 59" fill="none" xmlns="http://www.w3.org/2000/svg">
<g clip-path="url(#clip0_51_3)">
<rect width="430" height="59" fill="#272727" fill-opacity="0.8"/>
<rect width="143.333" height="59" fill="#272727" fill-opacity="0.8"/>
<g clip-path="url(#clip1_51_3)">
<path d="M55.4551 35.5V26.2109H55.3223L52.5176 28.1953V26.2969L55.4629 24.2266H57.4707V35.5H55.4551ZM63.0413 35.5V26.2109H62.9085L60.1038 28.1953V26.2969L63.0491 24.2266H65.0569V35.5H63.0413ZM69.3228 28.1953C68.6119 28.1953 68.0807 27.6484 68.0807 26.9609C68.0807 26.2656 68.6119 25.7266 69.3228 25.7266C70.0416 25.7266 70.565 26.2656 70.565 26.9609C70.565 27.6484 70.0416 28.1953 69.3228 28.1953ZM69.3228 33.9922C68.6119 33.9922 68.0807 33.4531 68.0807 32.7578C68.0807 32.0625 68.6119 31.5234 69.3228 31.5234C70.0416 31.5234 70.565 32.0625 70.565 32.7578C70.565 33.4531 70.0416 33.9922 69.3228 33.9922ZM76.831 35.7266C74.3622 35.7266 72.745 34.3828 72.5966 32.4531L72.5888 32.3594H74.5107L74.5185 32.4453C74.6279 33.3984 75.5107 34.0781 76.831 34.0781C78.1357 34.0781 79.0029 33.3516 79.0029 32.3047V32.2891C79.0029 31.1016 78.1279 30.4453 76.6825 30.4453H75.3544V28.9453H76.6435C77.8857 28.9453 78.7138 28.2422 78.7138 27.2578V27.2422C78.7138 26.2109 78.0185 25.6016 76.8154 25.6016C75.6279 25.6016 74.8075 26.2344 74.706 27.2422L74.6982 27.3203H72.8232L72.831 27.2344C73.0029 25.2813 74.5419 24 76.8154 24C79.1357 24 80.6435 25.2109 80.6435 26.9766V26.9922C80.6435 28.3906 79.6357 29.3203 78.2841 29.6016V29.6406C79.9404 29.7969 81.0419 30.7812 81.0419 32.3438V32.3594C81.0419 34.3438 79.331 35.7266 76.831 35.7266ZM86.9875 35.7812C84.3079 35.7812 82.6985 33.5078 82.6985 29.8672V29.8516C82.6985 26.2109 84.3079 23.9453 86.9875 23.9453C89.6672 23.9453 91.2922 26.2109 91.2922 29.8516V29.8672C91.2922 33.5078 89.6672 35.7812 86.9875 35.7812ZM86.9875 34.1484C88.425 34.1484 89.261 32.5391 89.261 29.8672V29.8516C89.261 27.1797 88.425 25.5859 86.9875 25.5859C85.55 25.5859 84.7297 27.1797 84.7297 29.8516V29.8672C84.7297 32.5391 85.55 34.1484 86.9875 34.1484Z" fill="white"/>
</g>
<rect width="143.333" height="59" transform="translate(143.333)" fill="#272727" fill-opacity="0.8"/>
<rect x="152.5" y="11" width="125" height="37" rx="18.5" fill="black"/>
<rect width="143.333" height="59" transform="translate(286.667)" fill="#272727" fill-opacity="0.8"/>
<g clip-path="url(#clip2_51_3)">
<path d="M328.333 26.5C328.333 25.9477 328.781 25.5 329.333 25.5H330.333C330.886 25.5 331.333 25.9477 331.333 26.5V34.5C331.333 35.0523 330.886 35.5 330.333 35.5H329.333C328.781 35.5 328.333 35.0523 328.333 34.5V26.5Z" fill="white"/>
<path d="M333.333 24.5C333.333 23.9477 333.781 23.5 334.333 23.5H335.333C335.886 23.5 336.333 23.9477 336.333 24.5V34.5C336.333 35.0523 335.886 35.5 335.333 35.5H334.333C333.781 35.5 333.333 35.0523 333.333 34.5V24.5Z" fill="white"/>
<path d="M323.333 30C323.333 29.4477 323.781 29 324.333 29H325.333C325.886 29 326.333 29.4477 326.333 30V34.5C326.333 35.0523 325.886 35.5 325.333 35.5H324.333C323.781 35.5 323.333 35.0523 323.333 34.5V30Z" fill="white"/>
<path d="M318.333 32.5C318.333 31.9477 318.781 31.5 319.333 31.5H320.333C320.886 31.5 321.333 31.9477 321.333 32.5V34.5C321.333 35.0523 320.886 35.5 320.333 35.5H319.333C318.781 35.5 318.333 35.0523 318.333 34.5V32.5Z" fill="white"/>
</g>
<g clip-path="url(#clip3_51_3)">
<path fill-rule="evenodd" clip-rule="evenodd" d="M352.883 26.0875C355.35 26.0876 357.722 27.0551 359.51 28.7898C359.644 28.9238 359.859 28.9221 359.992 28.786L361.279 27.4605C361.346 27.3915 361.383 27.298 361.383 27.2008C361.382 27.1035 361.344 27.0105 361.276 26.9423C356.584 22.3526 349.182 22.3526 344.49 26.9423C344.422 27.0105 344.383 27.1035 344.383 27.2007C344.382 27.2979 344.42 27.3914 344.487 27.4605L345.774 28.786C345.906 28.9223 346.122 28.924 346.256 28.7898C348.044 27.0549 350.416 26.0875 352.883 26.0875ZM352.919 30.0894C354.274 30.0893 355.581 30.6035 356.585 31.532C356.721 31.6638 356.935 31.6609 357.068 31.5256L358.353 30.2C358.421 30.1304 358.458 30.0361 358.457 29.9381C358.456 29.8401 358.417 29.7466 358.348 29.6784C355.289 26.7739 350.551 26.7739 347.492 29.6784C347.423 29.7466 347.384 29.8401 347.383 29.9382C347.382 30.0362 347.42 30.1305 347.487 30.2L348.772 31.5256C348.905 31.6609 349.119 31.6638 349.255 31.532C350.259 30.6041 351.564 30.09 352.919 30.0894ZM355.532 32.6767C355.534 32.775 355.496 32.8698 355.428 32.9386L353.204 35.2289C353.139 35.2962 353.05 35.334 352.958 35.334C352.865 35.334 352.776 35.2962 352.711 35.2289L350.487 32.9386C350.419 32.8697 350.381 32.7749 350.383 32.6766C350.385 32.5783 350.427 32.4853 350.498 32.4194C351.918 31.1935 353.997 31.1935 355.417 32.4194C355.489 32.4853 355.53 32.5784 355.532 32.6767Z" fill="white"/>
</g>
<g clip-path="url(#clip4_51_3)">
<path opacity="0.35" d="M374.633 23.5275H391.633C393.551 23.5275 395.105 25.0822 395.105 27V32C395.105 33.9178 393.551 35.4725 391.633 35.4725H374.633C372.715 35.4725 371.16 33.9178 371.16 32V27C371.16 25.0822 372.715 23.5275 374.633 23.5275Z" stroke="white" stroke-width="1.05509"/>
<path opacity="0.4" d="M396.633 28V32.2203C397.482 31.8629 398.034 31.0314 398.034 30.1102C398.034 29.1889 397.482 28.3574 396.633 28Z" fill="white"/>
<path d="M372.633 27C372.633 25.8954 373.528 25 374.633 25H391.633C392.737 25 393.633 25.8954 393.633 27V32C393.633 33.1046 392.737 34 391.633 34H374.633C373.528 34 372.633 33.1046 372.633 32V27Z" fill="white"/>
</g>
</g>
<defs>
<clipPath id="clip0_51_3">
<rect width="430" height="59" fill="white"/>
</clipPath>
<clipPath id="clip1_51_3">
<rect width="40" height="13" fill="white" transform="translate(51.6667 23)"/>
</clipPath>
<clipPath id="clip2_51_3">
<rect width="18" height="12" fill="white" transform="translate(318.333 23.5)"/>
</clipPath>
<clipPath id="clip3_51_3">
<rect width="18" height="12" fill="white" transform="translate(344.333 23.5)"/>
</clipPath>
<clipPath id="clip4_51_3">
<rect width="28" height="13" fill="white" transform="translate(370.333 23)"/>
</clipPath>
</defs>
</svg>
