<svg width="12" height="15" viewBox="0 0 12 15" fill="none" xmlns="http://www.w3.org/2000/svg">
<path d="M0 15V0H6.19629C7.31934 0 8.28857 0.219727 9.104 0.65918C9.92432 1.09375 10.5566 1.70166 11.001 2.48291C11.4453 3.25928 11.6675 4.1626 11.6675 5.19287C11.6675 6.22803 11.4404 7.13379 10.9863 7.91016C10.5371 8.68164 9.89502 9.27978 9.06006 9.70459C8.2251 10.1294 7.23389 10.3418 6.08643 10.3418H2.26318V7.48535H5.4126C5.95947 7.48535 6.41602 7.39014 6.78223 7.19971C7.15332 7.00928 7.43408 6.74316 7.62451 6.40137C7.81494 6.05469 7.91016 5.65185 7.91016 5.19287C7.91016 4.729 7.81494 4.32861 7.62451 3.9917C7.43408 3.6499 7.15332 3.38623 6.78223 3.20068C6.41113 3.01514 5.95459 2.92236 5.4126 2.92236H3.62549V15H0Z" fill="white"/>
</svg>
