<svg width="47" height="47" viewBox="0 0 47 47" fill="none" xmlns="http://www.w3.org/2000/svg">
<path d="M9.40025 12.925V24.3812C9.40025 25.5169 10.3209 26.4375 11.4565 26.4375C12.5921 26.4375 13.5128 27.3581 13.5128 28.4937V31.725L18.112 27.1258C18.5527 26.6851 19.1504 26.4375 19.7737 26.4375H26.4378C27.7356 26.4375 28.7878 25.3854 28.7878 24.0875V12.925C28.7878 11.6271 27.7356 10.575 26.4378 10.575H11.7503C10.4524 10.575 9.40025 11.6271 9.40025 12.925Z" stroke="white" stroke-width="2.32696" stroke-linecap="round" stroke-linejoin="round"/>
<path d="M22.9126 31.1375L28.2001 36.425V33.4875C28.2001 32.1896 29.2522 31.1375 30.5501 31.1375H35.8376C37.1355 31.1375 38.1876 30.0854 38.1876 28.7875V17.625C38.1876 16.3271 37.1355 15.275 35.8376 15.275H32.3126" stroke="white" stroke-width="2.32696" stroke-linecap="round" stroke-linejoin="round"/>
<path d="M18.8 15.7972L18.8 14.7528" stroke="white" stroke-width="2.06841" stroke-linecap="round"/>
<path d="M14.1001 16.3194H23.5001" stroke="white" stroke-width="1.55131" stroke-linecap="round"/>
<path d="M16.1885 16.3194C16.3625 18.0602 17.8596 21.7505 22.4551 22.5861" stroke="white" stroke-width="1.55131" stroke-linecap="round"/>
<path d="M21.4115 16.3194C21.2375 18.0602 19.7404 21.7505 15.1449 22.5861" stroke="white" stroke-width="1.55131" stroke-linecap="round"/>
</svg>
