<svg width="82" height="19" viewBox="0 0 82 19" fill="none" xmlns="http://www.w3.org/2000/svg">
<path d="M82 0.913545V14.8756H78.6663V0.913545H82Z" fill="#CACACA"/>
<path d="M70.3695 15.0529C69.7014 15.0529 69.1082 14.9415 68.5901 14.7188C68.0765 14.4916 67.6698 14.1507 67.3698 13.6962C67.0744 13.2372 66.9267 12.6622 66.9267 11.9714C66.9267 11.3897 67.0289 10.8988 67.2335 10.4988C67.438 10.0989 67.7198 9.77392 68.0788 9.52395C68.4379 9.27398 68.8515 9.08536 69.3196 8.95811C69.7877 8.8263 70.2877 8.73768 70.8194 8.69223C71.4148 8.63769 71.8943 8.58087 72.2579 8.52179C72.6215 8.45816 72.8851 8.36953 73.0487 8.25591C73.2169 8.13774 73.301 7.97185 73.301 7.75824V7.72415C73.301 7.37419 73.1805 7.10376 72.9396 6.91288C72.6988 6.72199 72.3738 6.62654 71.9647 6.62654C71.5239 6.62654 71.1694 6.72199 70.9012 6.91288C70.6331 7.10376 70.4626 7.36737 70.3899 7.7037L67.3153 7.59462C67.4062 6.95833 67.6402 6.39021 68.0175 5.89026C68.3992 5.38577 68.9219 4.99036 69.5855 4.70403C70.2536 4.41315 71.0558 4.26771 71.992 4.26771C72.6601 4.26771 73.276 4.34725 73.8395 4.50632C74.4031 4.66085 74.894 4.8881 75.3121 5.18807C75.7302 5.48349 76.0529 5.84708 76.2802 6.27885C76.512 6.71063 76.6279 7.20375 76.6279 7.75824V14.8756H73.4918V13.4167H73.41C73.2237 13.7712 72.9851 14.0712 72.6942 14.3166C72.4079 14.562 72.0693 14.7461 71.6784 14.8688C71.2921 14.9915 70.8558 15.0529 70.3695 15.0529ZM71.3989 12.8713C71.758 12.8713 72.0806 12.7986 72.367 12.6532C72.6578 12.5077 72.8896 12.3077 73.0623 12.0532C73.2351 11.7942 73.3214 11.4942 73.3214 11.1533V10.158C73.226 10.208 73.1101 10.2534 72.9737 10.2943C72.8419 10.3352 72.6965 10.3739 72.5374 10.4102C72.3783 10.4466 72.2147 10.4784 72.0466 10.5057C71.8784 10.5329 71.717 10.5579 71.5625 10.5807C71.2489 10.6306 70.9808 10.7079 70.7581 10.8124C70.5399 10.917 70.3717 11.0533 70.2536 11.2215C70.1399 11.3851 70.0831 11.5805 70.0831 11.8078C70.0831 12.1532 70.2058 12.4168 70.4513 12.5986C70.7012 12.7804 71.0171 12.8713 71.3989 12.8713Z" fill="#CACACA"/>
<path d="M55.1377 18.8025V4.40406H58.4373V6.19705H58.5396C58.6759 5.8789 58.8691 5.57212 59.119 5.27669C59.3736 4.98127 59.6963 4.74039 60.0871 4.55405C60.4825 4.36316 60.9552 4.26771 61.5051 4.26771C62.2323 4.26771 62.9118 4.4586 63.5436 4.84038C64.1799 5.22215 64.6934 5.81072 65.0843 6.60609C65.4752 7.40146 65.6706 8.41498 65.6706 9.64667C65.6706 10.8329 65.482 11.826 65.1047 12.6259C64.7321 13.4258 64.2276 14.0257 63.5913 14.4257C62.9595 14.8256 62.2573 15.0256 61.4847 15.0256C60.9575 15.0256 60.5007 14.9393 60.1144 14.7666C59.7281 14.5938 59.4031 14.3666 59.1395 14.0848C58.8804 13.803 58.6805 13.5008 58.5396 13.1781H58.4714V18.8025H55.1377ZM58.4032 9.63985C58.4032 10.2034 58.4782 10.6943 58.6282 11.1124C58.7827 11.5305 59.0032 11.8555 59.2895 12.0873C59.5804 12.3146 59.928 12.4282 60.3325 12.4282C60.7416 12.4282 61.0893 12.3146 61.3756 12.0873C61.6619 11.8555 61.8778 11.5305 62.0233 11.1124C62.1733 10.6943 62.2482 10.2034 62.2482 9.63985C62.2482 9.07627 62.1733 8.58769 62.0233 8.1741C61.8778 7.76051 61.6619 7.44009 61.3756 7.21284C61.0938 6.9856 60.7461 6.87197 60.3325 6.87197C59.9235 6.87197 59.5758 6.98332 59.2895 7.20603C59.0032 7.42873 58.7827 7.74687 58.6282 8.16047C58.4782 8.57406 58.4032 9.06718 58.4032 9.63985Z" fill="#CACACA"/>
<path d="M49.682 14.8756V4.40406H53.0157V14.8756H49.682ZM51.3522 3.18374C50.8841 3.18374 50.4819 3.02921 50.1456 2.72016C49.8092 2.40655 49.6411 2.02932 49.6411 1.58846C49.6411 1.15215 49.8092 0.77946 50.1456 0.470403C50.4819 0.156801 50.8841 0 51.3522 0C51.8249 0 52.2272 0.156801 52.5589 0.470403C52.8953 0.77946 53.0634 1.15215 53.0634 1.58846C53.0634 2.02932 52.8953 2.40655 52.5589 2.72016C52.2272 3.02921 51.8249 3.18374 51.3522 3.18374Z" fill="#CACACA"/>
<path d="M43.1153 15.0733C42.0108 15.0733 41.0632 14.8461 40.2724 14.3916C39.4861 13.9371 38.8816 13.3054 38.459 12.4964C38.0363 11.6828 37.8249 10.742 37.8249 9.67394C37.8249 8.60133 38.0363 7.66052 38.459 6.85152C38.8862 6.03797 39.4929 5.40395 40.2792 4.94946C41.07 4.49496 42.0131 4.26771 43.1084 4.26771C44.0765 4.26771 44.9196 4.4427 45.6377 4.79266C46.3604 5.14262 46.9239 5.63802 47.3284 6.27885C47.7375 6.91515 47.9534 7.66279 47.9761 8.52179H44.8605C44.7969 7.98549 44.6151 7.56508 44.3151 7.26056C44.0197 6.95605 43.6334 6.8038 43.1562 6.8038C42.7698 6.8038 42.4312 6.91288 42.1404 7.13103C41.8495 7.34465 41.6222 7.66279 41.4586 8.08547C41.2996 8.50361 41.22 9.02173 41.22 9.63985C41.22 10.258 41.2996 10.7806 41.4586 11.2079C41.6222 11.6305 41.8495 11.951 42.1404 12.1691C42.4312 12.3827 42.7698 12.4895 43.1562 12.4895C43.4652 12.4895 43.7379 12.4236 43.9743 12.2918C44.2151 12.16 44.4128 11.9669 44.5674 11.7123C44.7219 11.4533 44.8196 11.1397 44.8605 10.7715H47.9761C47.9443 11.6351 47.7284 12.3895 47.3284 13.0349C46.933 13.6803 46.3763 14.1825 45.6582 14.5416C44.9446 14.8961 44.097 15.0733 43.1153 15.0733Z" fill="#CACACA"/>
<path d="M29.3933 8.90357V14.8756H26.0596V4.40406H29.2297V6.32658H29.3456C29.5774 5.68574 29.9728 5.18352 30.5319 4.81993C31.0909 4.45178 31.7567 4.26771 32.5294 4.26771C33.2656 4.26771 33.9042 4.4336 34.4451 4.76539C34.9905 5.09262 35.4131 5.55166 35.7131 6.14251C36.0176 6.72881 36.1676 7.41509 36.1631 8.20137V14.8756H32.8293V8.85584C32.8339 8.27409 32.6862 7.81959 32.3862 7.49236C32.0908 7.16512 31.6795 7.0015 31.1522 7.0015C30.8023 7.0015 30.4932 7.07877 30.2251 7.2333C29.9615 7.38328 29.7569 7.59916 29.6115 7.88095C29.4706 8.16274 29.3979 8.50361 29.3933 8.90357Z" fill="#CACACA"/>
<path d="M20.6039 14.8756V4.40406H23.9377V14.8756H20.6039ZM22.2742 3.18374C21.8061 3.18374 21.4038 3.02921 21.0675 2.72016C20.7312 2.40655 20.563 2.02932 20.563 1.58846C20.563 1.15215 20.7312 0.77946 21.0675 0.470403C21.4038 0.156801 21.8061 0 22.2742 0C22.7469 0 23.1491 0.156801 23.4809 0.470403C23.8172 0.77946 23.9854 1.15215 23.9854 1.58846C23.9854 2.02932 23.8172 2.40655 23.4809 2.72016C23.1491 3.02921 22.7469 3.18374 22.2742 3.18374Z" fill="#CACACA"/>
<path d="M12.5236 14.8756V4.40407H15.7619V6.31295H15.871C16.0619 5.62211 16.3732 5.10853 16.805 4.77221C17.2367 4.43133 17.739 4.2609 18.3116 4.2609C18.4661 4.2609 18.6252 4.27226 18.7888 4.29499C18.9525 4.31317 19.1047 4.34271 19.2456 4.38361V7.28102C19.0865 7.22648 18.8775 7.1833 18.6184 7.15149C18.3639 7.11967 18.1366 7.10377 17.9367 7.10377C17.5412 7.10377 17.1845 7.19239 16.8663 7.36965C16.5527 7.54236 16.305 7.78551 16.1232 8.09911C15.946 8.40817 15.8573 8.77177 15.8573 9.1899V14.8756H12.5236Z" fill="#CACACA"/>
<path d="M0 14.8756V0.913545H5.76755C6.81288 0.913545 7.71506 1.11807 8.47407 1.52711C9.23762 1.93161 9.82619 2.49746 10.2398 3.22465C10.6534 3.9473 10.8602 4.78812 10.8602 5.7471C10.8602 6.71063 10.6488 7.55372 10.2261 8.27637C9.80801 8.99447 9.21035 9.55123 8.43316 9.94664C7.65597 10.3421 6.73335 10.5398 5.66528 10.5398H2.10659V7.88096H5.03808C5.54712 7.88096 5.97207 7.79233 6.31294 7.61508C6.65836 7.43783 6.91969 7.19013 7.09694 6.87198C7.2742 6.54929 7.36282 6.17433 7.36282 5.7471C7.36282 5.31533 7.2742 4.94265 7.09694 4.62904C6.91969 4.3109 6.65836 4.06547 6.31294 3.89276C5.96752 3.72005 5.54257 3.6337 5.03808 3.6337H3.37463V14.8756H0Z" fill="#CACACA"/>
</svg>
