<svg width="384" height="65" viewBox="0 0 384 65" fill="none" xmlns="http://www.w3.org/2000/svg">
<path d="M0 8C0 3.58172 3.58172 0 8 0H376C380.418 0 384 3.58172 384 8V57C384 61.4183 380.418 65 376 65H7.99999C3.58171 65 0 61.4183 0 57V8Z" fill="#DC3939"/>
<path d="M142.952 42V19.5418H147.7V38.0852H157.328V42H142.952Z" fill="white"/>
<path d="M167.995 42.329C166.292 42.329 164.819 41.9671 163.576 41.2434C162.341 40.5123 161.387 39.4961 160.714 38.1948C160.041 36.8862 159.705 35.3693 159.705 33.644C159.705 31.9041 160.041 30.3834 160.714 29.0822C161.387 27.7736 162.341 26.7574 163.576 26.0336C164.819 25.3026 166.292 24.937 167.995 24.937C169.699 24.937 171.168 25.3026 172.404 26.0336C173.646 26.7574 174.604 27.7736 175.277 29.0822C175.949 30.3834 176.286 31.9041 176.286 33.644C176.286 35.3693 175.949 36.8862 175.277 38.1948C174.604 39.4961 173.646 40.5123 172.404 41.2434C171.168 41.9671 169.699 42.329 167.995 42.329ZM168.017 38.7102C168.792 38.7102 169.439 38.4909 169.958 38.0523C170.477 37.6063 170.868 36.9995 171.132 36.2319C171.402 35.4643 171.537 34.5907 171.537 33.6111C171.537 32.6315 171.402 31.7578 171.132 30.9902C170.868 30.2226 170.477 29.6158 169.958 29.1699C169.439 28.7239 168.792 28.501 168.017 28.501C167.235 28.501 166.577 28.7239 166.043 29.1699C165.517 29.6158 165.119 30.2226 164.848 30.9902C164.585 31.7578 164.453 32.6315 164.453 33.6111C164.453 34.5907 164.585 35.4643 164.848 36.2319C165.119 36.9995 165.517 37.6063 166.043 38.0523C166.577 38.4909 167.235 38.7102 168.017 38.7102Z" fill="white"/>
<path d="M186.912 48.6673C185.398 48.6673 184.101 48.4589 183.019 48.0422C181.944 47.6328 181.089 47.0736 180.453 46.3644C179.817 45.6553 179.404 44.8584 179.213 43.9739L183.534 43.3927C183.666 43.729 183.874 44.0433 184.159 44.3357C184.444 44.6282 184.821 44.8621 185.289 45.0376C185.764 45.2203 186.341 45.3117 187.021 45.3117C188.037 45.3117 188.874 45.0631 189.532 44.566C190.198 44.0762 190.53 43.2538 190.53 42.0987V39.0173H190.333C190.128 39.4852 189.821 39.9274 189.412 40.3441C189.002 40.7609 188.476 41.1008 187.833 41.364C187.189 41.6272 186.422 41.7588 185.53 41.7588C184.265 41.7588 183.114 41.4663 182.076 40.8815C181.045 40.2893 180.222 39.3865 179.608 38.1729C179.001 36.952 178.698 35.4095 178.698 33.5453C178.698 31.6372 179.009 30.0435 179.63 28.7641C180.252 27.4848 181.078 26.5271 182.108 25.8911C183.147 25.2551 184.283 24.937 185.519 24.937C186.462 24.937 187.251 25.0979 187.887 25.4195C188.523 25.7339 189.035 26.1287 189.423 26.6039C189.817 27.0717 190.121 27.5323 190.333 27.9856H190.508V25.1564H195.147V42.1645C195.147 43.5974 194.796 44.7963 194.094 45.7613C193.392 46.7263 192.42 47.4501 191.177 47.9326C189.942 48.4224 188.52 48.6673 186.912 48.6673ZM187.01 38.2497C187.763 38.2497 188.399 38.0632 188.918 37.6904C189.445 37.3102 189.847 36.7693 190.125 36.0674C190.41 35.3583 190.552 34.5103 190.552 33.5234C190.552 32.5364 190.413 31.6811 190.135 30.9573C189.858 30.2263 189.456 29.6597 188.929 29.2576C188.403 28.8555 187.763 28.6545 187.01 28.6545C186.243 28.6545 185.596 28.8628 185.069 29.2795C184.543 29.6889 184.144 30.2592 183.874 30.9902C183.603 31.7213 183.468 32.5657 183.468 33.5234C183.468 34.4957 183.603 35.3364 183.874 36.0455C184.152 36.7473 184.55 37.292 185.069 37.6794C185.596 38.0596 186.243 38.2497 187.01 38.2497Z" fill="white"/>
<path d="M206.011 42V25.1564H210.683V42H206.011ZM208.358 22.9851C207.664 22.9851 207.068 22.7548 206.571 22.2943C206.081 21.8264 205.836 21.2671 205.836 20.6165C205.836 19.9731 206.081 19.4212 206.571 18.9606C207.068 18.4927 207.664 18.2588 208.358 18.2588C209.053 18.2588 209.645 18.4927 210.135 18.9606C210.632 19.4212 210.88 19.9731 210.88 20.6165C210.88 21.2671 210.632 21.8264 210.135 22.2943C209.645 22.7548 209.053 22.9851 208.358 22.9851Z" fill="white"/>
<path d="M219.096 32.2623V42H214.425V25.1564H218.877V28.1281H219.075C219.447 27.1485 220.072 26.3736 220.95 25.8034C221.827 25.2258 222.891 24.937 224.141 24.937C225.31 24.937 226.33 25.1929 227.2 25.7047C228.07 26.2164 228.746 26.9475 229.229 27.8978C229.711 28.8409 229.953 29.9667 229.953 31.2753V42H225.281V32.1087C225.289 31.078 225.025 30.2738 224.492 29.6963C223.958 29.1114 223.223 28.819 222.288 28.819C221.659 28.819 221.103 28.9542 220.621 29.2247C220.146 29.4952 219.773 29.89 219.502 30.409C219.239 30.9208 219.104 31.5385 219.096 32.2623Z" fill="white"/>
</svg>
