<svg width="35" height="35" viewBox="0 0 35 35" fill="none" xmlns="http://www.w3.org/2000/svg">
<g clip-path="url(#clip0_123_796)">
<path d="M17.5 4.375C16.4668 4.37346 15.4664 4.73763 14.676 5.40301C13.8856 6.06839 13.3561 6.99204 13.1815 8.01037C13.0068 9.02869 13.1982 10.076 13.7217 10.9667C14.2452 11.8575 15.067 12.5342 16.0417 12.8771V16.0417H11.6667C10.5063 16.0417 9.39355 16.5026 8.57308 17.3231C7.75261 18.1435 7.29167 19.2563 7.29167 20.4167V22.1229C6.31824 22.4669 5.49778 23.144 4.97531 24.0345C4.45284 24.925 4.262 25.9715 4.43653 26.9891C4.61105 28.0066 5.13971 28.9298 5.92904 29.5952C6.71838 30.2607 7.71757 30.6257 8.75 30.6257C9.78243 30.6257 10.7816 30.2607 11.571 29.5952C12.3603 28.9298 12.889 28.0066 13.0635 26.9891C13.238 25.9715 13.0472 24.925 12.5247 24.0345C12.0022 23.144 11.1818 22.4669 10.2083 22.1229V20.4167C10.2083 20.0299 10.362 19.659 10.6355 19.3855C10.909 19.112 11.2799 18.9583 11.6667 18.9583H23.3333C23.7201 18.9583 24.091 19.112 24.3645 19.3855C24.638 19.659 24.7917 20.0299 24.7917 20.4167V22.1229C23.8182 22.4669 22.9978 23.144 22.4753 24.0345C21.9528 24.925 21.762 25.9715 21.9365 26.9891C22.1111 28.0066 22.6397 28.9298 23.429 29.5952C24.2184 30.2607 25.2176 30.6257 26.25 30.6257C27.2824 30.6257 28.2816 30.2607 29.071 29.5952C29.8603 28.9298 30.389 28.0066 30.5635 26.9891C30.738 25.9715 30.5472 24.925 30.0247 24.0345C29.5022 23.144 28.6818 22.4669 27.7083 22.1229V20.4167C27.7083 19.2563 27.2474 18.1435 26.4269 17.3231C25.6065 16.5026 24.4937 16.0417 23.3333 16.0417H18.9583V12.8771C19.9313 12.5327 20.7512 11.8556 21.2732 10.9653C21.7953 10.075 21.9859 9.02881 21.8115 8.01158C21.637 6.99436 21.1086 6.07153 20.3197 5.40611C19.5308 4.74068 18.5321 4.37548 17.5 4.375Z" fill="#CACACA"/>
</g>
<defs>
<clipPath id="clip0_123_796">
<rect width="35" height="35" fill="white"/>
</clipPath>
</defs>
</svg>
