<svg width="28" height="28" viewBox="0 0 28 28" fill="none" xmlns="http://www.w3.org/2000/svg">
<path d="M25.9759 0.69204L26.7277 1.45167C27.7636 2.4997 27.6069 4.35757 26.3747 5.60129L10.8707 21.2664L5.84759 23.1229C5.21683 23.3573 4.60264 23.0534 4.47776 22.447C4.43556 22.227 4.45543 21.9995 4.5351 21.7904L6.40827 16.6713L21.8689 1.04868C23.1011 -0.19505 24.9399 -0.355988 25.9759 0.69204ZM10.1941 2.24992C10.3614 2.24992 10.5271 2.28322 10.6817 2.34793C10.8363 2.41263 10.9768 2.50747 11.0951 2.62702C11.2135 2.74658 11.3073 2.88851 11.3714 3.04472C11.4354 3.20093 11.4684 3.36835 11.4684 3.53742C11.4684 3.7065 11.4354 3.87392 11.3714 4.03013C11.3073 4.18634 11.2135 4.32827 11.0951 4.44783C10.9768 4.56738 10.8363 4.66222 10.6817 4.72692C10.5271 4.79163 10.3614 4.82493 10.1941 4.82493H5.09705C4.42114 4.82493 3.77291 5.09622 3.29497 5.57913C2.81703 6.06204 2.54853 6.717 2.54853 7.39994V22.85C2.54853 23.5329 2.81703 24.1879 3.29497 24.6708C3.77291 25.1537 4.42114 25.425 5.09705 25.425H20.3882C21.0641 25.425 21.7124 25.1537 22.1903 24.6708C22.6682 24.1879 22.9367 23.5329 22.9367 22.85V17.7C22.9367 17.3585 23.071 17.031 23.31 16.7896C23.5489 16.5481 23.873 16.4125 24.211 16.4125C24.549 16.4125 24.8731 16.5481 25.112 16.7896C25.351 17.031 25.4853 17.3585 25.4853 17.7V22.85C25.4853 24.2159 24.9483 25.5258 23.9924 26.4916C23.0365 27.4574 21.74 28 20.3882 28H5.09705C3.74523 28 2.44877 27.4574 1.49289 26.4916C0.537009 25.5258 0 24.2159 0 22.85V7.39994C0 6.03407 0.537009 4.72414 1.49289 3.75833C2.44877 2.79251 3.74523 2.24992 5.09705 2.24992H10.1941Z" fill="#F8F8F8"/>
</svg>
