<svg width="430" height="140" viewBox="0 0 430 140" fill="none" xmlns="http://www.w3.org/2000/svg">
<path d="M215 120C236.24 120 254.902 108.964 265.565 92.3127C275.321 77.0763 290.868 61.9754 308.892 63.546C354.507 67.5208 430 70.9367 430 50V140H0L0 50C0 72.2674 75.0536 68.3871 120.708 63.967C138.868 62.2087 154.722 77.3888 164.673 92.6816C175.375 109.126 193.917 120 215 120Z" fill="#DC3939"/>
<path d="M265 50C265 77.6142 242.614 100 215 100C187.386 100 165 77.6142 165 50C165 22.3858 187.386 0 215 0C242.614 0 265 22.3858 265 50Z" fill="#DC3939"/>
<path d="M218.446 24.0607C217.59 23.3742 216.526 23 215.429 23C214.331 23 213.267 23.3742 212.411 24.0607L195.804 37.3828C195.241 37.8346 194.787 38.4071 194.474 39.058C194.162 39.7089 194 40.4216 194 41.1436V65.315C194 66.5937 194.508 67.82 195.412 68.7242C196.316 69.6284 197.543 70.1364 198.821 70.1364H204.179C205.457 70.1364 206.684 69.6284 207.588 68.7242C208.492 67.82 209 66.5937 209 65.315V53.5293C209 52.0507 210.2 50.8507 211.679 50.8507H219.179C220.657 50.8507 221.857 52.0507 221.857 53.5293V65.315C221.857 66.5937 222.365 67.82 223.269 68.7242C224.173 69.6284 225.4 70.1364 226.679 70.1364H232.036C233.314 70.1364 234.541 69.6284 235.445 68.7242C236.349 67.82 236.857 66.5937 236.857 65.315V41.1436C236.857 40.4216 236.695 39.7089 236.383 39.058C236.07 38.4071 235.616 37.8346 235.053 37.3828L218.446 24.0607Z" fill="#F2F2F2"/>
<path fill-rule="evenodd" clip-rule="evenodd" d="M336.5 98.5C336.5 109.131 326.649 117.75 314.5 117.75C310.595 117.766 306.744 116.842 303.272 115.055L292.5 117.75L296.179 109.162C293.856 106.109 292.5 102.443 292.5 98.5C292.5 87.8685 302.35 79.25 314.5 79.25C326.649 79.25 336.5 87.8685 336.5 98.5ZM306.25 95.75H300.75V101.25H306.25V95.75ZM328.25 95.75H322.75V101.25H328.25V95.75ZM311.75 95.75H317.25V101.25H311.75V95.75Z" fill="#F8F8F8"/>
<path d="M388.5 79.5937C386.221 79.5937 384.035 80.4991 382.423 82.1108C380.812 83.7224 379.906 85.9083 379.906 88.1875C379.906 90.4667 380.812 92.6525 382.423 94.2642C384.035 95.8758 386.221 96.7812 388.5 96.7812C390.779 96.7812 392.965 95.8758 394.577 94.2642C396.188 92.6525 397.094 90.4667 397.094 88.1875C397.094 85.9083 396.188 83.7224 394.577 82.1108C392.965 80.4991 390.779 79.5937 388.5 79.5937ZM379.333 101.365C377.054 101.365 374.868 102.27 373.257 103.882C371.645 105.493 370.74 107.679 370.74 109.958V112.681C370.74 114.409 371.991 115.88 373.696 116.157C383.5 117.759 393.5 117.759 403.304 116.157C404.129 116.023 404.88 115.599 405.421 114.963C405.963 114.326 406.26 113.517 406.26 112.681V109.958C406.26 107.679 405.355 105.493 403.743 103.882C402.132 102.27 399.946 101.365 397.667 101.365H396.887C396.463 101.365 396.042 101.433 395.641 101.562L393.656 102.21C390.306 103.304 386.694 103.304 383.344 102.21L381.359 101.562C380.957 101.431 380.537 101.364 380.115 101.365H379.333Z" fill="#F8F8F8"/>
<path d="M139.017 86.4167C137.937 85.3293 136.653 84.466 135.238 83.8765C133.824 83.287 132.307 82.983 130.774 82.9818C127.876 82.9823 125.083 84.0712 122.949 86.0329C120.815 84.0708 118.022 82.9819 115.123 82.9818C113.589 82.9834 112.07 83.2884 110.654 83.8792C109.238 84.4701 107.953 85.3351 106.873 86.4245C102.265 91.0521 102.267 98.2901 106.877 102.898L122.949 118.97L139.021 102.898C143.631 98.2901 143.633 91.0521 139.017 86.4167Z" fill="#F8F8F8"/>
<g clip-path="url(#clip0_123_248)">
<path fill-rule="evenodd" clip-rule="evenodd" d="M54.7227 77.9317C53.8748 77.5833 52.7977 77.5833 50.6458 77.5833C48.4939 77.5833 47.4191 77.5833 46.5689 77.9317C45.4402 78.3951 44.5417 79.2878 44.071 80.4135C43.8556 80.9246 43.7731 81.5227 43.7387 82.3912C43.7234 83.0205 43.5479 83.6355 43.2287 84.1781C42.9095 84.7207 42.4572 85.1728 41.9146 85.4919C41.3617 85.7992 40.7402 85.962 40.1076 85.9652C39.4751 85.9684 38.852 85.8119 38.296 85.5102C37.5214 85.1023 36.96 84.8777 36.4054 84.8044C35.1921 84.6451 33.9649 84.9712 32.9908 85.7119C32.2621 86.2664 31.7235 87.1923 30.6487 89.0417C29.5717 90.891 29.0354 91.8146 28.9139 92.7198C28.7535 93.9252 29.0835 95.1444 29.8306 96.1092C30.1698 96.5492 30.6487 96.9181 31.3889 97.381C32.4821 98.0617 33.1833 99.2212 33.1833 100.5C33.1833 101.779 32.4821 102.938 31.3912 103.617C30.6487 104.082 30.1698 104.451 29.8283 104.891C29.4595 105.367 29.1889 105.912 29.0319 106.494C28.875 107.076 28.8349 107.683 28.9139 108.28C29.0354 109.183 29.5717 110.109 30.6487 111.958C31.7258 113.808 32.2621 114.731 32.9908 115.288C33.9625 116.028 35.1908 116.354 36.4054 116.196C36.96 116.122 37.5214 115.898 38.296 115.49C38.8523 115.188 39.4758 115.031 40.1088 115.034C40.7418 115.037 41.3637 115.2 41.9169 115.508C43.0306 116.15 43.6906 117.33 43.7387 118.609C43.7731 119.48 43.8556 120.075 44.071 120.586C44.5385 121.709 45.4369 122.603 46.5689 123.068C47.4169 123.417 48.4939 123.417 50.6458 123.417C52.7977 123.417 53.8748 123.417 54.7227 123.068C55.8514 122.605 56.7499 121.712 57.2206 120.586C57.436 120.075 57.5185 119.48 57.5529 118.609C57.5987 117.33 58.261 116.147 59.3771 115.508C59.9299 115.201 60.5514 115.038 61.184 115.035C61.8165 115.032 62.4396 115.188 62.9956 115.49C63.7702 115.898 64.3316 116.122 64.8862 116.196C66.1008 116.356 67.3291 116.028 68.3008 115.288C69.0296 114.734 69.5681 113.808 70.6429 111.958C71.72 110.109 72.2562 109.185 72.3777 108.28C72.4564 107.683 72.416 107.076 72.2586 106.494C72.1013 105.912 71.8302 105.367 71.461 104.891C71.1218 104.451 70.6429 104.082 69.9027 103.619C68.8096 102.938 68.1083 101.779 68.1083 100.5C68.1083 99.2212 68.8096 98.0617 69.9004 97.3833C70.6429 96.9181 71.1218 96.5492 71.4633 96.1092C71.8321 95.6326 72.1028 95.0877 72.2597 94.506C72.4166 93.9242 72.4567 93.3171 72.3777 92.7198C72.2562 91.8169 71.72 90.891 70.6429 89.0417C69.5658 87.1923 69.0296 86.2687 68.3008 85.7119C67.3267 84.9712 66.0995 84.6451 64.8862 84.8044C64.3316 84.8777 63.7702 85.1023 62.9956 85.5102C62.4394 85.8123 61.8158 85.969 61.1828 85.9658C60.5498 85.9626 59.9279 85.7996 59.3748 85.4919C58.8325 85.1725 58.3807 84.7202 58.0619 84.1777C57.7431 83.6352 57.5679 83.0203 57.5529 82.3912C57.5185 81.5204 57.436 80.9246 57.2206 80.4135C56.9877 79.8561 56.6472 79.3499 56.2186 78.9241C55.79 78.4982 55.2817 78.161 54.7227 77.9317ZM50.6458 107.375C54.4729 107.375 57.5735 104.297 57.5735 100.5C57.5735 96.7027 54.4706 93.625 50.6458 93.625C46.8187 93.625 43.7181 96.7027 43.7181 100.5C43.7181 104.297 46.821 107.375 50.6458 107.375Z" fill="#F8F8F8"/>
</g>
<defs>
<clipPath id="clip0_123_248">
<rect x="22" y="73" width="55" height="55" rx="27.5" fill="white"/>
</clipPath>
</defs>
</svg>
