<svg width="5" height="20" viewBox="0 0 5 20" fill="none" xmlns="http://www.w3.org/2000/svg">
<path d="M2.19937 15.5555C2.78268 15.5555 3.34209 15.7897 3.75455 16.2064C4.16701 16.6232 4.39873 17.1884 4.39873 17.7778C4.39873 18.3671 4.16701 18.9324 3.75455 19.3491C3.34209 19.7659 2.78268 20 2.19937 20C1.61606 20 1.05664 19.7659 0.64418 19.3491C0.231719 18.9324 0 18.3671 0 17.7778C0 17.1884 0.231719 16.6232 0.64418 16.2064C1.05664 15.7897 1.61606 15.5555 2.19937 15.5555ZM2.19937 7.77777C2.78268 7.77777 3.34209 8.0119 3.75455 8.42865C4.16701 8.8454 4.39873 9.41063 4.39873 10C4.39873 10.5894 4.16701 11.1546 3.75455 11.5713C3.34209 11.9881 2.78268 12.2222 2.19937 12.2222C1.61606 12.2222 1.05664 11.9881 0.64418 11.5713C0.231719 11.1546 0 10.5894 0 10C0 9.41063 0.231719 8.8454 0.64418 8.42865C1.05664 8.0119 1.61606 7.77777 2.19937 7.77777ZM2.19937 0C2.78268 0 3.34209 0.234126 3.75455 0.650873C4.16701 1.06762 4.39873 1.63285 4.39873 2.22222C4.39873 2.81159 4.16701 3.37682 3.75455 3.79357C3.34209 4.21032 2.78268 4.44444 2.19937 4.44444C1.61606 4.44444 1.05664 4.21032 0.64418 3.79357C0.231719 3.37682 0 2.81159 0 2.22222C0 1.63285 0.231719 1.06762 0.64418 0.650873C1.05664 0.234126 1.61606 0 2.19937 0Z" fill="#F8F8F8"/>
</svg>
