<svg width="47" height="47" viewBox="0 0 47 47" fill="none" xmlns="http://www.w3.org/2000/svg">
<path d="M28.2005 31.3333H18.8005V32.9C18.8005 35.4957 20.9048 37.6 23.5005 37.6C26.0962 37.6 28.2005 35.4957 28.2005 32.9V31.3333Z" stroke="white" stroke-width="2.32696" stroke-linecap="round" stroke-linejoin="round"/>
<path d="M12.534 31.3333H34.4674C35.3326 31.3333 36.034 30.6319 36.034 29.7666V28.8489C36.034 28.4334 35.869 28.0349 35.5752 27.7411L34.7749 26.9408C34.578 26.7439 34.4674 26.4768 34.4674 26.1984V20.3666C34.4674 14.3099 29.5574 9.39993 23.5007 9.39994C17.444 9.39996 12.534 14.3099 12.534 20.3666V26.1984C12.534 26.4769 12.4234 26.7439 12.2265 26.9408L11.4262 27.7411C11.1324 28.0349 10.9674 28.4334 10.9674 28.8489V29.7666C10.9674 30.6319 11.6688 31.3333 12.534 31.3333Z" stroke="white" stroke-width="2.32696" stroke-linecap="round" stroke-linejoin="round"/>
</svg>
