<svg width="38" height="15" viewBox="0 0 38 15" fill="none" xmlns="http://www.w3.org/2000/svg">
<path d="M34.0485 14.8033V4.38263H37.366V14.8033H34.0485ZM35.7106 3.16825C35.2448 3.16825 34.8445 3.01447 34.5098 2.70692C34.1751 2.39484 34.0078 2.01945 34.0078 1.58073C34.0078 1.14654 34.1751 0.775667 34.5098 0.468115C34.8445 0.156038 35.2448 0 35.7106 0C36.181 0 36.5813 0.156038 36.9114 0.468115C37.2461 0.775667 37.4135 1.14654 37.4135 1.58073C37.4135 2.01945 37.2461 2.39484 36.9114 2.70692C36.5813 3.01447 36.181 3.16825 35.7106 3.16825Z" fill="#CACACA"/>
<path d="M25.6971 12.0692L25.7106 8.11397H26.172L29.1028 4.38263H32.8613L28.5058 9.72862H27.6306L25.6971 12.0692ZM22.7052 14.8032V0.909085H26.0227V14.8032H22.7052ZM29.1774 14.8032L26.4501 10.4749L28.6347 8.12075L33.0105 14.8032H29.1774Z" fill="#CACACA"/>
<path d="M15.7413 15C14.6468 15 13.706 14.7761 12.9191 14.3284C12.1366 13.8761 11.5328 13.2474 11.1077 12.4423C10.687 11.6327 10.4767 10.6943 10.4767 9.62687C10.4767 8.55495 10.687 7.61646 11.1077 6.8114C11.5328 6.00181 12.1366 5.37314 12.9191 4.92537C13.706 4.47309 14.6468 4.24695 15.7413 4.24695C16.8358 4.24695 17.7743 4.47309 18.5568 4.92537C19.3438 5.37314 19.9476 6.00181 20.3682 6.8114C20.7933 7.61646 21.0059 8.55495 21.0059 9.62687C21.0059 10.6943 20.7933 11.6327 20.3682 12.4423C19.9476 13.2474 19.3438 13.8761 18.5568 14.3284C17.7743 14.7761 16.8358 15 15.7413 15ZM15.7617 12.4966C16.1597 12.4966 16.4966 12.3745 16.7725 12.1303C17.0484 11.886 17.2587 11.5468 17.4035 11.1126C17.5527 10.6784 17.6273 10.1764 17.6273 9.60651C17.6273 9.02759 17.5527 8.52103 17.4035 8.08684C17.2587 7.65265 17.0484 7.31343 16.7725 7.0692C16.4966 6.82497 16.1597 6.70285 15.7617 6.70285C15.3501 6.70285 15.0018 6.82497 14.7169 7.0692C14.4365 7.31343 14.2216 7.65265 14.0724 8.08684C13.9277 8.52103 13.8553 9.02759 13.8553 9.60651C13.8553 10.1764 13.9277 10.6784 14.0724 11.1126C14.2216 11.5468 14.4365 11.886 14.7169 12.1303C15.0018 12.3745 15.3501 12.4966 15.7617 12.4966Z" fill="#CACACA"/>
<path d="M0 14.8032V0.909085H3.35821V12.076H9.1384V14.8032H0Z" fill="#CACACA"/>
</svg>
