<svg width="32" height="32" viewBox="0 0 32 32" fill="none" xmlns="http://www.w3.org/2000/svg">
<g clip-path="url(#clip0_6_306)">
<path d="M20 25.3333C20.0002 26.0061 19.7461 26.6541 19.2887 27.1474C18.8312 27.6407 18.2042 27.9429 17.5333 27.9933L17.3333 28H14.6667C13.9939 28.0002 13.3459 27.7461 12.8526 27.2887C12.3593 26.8312 12.0571 26.2042 12.0067 25.5333L12 25.3333H20ZM16 2.66666C18.42 2.66662 20.7454 3.60651 22.4856 5.28809C24.2259 6.96966 25.245 9.26144 25.328 11.68L25.3333 12V17.0187L27.7627 21.8773C27.8687 22.0893 27.9218 22.3239 27.9173 22.5609C27.9129 22.7978 27.851 23.0302 27.7371 23.2381C27.6232 23.446 27.4607 23.6231 27.2633 23.7544C27.066 23.8857 26.8397 23.9672 26.604 23.992L26.4507 24H5.54935C5.31223 24.0001 5.07863 23.9426 4.86857 23.8327C4.65851 23.7227 4.47825 23.5634 4.34323 23.3685C4.20822 23.1735 4.12247 22.9488 4.09335 22.7135C4.06423 22.4782 4.09259 22.2393 4.17601 22.0173L4.23735 21.8773L6.66668 17.0187V12C6.66668 9.52464 7.65001 7.15067 9.40035 5.40033C11.1507 3.64999 13.5247 2.66666 16 2.66666Z" fill="#F8F8F8"/>
</g>
<defs>
<clipPath id="clip0_6_306">
<rect width="32" height="32" fill="white"/>
</clipPath>
</defs>
</svg>
