<svg width="300" height="300" viewBox="0 0 300 300" fill="none" xmlns="http://www.w3.org/2000/svg">
<path d="M221.133 97.3894L221.133 97.3889C221.529 96.6042 221.53 96.2055 221.473 96.0315C221.432 95.903 221.322 95.7967 221.044 95.7354C220.763 95.6733 220.413 95.687 220.109 95.7263C219.962 95.7452 219.835 95.7688 219.745 95.7875C219.744 95.7878 219.742 95.7882 219.74 95.7886C219.694 95.8349 219.634 95.8961 219.56 95.9713C219.375 96.1579 219.105 96.4309 218.759 96.7771C218.069 97.4696 217.078 98.455 215.878 99.6277C213.48 101.972 210.244 105.068 206.898 108.067C203.556 111.063 200.089 113.975 197.233 115.945C195.808 116.927 194.511 117.693 193.442 118.112C192.908 118.322 192.403 118.456 191.952 118.475C191.497 118.493 191.051 118.393 190.706 118.083C190.349 117.761 190.226 117.321 190.242 116.867C190.259 116.426 190.406 115.935 190.63 115.421C191.078 114.39 191.9 113.124 192.943 111.716C194.866 109.124 197.62 105.952 200.428 102.718C200.676 102.431 200.925 102.144 201.174 101.857C204.245 98.317 207.299 94.7556 209.381 91.7977C210.424 90.3162 211.203 89.0129 211.621 87.9567C212.056 86.8605 212.031 86.2121 211.783 85.8701L211.782 85.8687C211.695 85.7468 211.574 85.6753 211.357 85.6678C211.114 85.6593 210.771 85.7346 210.317 85.9299C209.411 86.319 208.233 87.1079 206.852 88.1992C204.098 90.3739 200.672 93.6394 197.225 96.9457C197.059 97.1047 196.893 97.2637 196.728 97.4227C193.458 100.56 190.2 103.685 187.553 105.852C186.167 106.987 184.918 107.884 183.904 108.379C183.4 108.624 182.913 108.791 182.473 108.814C182.012 108.838 181.569 108.701 181.26 108.312L181.259 108.311C180.977 107.952 180.89 107.497 180.907 107.032C180.925 106.565 181.048 106.037 181.244 105.472C181.636 104.34 182.353 102.961 183.276 101.443C185.124 98.4017 187.857 94.7099 190.668 91.1489C193.483 87.5846 196.387 84.1378 198.587 81.5829C199.688 80.3052 200.612 79.25 201.262 78.5141C201.587 78.1461 201.843 77.8579 202.018 77.6616C202.092 77.5786 202.151 77.512 202.195 77.4627C202.197 77.4549 202.198 77.4468 202.2 77.4383C202.217 77.3411 202.239 77.2031 202.256 77.0427C202.292 76.713 202.304 76.326 202.242 76.0084C202.176 75.6769 202.062 75.561 201.963 75.5243C201.838 75.4772 201.496 75.458 200.765 75.8782L200.764 75.8788C182.006 86.6093 171.457 96.9625 165.602 104.609C162.674 108.433 160.918 111.582 159.896 113.767C159.385 114.86 159.058 115.711 158.859 116.286C158.759 116.573 158.692 116.791 158.65 116.935C158.629 117.008 158.614 117.061 158.605 117.096L158.595 117.134L158.593 117.142L158.593 117.142L221.133 97.3894ZM221.133 97.3894C211.063 117.388 201.347 128.635 194.173 134.875C190.586 137.996 187.633 139.866 185.586 140.954C184.563 141.498 183.766 141.846 183.229 142.057C182.961 142.163 182.757 142.234 182.623 142.279C182.556 142.301 182.506 142.316 182.474 142.326L182.44 142.336L182.433 142.338L182.433 142.338L182.432 142.338L182.432 142.338L182.41 142.344L182.388 142.352L182.388 142.353L182.388 142.353L182.388 142.353L182.387 142.353L182.384 142.354L182.36 142.362C182.338 142.37 182.303 142.381 182.256 142.396C182.162 142.424 182.022 142.463 181.843 142.501C181.484 142.577 180.977 142.65 180.389 142.636C179.22 142.607 177.734 142.236 176.427 140.848L176.427 140.849C176.327 140.768 176.134 140.695 176.047 140.69C175.993 140.695 175.909 140.713 175.877 140.725C175.822 140.746 175.781 140.773 175.768 140.782C175.732 140.805 175.7 140.832 175.678 140.851C175.63 140.892 175.569 140.949 175.499 141.016C175.356 141.152 175.152 141.356 174.893 141.619C174.374 142.147 173.62 142.928 172.664 143.929C170.751 145.931 168.023 148.816 164.728 152.315C158.138 159.314 149.278 168.774 140.138 178.549C130.051 189.336 119.624 200.508 111.528 209.182C104.95 216.228 99.9116 221.627 97.8439 223.832L97.8434 223.832C97.4036 224.303 96.8085 224.52 96.0513 224.499C95.2803 224.477 94.361 224.207 93.345 223.714C91.3154 222.73 89.026 220.918 86.9939 218.79C84.9626 216.663 83.2247 214.257 82.2727 212.114C81.7963 211.042 81.5289 210.062 81.5022 209.231C81.4758 208.408 81.6848 207.759 82.1318 207.284L82.1325 207.284C84.3996 204.865 90.2723 198.638 97.8373 190.616C105.661 182.32 115.294 172.105 124.621 162.199C133.794 152.457 142.67 143.013 149.236 135.989C152.519 132.477 155.225 129.569 157.102 127.53C158.041 126.511 158.773 125.707 159.268 125.154C159.514 124.878 159.705 124.66 159.832 124.509C159.895 124.434 159.948 124.368 159.987 124.317C160.004 124.293 160.029 124.259 160.05 124.222C160.058 124.207 160.082 124.166 160.099 124.112C160.108 124.081 160.121 124.001 160.123 123.951C160.117 123.876 160.055 123.713 159.986 123.616L159.989 123.613C158.69 122.218 158.336 120.618 158.311 119.347C158.298 118.711 158.367 118.164 158.44 117.776C158.476 117.583 158.513 117.43 158.54 117.328C158.553 117.277 158.564 117.239 158.572 117.214L158.58 117.188L158.581 117.184L158.581 117.183L158.581 117.183L158.582 117.183L158.582 117.183L158.588 117.163L158.593 117.143L221.133 97.3894Z" fill="#DADADA" stroke="#1F1F1F"/>
<path d="M201.211 223.075C201.113 223.116 201.026 223.15 200.953 223.179L200.829 223.047L199.817 221.968L196.064 217.968L183.431 204.505C173.527 193.948 161.383 181.005 152.249 171.267C157.685 165.464 162.75 160.068 167.154 155.383L215.678 207.104C214.693 212.86 211.009 216.887 207.502 219.499C205.727 220.821 204.01 221.771 202.736 222.391C202.099 222.701 201.574 222.927 201.211 223.075Z" fill="#DADADA" stroke="#1F1F1F"/>
<path d="M93.4638 76.8443L146.457 133.324C140.929 139.228 134.312 146.279 127.228 153.811C125.194 153.69 123.077 153.42 120.828 152.522C118.496 151.592 115.995 149.974 113.299 147.101L113.299 147.101C96.0769 128.753 89.5291 112.523 87.7904 100.363C86.9206 94.2801 87.2534 89.2116 88.0577 85.3986C88.8667 81.5633 90.1407 79.0521 91.102 78.0329L91.1033 78.0315C92.1209 76.9442 92.7749 76.7523 93.0914 76.7431C93.2493 76.7385 93.3511 76.7776 93.4063 76.8068C93.4352 76.8221 93.4536 76.8359 93.4616 76.8425C93.4624 76.8432 93.4632 76.8438 93.4638 76.8443Z" fill="#DADADA" stroke="#1F1F1F"/>
<mask id="path-4-inside-1_69_7" fill="white">
<path d="M125.192 103.192C125.192 101.124 126.868 99.4472 128.937 99.4472H171.377C173.445 99.4472 175.122 101.124 175.122 103.192V105.688C175.122 107.757 173.445 109.433 171.377 109.433H128.937C126.868 109.433 125.192 107.757 125.192 105.688V103.192Z"/>
<path d="M102.323 112.577C101.628 111.534 101.28 111.013 101.315 110.58C101.343 110.235 101.514 109.917 101.785 109.702C102.125 109.433 102.752 109.433 104.006 109.433H197.139C198.333 109.433 198.93 109.433 199.266 109.691C199.534 109.897 199.707 110.203 199.746 110.539C199.794 110.96 199.487 111.472 198.873 112.496L195.382 118.315C195.272 118.497 195.217 118.588 195.179 118.686C195.148 118.766 195.125 118.848 195.111 118.933C195.093 119.036 195.093 119.142 195.093 119.355V191.245C195.093 191.689 195.093 191.911 195.026 192.109C194.97 192.269 194.883 192.416 194.769 192.542C194.629 192.696 194.434 192.803 194.045 193.017L151.754 216.247C151.392 216.446 151.21 216.546 151.018 216.583C150.861 216.613 150.7 216.613 150.544 216.583C150.352 216.546 150.17 216.446 149.807 216.247L107.517 193.017C107.127 192.803 106.933 192.696 106.792 192.542C106.679 192.416 106.591 192.269 106.536 192.109C106.468 191.911 106.468 191.689 106.468 191.245V119.407C106.468 119.175 106.468 119.059 106.448 118.947C106.431 118.855 106.404 118.766 106.367 118.68C106.322 118.575 106.258 118.479 106.129 118.285L102.323 112.577Z"/>
<path d="M152.162 224.514L156.658 221.254L162.053 219.455L166.55 215.521L170.147 211.362L176.441 208.327L182.736 206.866L187.232 205.068H192.628L199.822 202.37V216.758L189.93 219.455L182.736 220.018L178.24 223.614L172.844 225.75L164.751 232.944L159.356 237.995H152.162L152.162 224.514Z"/>
<path d="M148.323 224.519L143.827 221.259L138.432 219.46L133.935 215.526L130.339 211.367L124.044 208.332L117.749 206.871L113.253 205.073H107.858L100.664 202.375L100.664 216.763L110.555 219.46L117.749 220.022L122.245 223.619L127.641 225.755L135.734 232.949L141.129 238H148.323V224.519Z"/>
<path d="M141.371 216.598H144.968L146.766 218.396H153.96L155.758 216.598H159.355V221.993L154.859 223.792L152.161 231.885H146.766L145.867 224.691L141.371 221.094V216.598Z"/>
<path d="M201.979 199.931H205.724L208.845 199.306L213.838 195.562L216.334 189.32V207.42L211.341 211.165H206.348L204.476 212.413L201.979 213.661V199.931Z"/>
<path d="M203.281 199.931L203.228 209.946L196.987 209.916H192.617L187.624 211.165V206.796L188.873 206.172L197.039 198.682L198.859 197.434L200.731 196.186L202.603 197.434L203.227 198.058V199.306L203.281 199.931Z"/>
<path d="M98.3548 199.931H94.61L91.4894 199.306L86.4965 195.562L84 189.32V207.42L88.993 211.165H93.9859L95.8583 212.413L98.3548 213.661V199.931Z"/>
<path d="M97.0535 199.931L97.1063 209.946L103.347 209.916H107.717L112.71 211.165V206.796L111.461 206.172L103.295 198.682L101.475 197.434L99.603 196.186L97.7306 197.434L97.1065 198.058V199.306L97.0535 199.931Z"/>
<path d="M145.788 62.6241V62H148.908V62.6241H149.533V63.2482H150.781V64.4965H152.029V65.1206H153.277V78.8512H153.901L155.774 76.9789L158.27 76.3548L161.391 76.9789H162.639V78.2271H162.015V80.0995H161.391V83.8442H160.143V88.8372L159.519 89.4613L158.27 91.9578L155.774 96.3266V97.5748H154.526V100.071H142.667V95.7025L141.419 94.4542L140.795 93.206L140.171 92.5819L139.547 91.3336L138.923 90.7095V82.596H138.298V80.0995H137.674V75.1065H140.795V73.8583H141.419V72.61H142.043V71.9859H145.164V62.6241H145.788Z"/>
</mask>
<path d="M125.192 103.192C125.192 101.124 126.868 99.4472 128.937 99.4472H171.377C173.445 99.4472 175.122 101.124 175.122 103.192V105.688C175.122 107.757 173.445 109.433 171.377 109.433H128.937C126.868 109.433 125.192 107.757 125.192 105.688V103.192Z" fill="#DFDFDF"/>
<path d="M102.323 112.577C101.628 111.534 101.28 111.013 101.315 110.58C101.343 110.235 101.514 109.917 101.785 109.702C102.125 109.433 102.752 109.433 104.006 109.433H197.139C198.333 109.433 198.93 109.433 199.266 109.691C199.534 109.897 199.707 110.203 199.746 110.539C199.794 110.96 199.487 111.472 198.873 112.496L195.382 118.315C195.272 118.497 195.217 118.588 195.179 118.686C195.148 118.766 195.125 118.848 195.111 118.933C195.093 119.036 195.093 119.142 195.093 119.355V191.245C195.093 191.689 195.093 191.911 195.026 192.109C194.97 192.269 194.883 192.416 194.769 192.542C194.629 192.696 194.434 192.803 194.045 193.017L151.754 216.247C151.392 216.446 151.21 216.546 151.018 216.583C150.861 216.613 150.7 216.613 150.544 216.583C150.352 216.546 150.17 216.446 149.807 216.247L107.517 193.017C107.127 192.803 106.933 192.696 106.792 192.542C106.679 192.416 106.591 192.269 106.536 192.109C106.468 191.911 106.468 191.689 106.468 191.245V119.407C106.468 119.175 106.468 119.059 106.448 118.947C106.431 118.855 106.404 118.766 106.367 118.68C106.322 118.575 106.258 118.479 106.129 118.285L102.323 112.577Z" fill="#DFDFDF"/>
<path d="M152.162 224.514L156.658 221.254L162.053 219.455L166.55 215.521L170.147 211.362L176.441 208.327L182.736 206.866L187.232 205.068H192.628L199.822 202.37V216.758L189.93 219.455L182.736 220.018L178.24 223.614L172.844 225.75L164.751 232.944L159.356 237.995H152.162L152.162 224.514Z" fill="#DFDFDF"/>
<path d="M148.323 224.519L143.827 221.259L138.432 219.46L133.935 215.526L130.339 211.367L124.044 208.332L117.749 206.871L113.253 205.073H107.858L100.664 202.375L100.664 216.763L110.555 219.46L117.749 220.022L122.245 223.619L127.641 225.755L135.734 232.949L141.129 238H148.323V224.519Z" fill="#DFDFDF"/>
<path d="M141.371 216.598H144.968L146.766 218.396H153.96L155.758 216.598H159.355V221.993L154.859 223.792L152.161 231.885H146.766L145.867 224.691L141.371 221.094V216.598Z" fill="#DFDFDF"/>
<path d="M201.979 199.931H205.724L208.845 199.306L213.838 195.562L216.334 189.32V207.42L211.341 211.165H206.348L204.476 212.413L201.979 213.661V199.931Z" fill="#DFDFDF"/>
<path d="M203.281 199.931L203.228 209.946L196.987 209.916H192.617L187.624 211.165V206.796L188.873 206.172L197.039 198.682L198.859 197.434L200.731 196.186L202.603 197.434L203.227 198.058V199.306L203.281 199.931Z" fill="#DFDFDF"/>
<path d="M98.3548 199.931H94.61L91.4894 199.306L86.4965 195.562L84 189.32V207.42L88.993 211.165H93.9859L95.8583 212.413L98.3548 213.661V199.931Z" fill="#DFDFDF"/>
<path d="M97.0535 199.931L97.1063 209.946L103.347 209.916H107.717L112.71 211.165V206.796L111.461 206.172L103.295 198.682L101.475 197.434L99.603 196.186L97.7306 197.434L97.1065 198.058V199.306L97.0535 199.931Z" fill="#DFDFDF"/>
<path d="M145.788 62.6241V62H148.908V62.6241H149.533V63.2482H150.781V64.4965H152.029V65.1206H153.277V78.8512H153.901L155.774 76.9789L158.27 76.3548L161.391 76.9789H162.639V78.2271H162.015V80.0995H161.391V83.8442H160.143V88.8372L159.519 89.4613L158.27 91.9578L155.774 96.3266V97.5748H154.526V100.071H142.667V95.7025L141.419 94.4542L140.795 93.206L140.171 92.5819L139.547 91.3336L138.923 90.7095V82.596H138.298V80.0995H137.674V75.1065H140.795V73.8583H141.419V72.61H142.043V71.9859H145.164V62.6241H145.788Z" fill="#DFDFDF"/>
<path d="M151.754 216.247L152.236 217.123L151.754 216.247ZM151.018 216.583L151.207 217.565L151.018 216.583ZM149.807 216.247L150.289 215.37L149.807 216.247ZM150.544 216.583L150.354 217.565L150.544 216.583ZM195.382 118.315L194.524 117.8L195.382 118.315ZM195.179 118.686L196.11 119.05L195.179 118.686ZM195.111 118.933L196.097 119.099L195.111 118.933ZM106.448 118.947L105.464 119.128L106.448 118.947ZM106.129 118.285L105.297 118.84L106.129 118.285ZM106.367 118.68L107.286 118.286L106.367 118.68ZM106.536 192.109L107.482 191.783L106.536 192.109ZM107.517 193.017L107.998 192.141L107.517 193.017ZM106.792 192.542L106.052 193.214L106.792 192.542ZM195.026 192.109L194.08 191.783L195.026 192.109ZM194.045 193.017L193.563 192.141L194.045 193.017ZM194.769 192.542L195.51 193.214L194.769 192.542ZM199.266 109.691L199.874 108.898L199.266 109.691ZM198.873 112.496L199.73 113.01L198.873 112.496ZM199.746 110.539L198.752 110.653L199.746 110.539ZM101.785 109.702L102.405 110.487L101.785 109.702ZM102.323 112.577L103.155 112.022L102.323 112.577ZM101.315 110.58L102.312 110.661L101.315 110.58ZM152.162 224.514L151.575 223.704L151.162 224.004V224.514H152.162ZM199.822 202.37H200.822V200.927L199.47 201.434L199.822 202.37ZM152.162 237.995H151.162V238.995H152.162V237.995ZM182.736 206.866L182.962 207.84L183.037 207.823L183.107 207.795L182.736 206.866ZM182.736 220.018L182.658 219.021L182.351 219.045L182.111 219.237L182.736 220.018ZM170.147 211.362L169.712 210.462L169.526 210.552L169.39 210.708L170.147 211.362ZM162.053 219.455L162.37 220.404L162.561 220.341L162.712 220.208L162.053 219.455ZM172.844 225.75L172.476 224.82L172.312 224.885L172.18 225.003L172.844 225.75ZM189.93 219.455L190.008 220.452L190.102 220.445L190.193 220.42L189.93 219.455ZM164.751 232.944L164.087 232.197L164.077 232.205L164.068 232.214L164.751 232.944ZM159.356 237.995V238.995H159.751L160.039 238.725L159.356 237.995ZM199.822 216.758L200.085 217.723L200.822 217.522V216.758H199.822ZM192.628 205.068V206.068H192.809L192.979 206.004L192.628 205.068ZM156.658 221.254L156.342 220.305L156.196 220.354L156.071 220.444L156.658 221.254ZM166.55 215.521L167.208 216.274L167.261 216.228L167.306 216.175L166.55 215.521ZM176.441 208.327L176.215 207.353L176.107 207.378L176.007 207.427L176.441 208.327ZM187.232 205.068V204.068H187.04L186.861 204.139L187.232 205.068ZM178.24 223.614L178.608 224.544L178.747 224.489L178.864 224.395L178.24 223.614ZM148.323 224.519H149.323V224.008L148.91 223.709L148.323 224.519ZM100.664 202.375L101.015 201.439L99.6636 200.932L99.6636 202.375H100.664ZM148.323 238V239H149.323V238H148.323ZM117.749 206.871L117.378 207.8L117.449 207.828L117.523 207.845L117.749 206.871ZM117.749 220.022L118.374 219.242L118.134 219.049L117.827 219.025L117.749 220.022ZM130.339 211.367L131.095 210.713L130.96 210.556L130.773 210.466L130.339 211.367ZM138.432 219.46L137.773 220.213L137.925 220.345L138.115 220.409L138.432 219.46ZM127.641 225.755L128.305 225.008L128.173 224.89L128.009 224.825L127.641 225.755ZM110.555 219.46L110.292 220.425L110.383 220.45L110.477 220.457L110.555 219.46ZM135.734 232.949L136.417 232.219L136.408 232.21L136.398 232.202L135.734 232.949ZM141.129 238L140.446 238.73L140.734 239H141.129V238ZM100.664 216.763H99.6636V217.527L100.401 217.727L100.664 216.763ZM107.858 205.073L107.506 206.009L107.676 206.073H107.858V205.073ZM143.827 221.259L144.414 220.449L144.289 220.359L144.143 220.31L143.827 221.259ZM133.935 215.526L133.179 216.18L133.225 216.233L133.277 216.279L133.935 215.526ZM124.044 208.332L124.478 207.432L124.378 207.383L124.27 207.358L124.044 208.332ZM113.253 205.073L113.624 204.144L113.446 204.073H113.253V205.073ZM122.245 223.619L121.621 224.4L121.738 224.494L121.877 224.549L122.245 223.619ZM141.371 216.598V215.598H140.371V216.598H141.371ZM159.355 216.598H160.355V215.598H159.355V216.598ZM159.355 221.993L159.727 222.922L160.355 222.67V221.993H159.355ZM146.766 231.885L145.774 232.009L145.883 232.885H146.766V231.885ZM153.96 218.396V219.396H154.374L154.667 219.104L153.96 218.396ZM144.968 216.598L145.675 215.891L145.382 215.598H144.968V216.598ZM155.758 216.598V215.598H155.344L155.051 215.891L155.758 216.598ZM146.766 218.396L146.059 219.104L146.352 219.396H146.766V218.396ZM152.161 231.885V232.885H152.882L153.11 232.201L152.161 231.885ZM154.859 223.792L154.488 222.863L154.057 223.036L153.91 223.476L154.859 223.792ZM141.371 221.094H140.371V221.575L140.746 221.875L141.371 221.094ZM145.867 224.691L146.859 224.567L146.809 224.164L146.491 223.91L145.867 224.691ZM201.979 199.931V198.931H200.979V199.931H201.979ZM204.476 212.413L204.923 213.307L204.979 213.279L205.03 213.245L204.476 212.413ZM201.979 213.661H200.979V215.279L202.426 214.556L201.979 213.661ZM208.845 199.306L209.041 200.287L209.263 200.242L209.445 200.106L208.845 199.306ZM213.838 195.562L214.438 196.362L214.662 196.193L214.766 195.933L213.838 195.562ZM216.334 189.32H217.334L215.406 188.949L216.334 189.32ZM216.334 207.42L216.934 208.22L217.334 207.92V207.42H216.334ZM211.341 211.165V212.165H211.674L211.941 211.965L211.341 211.165ZM206.348 211.165V210.165H206.045L205.793 210.333L206.348 211.165ZM205.724 199.931V200.931H205.823L205.92 200.911L205.724 199.931ZM203.281 199.931L204.281 199.936L204.281 199.891L204.277 199.846L203.281 199.931ZM203.228 209.946L203.223 210.946L204.222 210.95L204.228 209.951L203.228 209.946ZM196.987 209.916L196.991 208.916H196.987V209.916ZM197.039 198.682L196.474 197.858L196.415 197.898L196.364 197.945L197.039 198.682ZM198.859 197.434L198.304 196.602L198.293 196.609L198.859 197.434ZM200.731 196.186L201.286 195.354L200.731 194.984L200.176 195.354L200.731 196.186ZM202.603 197.434L203.311 196.727L203.241 196.657L203.158 196.602L202.603 197.434ZM203.227 198.058H204.227V197.644L203.935 197.351L203.227 198.058ZM203.227 199.306H202.227V199.349L202.231 199.391L203.227 199.306ZM188.873 206.172L189.32 207.066L189.445 207.003L189.549 206.909L188.873 206.172ZM192.617 209.916V208.916H192.494L192.375 208.946L192.617 209.916ZM187.624 211.165H186.624V212.445L187.867 212.135L187.624 211.165ZM187.624 206.796L187.177 205.901L186.624 206.178V206.796H187.624ZM98.3548 199.931H99.3548V198.931H98.3548V199.931ZM95.8583 212.413L95.3036 213.245L95.3554 213.279L95.4111 213.307L95.8583 212.413ZM98.3548 213.661L97.9075 214.556L99.3548 215.279V213.661H98.3548ZM91.4894 199.306L90.8894 200.106L91.0709 200.242L91.2933 200.287L91.4894 199.306ZM86.4965 195.562L85.568 195.933L85.6721 196.193L85.8965 196.362L86.4965 195.562ZM84 189.32L84.9285 188.949L83 189.32H84ZM84 207.42H83V207.92L83.4 208.22L84 207.42ZM88.993 211.165L88.393 211.965L88.6596 212.165H88.993V211.165ZM93.9859 211.165L94.5406 210.333L94.2887 210.165H93.9859V211.165ZM94.61 199.931L94.4139 200.911L94.511 200.931H94.61V199.931ZM97.0535 199.931L96.057 199.846L96.0532 199.891L96.0535 199.936L97.0535 199.931ZM97.1063 209.946L96.1063 209.951L96.1116 210.95L97.111 210.946L97.1063 209.946ZM103.347 209.916V208.916L103.343 208.916L103.347 209.916ZM103.295 198.682L103.97 197.945L103.918 197.898L103.86 197.858L103.295 198.682ZM101.475 197.434L102.041 196.609L102.03 196.602L101.475 197.434ZM99.603 196.186L100.158 195.354L99.603 194.984L99.0483 195.354L99.603 196.186ZM97.7306 197.434L97.1759 196.602L97.0935 196.657L97.0234 196.727L97.7306 197.434ZM97.1065 198.058L96.3994 197.351L96.1065 197.644V198.058H97.1065ZM97.1065 199.306L98.1029 199.391L98.1065 199.349V199.306H97.1065ZM111.461 206.172L110.785 206.909L110.889 207.003L111.014 207.066L111.461 206.172ZM107.717 209.916L107.959 208.946L107.84 208.916H107.717V209.916ZM112.71 211.165L112.467 212.135L113.71 212.445V211.165H112.71ZM112.71 206.796H113.71V206.178L113.157 205.901L112.71 206.796ZM145.788 62.6241V63.6241H146.788V62.6241H145.788ZM153.277 65.1206H154.277V64.1206H153.277V65.1206ZM154.526 100.071V101.071H155.526V100.071H154.526ZM142.667 100.071H141.667V101.071H142.667V100.071ZM142.043 72.61V73.61H143.043V72.61H142.043ZM154.526 97.5748V96.5748H153.526V97.5748H154.526ZM155.774 97.5748V98.5748H156.774V97.5748H155.774ZM155.774 96.3266L154.906 95.8305L154.774 96.061V96.3266H155.774ZM158.27 91.9578L159.139 92.4539L159.152 92.4298L159.165 92.405L158.27 91.9578ZM159.519 89.4613L158.811 88.7542L158.697 88.8689L158.624 89.0141L159.519 89.4613ZM160.143 88.8372L160.85 89.5443L161.143 89.2514V88.8372H160.143ZM160.143 83.8442V82.8442H159.143V83.8442H160.143ZM161.391 83.8442V84.8442H162.391V83.8442H161.391ZM161.391 80.0995V79.0995H160.391V80.0995H161.391ZM162.015 80.0995V81.0995H163.015V80.0995H162.015ZM162.015 78.2271V77.2271H161.015V78.2271H162.015ZM162.639 78.2271V79.2271H163.639V78.2271H162.639ZM162.639 76.9789H163.639V75.9789H162.639V76.9789ZM161.391 76.9789L161.195 77.9595L161.292 77.9789H161.391V76.9789ZM155.774 76.9789L155.531 76.0087L155.263 76.0759L155.067 76.2718L155.774 76.9789ZM153.901 78.8512V79.8512H154.316L154.609 79.5583L153.901 78.8512ZM153.277 78.8512H152.277V79.8512H153.277V78.8512ZM158.27 76.3548L158.466 75.3742L158.246 75.3301L158.028 75.3846L158.27 76.3548ZM152.029 65.1206H151.029V66.1206H152.029V65.1206ZM152.029 64.4965H153.029V63.4965H152.029V64.4965ZM150.781 64.4965H149.781V65.4965H150.781V64.4965ZM150.781 63.2482H151.781V62.2482H150.781V63.2482ZM149.533 63.2482H148.533V64.2482H149.533V63.2482ZM149.533 62.6241H150.533V61.6241H149.533V62.6241ZM148.908 62.6241H147.908V63.6241H148.908V62.6241ZM148.908 62H149.908V61H148.908V62ZM145.788 62V61H144.788V62H145.788ZM145.164 62.6241V61.6241H144.164V62.6241H145.164ZM145.164 71.9859V72.9859H146.164V71.9859H145.164ZM142.043 71.9859V70.9859H141.043V71.9859H142.043ZM141.419 72.61V71.61H140.419V72.61H141.419ZM141.419 73.8583V74.8583H142.419V73.8583H141.419ZM140.795 73.8583V72.8583H139.795V73.8583H140.795ZM140.795 75.1065V76.1065H141.795V75.1065H140.795ZM137.674 75.1065V74.1065H136.674V75.1065H137.674ZM137.674 80.0995H136.674V81.0995H137.674V80.0995ZM138.298 80.0995H139.298V79.0995H138.298V80.0995ZM138.298 82.596H137.298V83.596H138.298V82.596ZM138.923 82.596H139.923V81.596H138.923V82.596ZM138.923 90.7095H137.923V91.1237L138.215 91.4166L138.923 90.7095ZM139.547 91.3336L140.441 90.8864L140.369 90.7413L140.254 90.6265L139.547 91.3336ZM140.171 92.5819L139.276 93.0291L139.349 93.1742L139.464 93.289L140.171 92.5819ZM140.795 93.206L141.689 92.7588L141.617 92.6136L141.502 92.4989L140.795 93.206ZM141.419 94.4542L140.525 94.9015L140.597 95.0466L140.712 95.1613L141.419 94.4542ZM142.667 95.7025H143.667V95.2883L143.374 94.9954L142.667 95.7025ZM128.937 100.447H171.377V98.4472H128.937V100.447ZM174.122 103.192V105.688H176.122V103.192H174.122ZM171.377 108.433H128.937V110.433H171.377V108.433ZM126.192 105.688V103.192H124.192V105.688H126.192ZM128.937 108.433C127.421 108.433 126.192 107.204 126.192 105.688H124.192C124.192 108.309 126.316 110.433 128.937 110.433V108.433ZM174.122 105.688C174.122 107.204 172.893 108.433 171.377 108.433V110.433C173.997 110.433 176.122 108.309 176.122 105.688H174.122ZM171.377 100.447C172.893 100.447 174.122 101.676 174.122 103.192H176.122C176.122 100.571 173.997 98.4472 171.377 98.4472V100.447ZM128.937 98.4472C126.316 98.4472 124.192 100.571 124.192 103.192H126.192C126.192 101.676 127.421 100.447 128.937 100.447V98.4472ZM104.006 110.433H197.139V108.433H104.006V110.433ZM107.468 191.245V119.407H105.468V191.245H107.468ZM106.961 117.731L103.155 112.022L101.491 113.132L105.297 118.84L106.961 117.731ZM198.015 111.981L194.524 117.8L196.239 118.829L199.73 113.01L198.015 111.981ZM194.093 119.355V191.245H196.093V119.355H194.093ZM193.563 192.141L151.273 215.37L152.236 217.123L194.526 193.894L193.563 192.141ZM150.289 215.37L107.998 192.141L107.035 193.894L149.326 217.123L150.289 215.37ZM151.273 215.37C151.082 215.476 150.975 215.534 150.893 215.572C150.822 215.606 150.812 215.604 150.828 215.601L151.207 217.565C151.59 217.491 151.931 217.291 152.236 217.123L151.273 215.37ZM149.326 217.123C149.631 217.291 149.971 217.491 150.354 217.565L150.734 215.601C150.75 215.604 150.74 215.606 150.668 215.572C150.586 215.534 150.48 215.476 150.289 215.37L149.326 217.123ZM150.828 215.601C150.797 215.607 150.765 215.607 150.734 215.601L150.354 217.565C150.636 217.619 150.926 217.619 151.207 217.565L150.828 215.601ZM194.524 117.8C194.431 117.955 194.324 118.128 194.248 118.322L196.11 119.05C196.108 119.057 196.109 119.052 196.128 119.018C196.15 118.978 196.181 118.926 196.239 118.829L194.524 117.8ZM196.093 119.355C196.093 119.242 196.094 119.182 196.095 119.136C196.096 119.097 196.098 119.092 196.097 119.099L194.125 118.766C194.09 118.971 194.093 119.175 194.093 119.355H196.093ZM194.248 118.322C194.192 118.465 194.151 118.614 194.125 118.766L196.097 119.099C196.1 119.082 196.104 119.066 196.11 119.05L194.248 118.322ZM107.468 119.407C107.468 119.21 107.472 118.988 107.431 118.765L105.464 119.128C105.463 119.12 105.465 119.125 105.466 119.168C105.468 119.218 105.468 119.284 105.468 119.407H107.468ZM105.297 118.84C105.365 118.942 105.402 118.998 105.428 119.041C105.45 119.077 105.451 119.082 105.448 119.075L107.286 118.286C107.196 118.077 107.07 117.894 106.961 117.731L105.297 118.84ZM107.431 118.765C107.401 118.6 107.352 118.44 107.286 118.286L105.448 119.075C105.455 119.092 105.461 119.11 105.464 119.128L107.431 118.765ZM105.468 191.245C105.468 191.617 105.455 192.041 105.591 192.434L107.482 191.783C107.488 191.8 107.48 191.792 107.475 191.707C107.469 191.609 107.468 191.479 107.468 191.245H105.468ZM107.998 192.141C107.793 192.028 107.679 191.965 107.596 191.912C107.524 191.867 107.521 191.856 107.533 191.869L106.052 193.214C106.332 193.522 106.709 193.714 107.035 193.894L107.998 192.141ZM105.591 192.434C105.69 192.722 105.847 192.988 106.052 193.214L107.533 191.869C107.51 191.844 107.493 191.815 107.482 191.783L105.591 192.434ZM194.093 191.245C194.093 191.479 194.093 191.609 194.087 191.707C194.082 191.792 194.074 191.8 194.08 191.783L195.971 192.434C196.106 192.041 196.093 191.617 196.093 191.245H194.093ZM194.526 193.894C194.853 193.714 195.23 193.522 195.51 193.214L194.029 191.869C194.041 191.856 194.038 191.867 193.965 191.912C193.883 191.965 193.769 192.028 193.563 192.141L194.526 193.894ZM194.08 191.783C194.069 191.815 194.052 191.844 194.029 191.869L195.51 193.214C195.715 192.988 195.872 192.722 195.971 192.434L194.08 191.783ZM197.139 110.433C197.756 110.433 198.148 110.434 198.43 110.461C198.718 110.488 198.718 110.531 198.657 110.484L199.874 108.898C199.477 108.593 199.011 108.507 198.618 108.47C198.219 108.432 197.715 108.433 197.139 108.433V110.433ZM199.73 113.01C200.027 112.516 200.287 112.084 200.46 111.723C200.63 111.367 200.796 110.923 200.739 110.425L198.752 110.653C198.744 110.577 198.781 110.599 198.656 110.86C198.533 111.116 198.333 111.452 198.015 111.981L199.73 113.01ZM198.657 110.484C198.71 110.525 198.745 110.586 198.752 110.653L200.739 110.425C200.67 109.82 200.358 109.269 199.874 108.898L198.657 110.484ZM104.006 108.433C103.399 108.433 102.873 108.432 102.459 108.471C102.055 108.509 101.57 108.598 101.165 108.918L102.405 110.487C102.341 110.538 102.339 110.491 102.647 110.462C102.945 110.434 103.358 110.433 104.006 110.433V108.433ZM103.155 112.022C102.796 111.484 102.567 111.139 102.426 110.876C102.279 110.604 102.319 110.579 102.312 110.661L100.319 110.499C100.277 111.013 100.472 111.466 100.665 111.824C100.862 112.19 101.155 112.627 101.491 113.132L103.155 112.022ZM101.165 108.918C100.676 109.305 100.369 109.877 100.319 110.499L102.312 110.661C102.318 110.593 102.351 110.529 102.405 110.487L101.165 108.918ZM153.162 237.995L153.162 224.514H151.162L151.162 237.995H153.162ZM189.852 218.458L182.658 219.021L182.814 221.014L190.008 220.452L189.852 218.458ZM172.18 225.003L164.087 232.197L165.416 233.692L173.509 226.498L172.18 225.003ZM164.068 232.214L158.672 237.265L160.039 238.725L165.435 233.674L164.068 232.214ZM159.356 236.995H152.162V238.995H159.356V236.995ZM199.558 215.793L189.667 218.491L190.193 220.42L200.085 217.723L199.558 215.793ZM192.979 206.004L200.173 203.306L199.47 201.434L192.277 204.131L192.979 206.004ZM152.749 225.323L157.245 222.064L156.071 220.444L151.575 223.704L152.749 225.323ZM156.974 222.203L162.37 220.404L161.737 218.507L156.342 220.305L156.974 222.203ZM162.712 220.208L167.208 216.274L165.891 214.769L161.395 218.703L162.712 220.208ZM167.306 216.175L170.903 212.016L169.39 210.708L165.793 214.867L167.306 216.175ZM170.581 212.263L176.876 209.228L176.007 207.427L169.712 210.462L170.581 212.263ZM176.667 209.302L182.962 207.84L182.51 205.892L176.215 207.353L176.667 209.302ZM183.107 207.795L187.603 205.996L186.861 204.139L182.365 205.938L183.107 207.795ZM187.232 206.068H192.628V204.068H187.232V206.068ZM182.111 219.237L177.615 222.834L178.864 224.395L183.361 220.798L182.111 219.237ZM177.872 222.685L172.476 224.82L173.212 226.68L178.608 224.544L177.872 222.685ZM149.323 238V224.519H147.323V238H149.323ZM110.477 220.457L117.671 221.019L117.827 219.025L110.633 218.463L110.477 220.457ZM126.976 226.503L135.07 233.696L136.398 232.202L128.305 225.008L126.976 226.503ZM135.051 233.679L140.446 238.73L141.813 237.27L136.417 232.219L135.051 233.679ZM141.129 239H148.323V237H141.129V239ZM100.401 217.727L110.292 220.425L110.818 218.496L100.927 215.798L100.401 217.727ZM108.209 204.136L101.015 201.439L100.312 203.311L107.506 206.009L108.209 204.136ZM148.91 223.709L144.414 220.449L143.24 222.069L147.736 225.328L148.91 223.709ZM144.143 220.31L138.748 218.512L138.115 220.409L143.511 222.208L144.143 220.31ZM139.09 218.708L134.594 214.774L133.277 216.279L137.773 220.213L139.09 218.708ZM134.692 214.872L131.095 210.713L129.582 212.021L133.179 216.18L134.692 214.872ZM130.773 210.466L124.478 207.432L123.61 209.233L129.904 212.268L130.773 210.466ZM124.27 207.358L117.975 205.897L117.523 207.845L123.818 209.306L124.27 207.358ZM118.121 205.943L113.624 204.144L112.882 206.001L117.378 207.8L118.121 205.943ZM113.253 204.073H107.858V206.073H113.253V204.073ZM117.124 220.803L121.621 224.4L122.87 222.839L118.374 219.242L117.124 220.803ZM121.877 224.549L127.273 226.685L128.009 224.825L122.614 222.69L121.877 224.549ZM158.355 216.598V221.993H160.355V216.598H158.355ZM141.371 217.598H144.968V215.598H141.371V217.598ZM154.667 219.104L156.466 217.305L155.051 215.891L153.253 217.689L154.667 219.104ZM155.758 217.598H159.355V215.598H155.758V217.598ZM144.26 217.305L146.059 219.104L147.473 217.689L145.675 215.891L144.26 217.305ZM152.161 230.885H146.766V232.885H152.161V230.885ZM158.984 221.065L154.488 222.863L155.231 224.72L159.727 222.922L158.984 221.065ZM153.91 223.476L151.213 231.569L153.11 232.201L155.808 224.108L153.91 223.476ZM142.371 221.094V216.598H140.371V221.094H142.371ZM147.758 231.761L146.859 224.567L144.875 224.815L145.774 232.009L147.758 231.761ZM146.491 223.91L141.995 220.313L140.746 221.875L145.242 225.472L146.491 223.91ZM204.029 211.518L201.532 212.767L202.426 214.556L204.923 213.307L204.029 211.518ZM202.979 213.661V199.931H200.979V213.661H202.979ZM209.445 200.106L214.438 196.362L213.238 194.762L208.245 198.506L209.445 200.106ZM214.766 195.933L217.262 189.692L215.406 188.949L212.909 195.19L214.766 195.933ZM211.341 210.165H206.348V212.165H211.341V210.165ZM205.793 210.333L203.921 211.581L205.03 213.245L206.903 211.997L205.793 210.333ZM201.979 200.931H205.724V198.931H201.979V200.931ZM205.92 200.911L209.041 200.287L208.648 198.326L205.528 198.95L205.92 200.911ZM202.281 199.925L202.228 209.94L204.228 209.951L204.281 199.936L202.281 199.925ZM203.232 208.946L196.991 208.916L196.982 210.916L203.223 210.946L203.232 208.946ZM197.605 199.507L199.425 198.259L198.293 196.609L196.474 197.858L197.605 199.507ZM199.414 198.266L201.286 197.018L200.176 195.354L198.304 196.602L199.414 198.266ZM200.176 197.018L202.049 198.266L203.158 196.602L201.286 195.354L200.176 197.018ZM201.896 198.141L202.52 198.765L203.935 197.351L203.311 196.727L201.896 198.141ZM202.227 198.058V199.306H204.227V198.058H202.227ZM202.231 199.391L202.284 200.015L204.277 199.846L204.224 199.222L202.231 199.391ZM189.549 206.909L197.715 199.419L196.364 197.945L188.197 205.435L189.549 206.909ZM196.987 208.916H192.617V210.916H196.987V208.916ZM192.375 208.946L187.382 210.195L187.867 212.135L192.86 210.886L192.375 208.946ZM188.624 211.165V206.796H186.624V211.165H188.624ZM188.072 207.69L189.32 207.066L188.425 205.277L187.177 205.901L188.072 207.69ZM95.4111 213.307L97.9075 214.556L98.802 212.767L96.3055 211.518L95.4111 213.307ZM99.3548 213.661V199.931H97.3548V213.661H99.3548ZM92.0894 198.506L87.0965 194.762L85.8965 196.362L90.8894 200.106L92.0894 198.506ZM87.425 195.19L84.9285 188.949L83.0715 189.692L85.568 195.933L87.425 195.19ZM88.993 212.165H93.9859V210.165H88.993V212.165ZM93.4312 211.997L95.3036 213.245L96.413 211.581L94.5406 210.333L93.4312 211.997ZM98.3548 198.931H94.61V200.931H98.3548V198.931ZM94.8062 198.95L91.6856 198.326L91.2933 200.287L94.4139 200.911L94.8062 198.95ZM96.0535 199.936L96.1063 209.951L98.1063 209.94L98.0534 199.925L96.0535 199.936ZM97.111 210.946L103.352 210.916L103.343 208.916L97.1016 208.946L97.111 210.946ZM103.86 197.858L102.041 196.609L100.909 198.259L102.729 199.507L103.86 197.858ZM102.03 196.602L100.158 195.354L99.0482 197.018L100.92 198.266L102.03 196.602ZM99.0483 195.354L97.1759 196.602L98.2853 198.266L100.158 197.018L99.0483 195.354ZM97.0234 196.727L96.3994 197.351L97.8137 198.765L98.4377 198.141L97.0234 196.727ZM96.1065 198.058V199.306H98.1065V198.058H96.1065ZM96.1101 199.222L96.057 199.846L98.0499 200.015L98.1029 199.391L96.1101 199.222ZM112.137 205.435L103.97 197.945L102.619 199.419L110.785 206.909L112.137 205.435ZM103.347 210.916H107.717V208.916H103.347V210.916ZM107.474 210.886L112.467 212.135L112.952 210.195L107.959 208.946L107.474 210.886ZM113.71 211.165V206.796H111.71V211.165H113.71ZM113.157 205.901L111.908 205.277L111.014 207.066L112.262 207.69L113.157 205.901ZM198.822 202.37V216.758H200.822V202.37H198.822ZM99.6636 202.375L99.6636 216.763H101.664L101.664 202.375H99.6636ZM146.766 219.396H153.96V217.396H146.766V219.396ZM215.334 189.32V207.42H217.334V189.32H215.334ZM215.734 206.62L210.741 210.365L211.941 211.965L216.934 208.22L215.734 206.62ZM83 189.32V207.42H85V189.32H83ZM83.4 208.22L88.393 211.965L89.593 210.365L84.6 206.62L83.4 208.22ZM154.526 99.0713H142.667V101.071H154.526V99.0713ZM153.526 97.5748V100.071H155.526V97.5748H153.526ZM155.774 96.5748H154.526V98.5748H155.774V96.5748ZM154.774 96.3266V97.5748H156.774V96.3266H154.774ZM157.402 91.4616L154.906 95.8305L156.642 96.8227L159.139 92.4539L157.402 91.4616ZM159.436 88.13L158.811 88.7542L160.226 90.1684L160.85 89.5443L159.436 88.13ZM159.143 83.8442V88.8372H161.143V83.8442H159.143ZM161.391 82.8442H160.143V84.8442H161.391V82.8442ZM160.391 80.0995V83.8442H162.391V80.0995H160.391ZM162.015 79.0995H161.391V81.0995H162.015V79.0995ZM161.015 78.2271V80.0995H163.015V78.2271H161.015ZM162.639 77.2271H162.015V79.2271H162.639V77.2271ZM161.639 76.9789V78.2271H163.639V76.9789H161.639ZM161.391 77.9789H162.639V75.9789H161.391V77.9789ZM153.277 79.8512H153.901V77.8512H153.277V79.8512ZM156.016 77.949L158.513 77.3249L158.028 75.3846L155.531 76.0087L156.016 77.949ZM158.074 77.3353L161.195 77.9595L161.587 75.9983L158.466 75.3742L158.074 77.3353ZM152.029 66.1206H153.277V64.1206H152.029V66.1206ZM151.029 64.4965V65.1206H153.029V64.4965H151.029ZM150.781 65.4965H152.029V63.4965H150.781V65.4965ZM149.781 63.2482V64.4965H151.781V63.2482H149.781ZM149.533 64.2482H150.781V62.2482H149.533V64.2482ZM148.533 62.6241V63.2482H150.533V62.6241H148.533ZM148.908 63.6241H149.533V61.6241H148.908V63.6241ZM147.908 62V62.6241H149.908V62H147.908ZM146.788 62.6241V62H144.788V62.6241H146.788ZM145.788 63H148.908V61H145.788V63ZM145.164 63.6241H145.788V61.6241H145.164V63.6241ZM143.043 72.61V71.9859H141.043V72.61H143.043ZM142.043 72.9859H145.164V70.9859H142.043V72.9859ZM141.419 73.61H142.043V71.61H141.419V73.61ZM142.419 73.8583V72.61H140.419V73.8583H142.419ZM140.795 74.8583H141.419V72.8583H140.795V74.8583ZM141.795 75.1065V73.8583H139.795V75.1065H141.795ZM137.674 76.1065H140.795V74.1065H137.674V76.1065ZM138.674 80.0995V75.1065H136.674V80.0995H138.674ZM138.298 79.0995H137.674V81.0995H138.298V79.0995ZM139.298 82.596V80.0995H137.298V82.596H139.298ZM138.923 81.596H138.298V83.596H138.923V81.596ZM139.923 90.7095V82.596H137.923V90.7095H139.923ZM140.254 90.6265L139.63 90.0024L138.215 91.4166L138.84 92.0407L140.254 90.6265ZM141.065 92.1347L140.441 90.8864L138.652 91.7808L139.276 93.0291L141.065 92.1347ZM141.502 92.4989L140.878 91.8748L139.464 93.289L140.088 93.9131L141.502 92.4989ZM142.313 94.007L141.689 92.7588L139.901 93.6532L140.525 94.9015L142.313 94.007ZM143.667 100.071V95.7025H141.667V100.071H143.667ZM143.374 94.9954L142.126 93.7471L140.712 95.1613L141.96 96.4096L143.374 94.9954ZM158.624 89.0141L157.376 91.5105L159.165 92.405L160.413 89.9085L158.624 89.0141ZM154.609 79.5583L156.481 77.686L155.067 76.2718L153.194 78.1441L154.609 79.5583ZM152.277 65.1206V78.8512H154.277V65.1206H152.277ZM146.164 71.9859V62.6241H144.164V71.9859H146.164Z" fill="black" mask="url(#path-4-inside-1_69_7)"/>
</svg>
