<svg width="48" height="50" viewBox="0 0 48 50" fill="none" xmlns="http://www.w3.org/2000/svg">
<path fill-rule="evenodd" clip-rule="evenodd" d="M28.1983 0.38C27.2733 -1.11759e-07 26.0983 0 23.7508 0C21.4033 0 20.2308 -1.11759e-07 19.3033 0.38C18.0719 0.885527 17.0917 1.85941 16.5783 3.0875C16.3433 3.645 16.2533 4.2975 16.2158 5.245C16.1991 5.93151 16.0076 6.60242 15.6594 7.1943C15.3112 7.78618 14.8178 8.27946 14.2258 8.6275C13.6226 8.96276 12.9446 9.14036 12.2546 9.14386C11.5646 9.14736 10.8848 8.97663 10.2783 8.6475C9.43329 8.2025 8.82079 7.9575 8.21579 7.8775C6.89217 7.70371 5.55347 8.0595 4.49079 8.8675C3.69579 9.4725 3.10829 10.4825 1.93579 12.5C0.760789 14.5175 0.175789 15.525 0.0432888 16.5125C-0.131711 17.8275 0.228289 19.1575 1.04329 20.21C1.41329 20.69 1.93579 21.0925 2.74329 21.5975C3.93579 22.34 4.70079 23.605 4.70079 25C4.70079 26.395 3.93579 27.66 2.74579 28.4C1.93579 28.9075 1.41329 29.31 1.04079 29.79C0.638496 30.3099 0.343212 30.9043 0.172 31.5389C0.000787228 32.1736 -0.0429592 32.8358 0.0432888 33.4875C0.175789 34.4725 0.760789 35.4825 1.93579 37.5C3.11079 39.5175 3.69579 40.525 4.49079 41.1325C5.55079 41.94 6.89079 42.295 8.21579 42.1225C8.82079 42.0425 9.43329 41.7975 10.2783 41.3525C10.8851 41.0229 11.5653 40.852 12.2559 40.8555C12.9464 40.859 13.6248 41.0368 14.2283 41.3725C15.4433 42.0725 16.1633 43.36 16.2158 44.755C16.2533 45.705 16.3433 46.355 16.5783 46.9125C17.0883 48.1375 18.0683 49.1125 19.3033 49.62C20.2283 50 21.4033 50 23.7508 50C26.0983 50 27.2733 50 28.1983 49.62C29.4297 49.1145 30.4098 48.1406 30.9233 46.9125C31.1583 46.355 31.2483 45.705 31.2858 44.755C31.3358 43.36 32.0583 42.07 33.2758 41.3725C33.8789 41.0372 34.5569 40.8596 35.247 40.8561C35.937 40.8526 36.6168 41.0234 37.2233 41.3525C38.0683 41.7975 38.6808 42.0425 39.2858 42.1225C40.6108 42.2975 41.9508 41.94 43.0108 41.1325C43.8058 40.5275 44.3933 39.5175 45.5658 37.5C46.7408 35.4825 47.3258 34.475 47.4583 33.4875C47.5442 32.8357 47.5 32.1733 47.3284 31.5387C47.1568 30.904 46.861 30.3097 46.4583 29.79C46.0883 29.31 45.5658 28.9075 44.7583 28.4025C43.5658 27.66 42.8008 26.395 42.8008 25C42.8008 23.605 43.5658 22.34 44.7558 21.6C45.5658 21.0925 46.0883 20.69 46.4608 20.21C46.8631 19.6901 47.1584 19.0957 47.3296 18.4611C47.5008 17.8264 47.5445 17.1642 47.4583 16.5125C47.3258 15.5275 46.7408 14.5175 45.5658 12.5C44.3908 10.4825 43.8058 9.475 43.0108 8.8675C41.9481 8.0595 40.6094 7.70371 39.2858 7.8775C38.6808 7.9575 38.0683 8.2025 37.2233 8.6475C36.6165 8.97707 35.9362 9.14804 35.2457 9.14455C34.5552 9.14105 33.8767 8.9632 33.2733 8.6275C32.6818 8.27915 32.1889 7.78574 31.8411 7.19388C31.4933 6.60202 31.3022 5.93127 31.2858 5.245C31.2483 4.295 31.1583 3.645 30.9233 3.0875C30.6692 2.47934 30.2977 1.92721 29.8302 1.46264C29.3626 0.998082 28.8081 0.630194 28.1983 0.38ZM23.7508 32.5C27.9258 32.5 31.3083 29.1425 31.3083 25C31.3083 20.8575 27.9233 17.5 23.7508 17.5C19.5758 17.5 16.1933 20.8575 16.1933 25C16.1933 29.1425 19.5783 32.5 23.7508 32.5Z" fill="#F8F8F8"/>
</svg>
