<svg width="22" height="22" viewBox="0 0 22 22" fill="none" xmlns="http://www.w3.org/2000/svg">
<path d="M20.9526 19.7917L16.1288 14.8044C17.2901 13.206 17.9171 11.2603 17.915 9.26112C17.915 4.15457 13.8966 0 8.95748 0C4.01836 0 0 4.15457 0 9.26112C0 14.3677 4.01836 18.5222 8.95748 18.5222C10.8911 18.5244 12.773 17.8763 14.319 16.6755L19.1428 21.6628C19.387 21.8885 19.7055 22.009 20.0329 21.9995C20.3603 21.99 20.6717 21.8513 20.9033 21.6119C21.1349 21.3724 21.269 21.0504 21.2782 20.7119C21.2874 20.3735 21.1708 20.0442 20.9526 19.7917ZM2.55928 9.26112C2.55928 7.95278 2.93453 6.67382 3.63757 5.58598C4.34062 4.49813 5.33988 3.65026 6.509 3.14958C7.67811 2.6489 8.96458 2.5179 10.2057 2.77314C11.4468 3.02839 12.5869 3.65841 13.4817 4.58355C14.3765 5.50869 14.9859 6.68738 15.2327 7.97058C15.4796 9.25379 15.3529 10.5839 14.8686 11.7926C14.3844 13.0014 13.5643 14.0345 12.5121 14.7614C11.46 15.4882 10.2229 15.8762 8.95748 15.8762C7.2612 15.8741 5.63497 15.1765 4.43552 13.9364C3.23606 12.6963 2.56132 11.0149 2.55928 9.26112Z" fill="#898888"/>
</svg>
